<?xml version="1.0" encoding="UTF-8" standalone="no"?>
<!-- Created with Inkscape (http://www.inkscape.org/) -->

<svg
   version="1.1"
   id="svg52803"
   width="655.35999"
   height="655.35999"
   viewBox="0 0 655.35999 655.35999"
   sodipodi:docname="Social2.svg"
   inkscape:version="1.1 (c68e22c387, 2021-05-23)"
   xmlns:inkscape="http://www.inkscape.org/namespaces/inkscape"
   xmlns:sodipodi="http://sodipodi.sourceforge.net/DTD/sodipodi-0.dtd"
   xmlns="http://www.w3.org/2000/svg"
   xmlns:svg="http://www.w3.org/2000/svg">
  <defs
     id="defs52807" />
  <sodipodi:namedview
     id="namedview52805"
     pagecolor="#ffffff"
     bordercolor="#666666"
     borderopacity="1.0"
     inkscape:pageshadow="2"
     inkscape:pageopacity="0.0"
     inkscape:pagecheckerboard="0"
     showgrid="false"
     inkscape:zoom="0.36468826"
     inkscape:cx="-486.71707"
     inkscape:cy="656.72528"
     inkscape:window-width="1920"
     inkscape:window-height="1009"
     inkscape:window-x="1912"
     inkscape:window-y="-8"
     inkscape:window-maximized="1"
     inkscape:current-layer="g52809" />
  <g
     inkscape:groupmode="layer"
     inkscape:label="Image"
     id="g52809">
    <path
       style="color:#000000;fill:#084e9e;stroke-width:0.32;-inkscape-stroke:none"
       d="m 144.81944,508.92112 c -1.14629,-0.59539 -1.9644,-2.38608 -1.72086,-3.76662 0.60732,-3.44282 3.01895,-15.16192 3.4572,-16.8 0.28252,-1.056 0.59729,-2.712 0.69949,-3.68 0.24985,-2.36643 1.27471,-7.6193 1.70957,-8.76224 0.19299,-0.50727 0.41154,-1.65927 0.48567,-2.56 0.0741,-0.90077 1.07249,-6.44919 2.21857,-12.32983 1.14608,-5.8806 2.0224,-10.79136 1.94738,-10.91276 -0.075,-0.12138 -1.11302,-0.31191 -2.30665,-0.42336 -9.32069,-0.87037 -14.15047,-11.81021 -8.57016,-19.4121 0.62535,-0.8519 1.88913,-2.0481 2.80839,-2.65821 2.99542,-1.98809 4.03489,-2.1415 14.51059,-2.1415 5.4253,0 9.44037,-0.12512 9.54692,-0.29754 0.10113,-0.16361 -0.4713,-1.23475 -1.27207,-2.38025 -3.47135,-4.96583 -5.82494,-11.6785 -6.13769,-17.50532 -0.28887,-5.38179 0.99574,-19.02 2.50854,-26.63228 0.35683,-1.79556 0.70859,-3.70077 0.78169,-4.23389 0.0731,-0.53309 0.35256,-1.75709 0.62104,-2.72 0.26847,-0.96288 0.57048,-2.18272 0.67114,-2.71072 0.38009,-1.99383 2.35766,-8.10074 3.11494,-9.61917 0.43362,-0.86947 1.07095,-2.44835 1.41629,-3.50864 0.72447,-2.22429 2.39449,-5.63849 3.43973,-7.03219 0.39598,-0.528 1.12015,-1.752 1.60927,-2.72 1.21386,-2.40233 3.35673,-5.40555 5.30314,-7.43236 0.8914,-0.9282 1.82435,-2.07992 2.07324,-2.55938 0.51109,-0.98458 5.06653,-5.06695 7.96463,-7.13753 2.4543,-1.7535 6.16448,-3.72847 8.72,-4.64174 1.1,-0.39311 2,-0.87828 2,-1.07816 0,-0.19988 -0.65372,-1.22459 -1.45271,-2.27712 -1.85648,-2.44562 -3.75339,-6.32982 -4.68523,-9.59371 -0.61963,-2.17033 -0.73088,-3.31498 -0.73088,-7.52 0,-4.18207 0.11243,-5.3509 0.71681,-7.45232 3.13855,-10.91264 11.72217,-18.83246 22.63201,-20.88179 3.44694,-0.64747 9.09659,-0.49068 12.32,0.34192 3.24115,0.83719 8.20727,3.34846 10.95785,5.54118 4.61682,3.68045 8.29931,9.35922 9.88977,15.25101 0.99535,3.68723 1.00191,10.75688 0.0134,14.4 -1.57571,5.80698 -5.34929,11.626 -9.86797,15.21683 -4.06269,3.22847 -9.6406,5.60825 -14.59626,6.22743 -1.02623,0.12821 -1.83494,0.38972 -1.83263,0.59261 0.002,0.19972 0.30366,1.29913 0.66974,2.44313 0.90242,2.82003 1.11949,7.88645 0.50728,11.84 -0.5289,3.41558 -0.38774,3.87152 1.18384,3.82371 0.54726,-0.0166 2.50701,0.0706 4.35501,0.19395 2.08066,0.13885 4.63935,0.0766 6.72,-0.16358 1.848,-0.21328 3.936,-0.43523 4.64,-0.49322 2.93989,-0.24211 10.53613,-2.60585 13.92,-4.33155 2.94516,-1.50195 2.94456,-1.5011 3.53349,-5.01152 2.11401,-12.60091 9.09383,-20.79043 20.08793,-23.56957 1.6171,-0.40879 3.0356,-0.83861 3.1522,-0.95516 0.1165,-0.11654 -0.5184,-1.61616 -1.411,-3.33248 -3.424,-6.58365 -4.3065,-12.94202 -2.765,-19.92058 2.2464,-10.16987 10.1478,-18.51386 20.3199,-21.45798 3.3892,-0.98095 9.8097,-1.20895 13.4285,-0.47688 9.4013,1.90182 17.7627,8.86659 21.1313,17.6017 1.4163,3.67238 1.933,6.53544 1.937,10.73316 0,4.99756 -0.8482,8.55387 -3.1286,13.04179 -0.9537,1.87714 -1.6909,3.54262 -1.6381,3.70106 0.053,0.15844 1.4495,0.6302 3.1037,1.04835 5.5915,1.41345 10.6893,4.59278 13.9462,8.69781 2.0967,2.64275 4.4994,7.68306 5.4286,11.38776 2.4337,9.70365 1.4599,24.0776 -2.5694,37.92544 -3.1417,10.7976 -8.6263,20.4079 -14.6367,25.6472 -0.836,0.72873 -1.52,1.45673 -1.52,1.61779 0,0.16102 0.54,0.29529 1.2,0.29837 2.057,0.01 5.3518,0.86032 7.4675,1.92835 2.5778,1.30125 5.6962,4.28493 6.9635,6.66265 0.8325,1.56199 10.1941,32.31517 22.8978,75.2201 0.9082,3.06717 1.8095,5.62944 2.003,5.69395 0.1935,0.0645 0.4473,-0.26314 0.564,-0.72803 0.1166,-0.4649 3.3171,-7.98979 7.1122,-16.72198 l 6.9001,-15.87668 -1.7816,-5.61196 c -2.1647,-6.81866 -2.4302,-7.95488 -2.4331,-10.41197 -0.01,-6.55594 3.5848,-12.64314 9.5377,-16.16067 1.2931,-0.7641 2.3912,-1.54452 2.4401,-1.73431 0.049,-0.18976 0.2515,-1.39488 0.4501,-2.67808 0.491,-3.17216 1.5466,-5.09107 4.5613,-8.29158 6.3148,-6.70407 10.555,-13.09299 14.3154,-21.56986 1.8903,-4.26134 4.5238,-12.02966 4.5181,-13.32733 0,-0.48297 -0.5115,-2.03017 -1.1318,-3.43817 -0.6203,-1.408 -1.506,-3.496 -1.9682,-4.64 -0.4621,-1.144 -1.0894,-2.44 -1.3938,-2.88 -1.1275,-1.62951 -4.4815,-11.61197 -5.5372,-16.48 -1.3094,-6.03863 -1.3834,-13.34629 -0.1749,-17.2744 0.3239,-1.05292 0.4857,-2.00606 0.3594,-2.11809 -0.1263,-0.11204 -1.5884,-0.44627 -3.2492,-0.74275 -13.7714,-2.45846 -23.7004,-14.33315 -23.7004,-28.34476 0,-7.84631 2.815,-14.68886 8.301,-20.17771 4.4083,-4.41055 8.7816,-6.82318 14.5119,-8.0057 12.9513,-2.6727 25.921,3.64959 31.7409,15.47257 2.2463,4.56343 2.8284,7.17916 2.8284,12.71084 0,3.74051 -0.1334,5.13627 -0.688,7.2 -0.8416,3.13196 -3.0585,7.66739 -4.9996,10.22815 -0.7954,1.04948 -1.3402,2.00683 -1.2105,2.12744 0.1297,0.1206 1.2439,0.61628 2.4759,1.1015 5.3319,2.09999 10.4504,5.66237 15.2112,10.58683 4.4312,4.58347 6.471,7.47819 10.4545,14.83608 2.8316,5.23033 3.8881,7.56141 5.2122,11.50051 0.9135,2.71725 1.8741,5.88525 2.1348,7.04 0.2606,1.15472 0.6153,2.67549 0.7881,3.37949 2.3498,9.57264 4.4848,27.68467 3.9869,33.82285 -0.4453,5.48928 -2.5324,11.48073 -5.6453,16.20585 -1.0463,1.58826 -1.9024,3.03405 -1.9024,3.2129 0,0.21133 3.5562,0.35897 10.16,0.42176 l 10.16,0.0966 1.8298,0.85763 c 8.5246,3.99549 9.7478,15.36502 2.2484,20.8991 -1.7013,1.2554 -4.9554,2.40327 -6.813,2.40327 -0.6751,0 -1.3174,0.14547 -1.4273,0.32329 -0.1828,0.29591 1.909,12.13546 3.3635,19.03671 0.3339,1.584 0.7735,4.032 0.9769,5.44 0.3325,2.30057 2.1003,11.1998 3.846,19.36 0.3577,1.672 0.7989,3.904 0.9804,4.96 0.1815,1.056 0.4721,2.64 0.6457,3.52 0.7306,3.70374 0.7016,4.74566 -0.1578,5.67299 -1.9592,2.11401 -4.8749,1.29507 -5.6065,-1.57466 -0.5272,-2.06806 -0.8401,-3.65488 -5.9822,-30.33833 -2.7472,-14.256 -5.0996,-26.02899 -5.2276,-26.16218 -0.128,-0.13321 -10.3765,-0.20521 -22.7745,-0.16 l -22.5418,0.0822 -0.5418,2.72 c -0.2981,1.496 -1.3312,6.824 -2.2959,11.84 l -1.7541,9.12 0.6067,2.72 c 0.8673,3.88915 1.818,10.35625 2.249,15.30003 0.2874,3.29565 0.2839,4.70537 -0.016,6.22723 -1.0609,5.39277 -4.9944,9.54877 -10.4083,10.99709 -3.1704,0.84816 -7.0011,0.32054 -10.1615,-1.39959 -2.0324,-1.10614 -4.753,-4.05952 -5.8228,-6.32086 -0.4642,-0.98128 -0.9759,-1.70272 -1.1369,-1.60317 -0.1611,0.0996 -0.765,1.0761 -1.3421,2.17015 -5.402,10.24131 -19.5566,9.95772 -24.4147,-0.48916 l -1.0796,-2.32172 -0.5068,1.28 c -1.5419,3.8943 -3.4495,6.08707 -6.6875,7.68739 -2.9069,1.43667 -5.7889,1.76237 -8.789,0.99325 -3.3798,-0.86647 -4.7247,-1.86493 -8.0834,-6.00132 l -0.8243,-1.01513 -0.7022,1.13616 c -0.3862,0.62486 -0.9153,1.21792 -1.1757,1.31785 -0.2604,0.0999 -0.4735,0.36624 -0.4735,0.59175 -1e-4,0.98029 -3.7048,3.26457 -6.4262,3.96224 -5.9713,1.53085 -11.9561,-1.34311 -14.7023,-7.06023 -1.293,-2.69161 -3.8142,-9.26025 -4.365,-11.37196 -0.2525,-0.968 -0.7376,-2.23261 -1.078,-2.81021 -0.6748,-1.1449 -3.6296,-8.92102 -3.9784,-10.46979 -0.1189,-0.528 -0.6316,-1.824 -1.1392,-2.88 -0.5078,-1.056 -2.5896,-6.312 -4.6264,-11.68 -2.0369,-5.368 -3.9618,-10.408 -4.2777,-11.2 l -0.5743,-1.44 -11.3738,-0.084 c -8.8664,-0.0655 -11.4397,0.005 -11.673,0.32 -0.1646,0.22221 -0.8495,3.284 -1.5221,6.804 -0.6725,3.52 -1.5496,7.696 -1.949,9.28 -0.3994,1.584 -0.965,4.392 -1.2569,6.24 -0.9303,5.88966 -2.132,12.27379 -2.59,13.76 -0.2441,0.792 -0.4147,1.656 -0.3791,1.92 0.067,0.49987 -1.5708,9.44953 -2.6945,14.72 -0.3565,1.672 -0.7091,3.35715 -0.7834,3.7448 -0.074,0.38764 -0.4818,1.10764 -0.9053,1.6 -1.5421,1.79276 -4.9437,0.87932 -5.4556,-1.465 -0.1731,-0.7928 2.3107,-14.45929 3.0024,-16.5198 0.5253,-1.56474 3.2278,-15.97085 3.2278,-17.20615 0,-0.62524 0.2861,-2.04966 0.6358,-3.16534 0.3498,-1.11568 0.6378,-2.42541 0.64,-2.91053 0,-0.48512 0.6519,-4.15712 1.4436,-8.16 0.7917,-4.00288 1.4397,-7.65315 1.44,-8.11171 6e-4,-0.79488 -0.099,-0.84298 -2.1278,-1.03248 -4.2492,-0.3968 -8.0455,-3.02019 -9.9332,-6.86416 -1.24363,-2.53264 -1.43715,-6.72298 -0.43399,-9.39843 0.92289,-2.46131 2.54519,-4.48944 4.83519,-6.04455 1.0541,-0.71584 1.8535,-1.40166 1.7764,-1.52409 -0.077,-0.1224 -0.773,-1.16448 -1.5464,-2.31571 -2.1445,-3.19172 -2.972,-6.09693 -2.9587,-10.38685 0.01,-3.27267 0.1039,-3.79216 1.3335,-7.39363 0.7274,-2.1305 1.9825,-5.18762 2.7891,-6.7936 0.8066,-1.60599 1.4665,-3.17677 1.4665,-3.49066 0,-0.31386 -0.4847,-1.29034 -1.0771,-2.16995 -3.7273,-5.53485 -6.86169,-13.38698 -9.48941,-23.77287 -0.19213,-0.75939 -0.45136,-1.33539 -0.57607,-1.28 -0.12471,0.0554 -1.30465,0.51226 -2.62209,1.01527 -1.31744,0.50297 -2.98712,1.18697 -3.7104,1.52 -0.72328,0.33299 -1.50505,0.60544 -1.73728,0.60544 -0.23223,0 -0.86445,0.13769 -1.40495,0.30601 -2.11368,0.65821 -7.76861,1.93399 -8.57252,1.93399 -0.4667,0 -1.23449,0.14675 -1.70622,0.32608 -1.281,0.48704 -12.97222,0.73133 -16.14398,0.33734 -3.52762,-0.43821 -6.16141,-0.86457 -7.01576,-1.13574 -0.59841,-0.18992 -0.80267,0.0491 -1.66245,1.94531 -4.175,9.20797 -6.04169,18.19309 -6.04169,29.08144 v 4.97965 l 1.50969,0.95744 c 0.83033,0.52656 8.01531,4.79085 15.96661,9.47619 7.95131,4.68531 15.25838,9.15456 16.23794,9.93162 2.26665,1.79814 4.66218,5.36928 5.65938,8.43676 1.02663,3.15796 1.04018,7.76772 0.0319,10.86391 -0.37252,1.144 -0.67917,2.43737 -0.68145,2.87414 -0.002,0.4368 3.89819,9.77091 8.66767,20.74247 8.39058,19.30134 8.67738,20.02937 8.84308,22.44675 0.7441,10.85683 -10.98276,18.00297 -20.35624,12.4047 -2.53093,-1.51158 -4.02598,-3.45347 -7.12109,-9.24954 -1.52663,-2.85884 -2.91926,-5.24576 -3.09474,-5.30425 -0.17547,-0.0585 -0.98886,1.90345 -1.80753,4.3599 -0.81867,2.45645 -1.91917,5.11645 -2.44555,5.91117 -4.3685,6.5952 -13.53453,8.2439 -19.87803,3.57542 -1.98718,-1.46243 -3.86922,-3.88358 -4.78845,-6.16009 -0.65905,-1.63219 -0.73899,-2.33002 -0.7057,-6.16067 0.0414,-4.76685 0.63353,-9.7608 1.93361,-16.30887 0.98841,-4.97827 1.1379,-3.39366 -1.7067,-18.09113 -0.98785,-5.104 -1.9371,-9.46 -2.10945,-9.68 -0.24536,-0.31319 -5.16758,-0.4 -22.68211,-0.4 h -22.36873 l -0.26806,0.72 c -0.14743,0.396 -1.87147,9.072 -3.83119,19.28 -1.95973,10.208 -3.69539,19.064 -3.85702,19.68 -0.16164,0.616 -0.98897,4.864 -1.83852,9.44 -1.3408,7.22208 -1.65051,8.4376 -2.347,9.2111 -0.94134,1.04547 -2.6715,1.40368 -3.84237,0.79552 z m 198.55995,-7.30458 c 2.7639,-1.55737 3.5734,-4.19113 2.4376,-7.93075 -0.3727,-1.22685 -0.6776,-2.54374 -0.6776,-2.9264 0,-0.38265 -0.3584,-1.59168 -0.7965,-2.68669 -0.9925,-2.48108 -3.02,-9.15331 -3.3663,-11.0782 -0.1424,-0.792 -0.4993,-2.088 -0.7931,-2.88 -0.2938,-0.792 -4.3225,-14.04967 -8.9527,-29.46147 -4.6303,-15.41181 -8.7089,-28.58781 -9.0636,-29.28 -0.8679,-1.69338 -2.7252,-3.49133 -4.5158,-4.37149 -1.3709,-0.67383 -2.0364,-0.73792 -9.692,-0.93328 -5.9508,-0.15184 -8.9101,-0.36234 -10.72,-0.76256 -8.4276,-1.86365 -12.0769,-3.30061 -16.0984,-6.33904 -1.3191,-0.99671 -2.5165,-1.81216 -2.6608,-1.81216 -0.403,0 -2.296,4.31213 -3.2691,7.44662 -1.6129,5.19587 -0.7628,9.59267 2.5094,12.97891 0.7364,0.76205 1.9657,1.75639 2.7318,2.20964 2.5051,1.48227 4.2015,1.67443 14.8293,1.67984 9.727,0.005 9.8301,0.0118 10.6394,0.72499 0.6019,0.53027 1.9603,3.71344 5.1552,12.08 7.168,18.77123 12.7695,33.61453 13.6459,36.16 1.2008,3.48771 4.5992,12.26272 5.0283,12.98329 0.202,0.3392 1.3361,3.15248 2.5203,6.25178 2.4214,6.33737 3.5555,8.01193 5.9325,8.75965 1.7189,0.5407 3.182,0.31097 5.1762,-0.81268 z m -118.58491,0.2362 c 2.83578,-1.4504 2.59905,-0.86397 11.80512,-29.24477 l 8.49006,-26.17347 0.0236,-3.04 c 0.0208,-2.68352 -0.0779,-3.2464 -0.84141,-4.8 -1.58949,-3.23427 -2.83315,-4.11674 -20.41237,-14.48378 -9.064,-5.34534 -16.78268,-9.91056 -17.15261,-10.14489 -1.0856,-0.68772 -1.45447,-1.56132 -1.57415,-3.72804 -0.0619,-1.12124 -0.20224,-2.18371 -0.3118,-2.36096 -0.26677,-0.43164 -35.24766,-0.44531 -35.5143,-0.0138 -0.36334,0.58791 0.83563,4.34752 2.45288,7.69156 1.38629,2.86646 2.00652,3.74044 4.22248,5.94995 2.84878,2.84048 5.7314,4.50557 9.38831,5.42294 3.4658,0.86941 38.10411,15.32605 39.18795,16.35546 1.49398,1.41894 2.18112,3.03718 2.18213,5.13891 6.4e-4,1.64998 -0.2427,2.34403 -2.2251,6.34256 -4.40694,8.88883 -7.30205,17.78304 -8.95473,27.51018 -1.34534,7.91823 -1.67744,14.00236 -0.86955,15.93027 1.61192,3.84659 6.36198,5.56163 10.10354,3.64796 z m 33.6666,-0.38794 c 0.74207,-0.52266 1.69535,-1.5983 2.11839,-2.3903 0.64325,-1.20426 0.74806,-1.78052 0.64021,-3.52 -0.11614,-1.87309 -0.79987,-3.61805 -6.87377,-17.5425 -3.70964,-8.50438 -6.83307,-15.55078 -6.94097,-15.65865 -0.10789,-0.10791 -0.32372,-0.0618 -0.47961,0.10249 -0.43314,0.45642 -6.42589,19.22602 -6.42589,20.12624 0,0.91571 7.16073,15.37718 8.57706,17.32186 1.41343,1.94067 3.23474,2.75036 5.88914,2.61811 1.76182,-0.0878 2.38787,-0.27712 3.49544,-1.05725 z m 109.14301,0.0327 c 0.9819,-0.74969 1.6654,-1.62857 2.159,-2.7759 0.6417,-1.49155 0.6831,-1.86013 0.3715,-3.30298 -0.7319,-3.38915 -1.055,-4.58749 -1.9905,-7.38409 -1.3915,-4.15997 -2.5392,-8.10384 -2.8402,-9.76 -0.1439,-0.792 -0.5711,-2.304 -0.9494,-3.36 -0.3783,-1.056 -4.423,-14.376 -8.9883,-29.6 -4.5653,-15.224 -8.5252,-28.2801 -8.8,-29.01354 -0.6913,-1.84566 -2.7928,-4.13062 -4.7473,-5.1616 -1.6011,-0.84461 -1.7912,-0.86729 -8.1195,-0.96845 -4.3541,-0.0696 -6.48,0.006 -6.48,0.23044 0,0.18371 0.417,1.1663 0.9267,2.18358 0.5096,1.01725 3.4614,10.35754 6.5596,20.75616 5.4171,18.18173 6.591,21.6271 12.9631,38.04611 0.5448,1.40397 0.9906,2.77754 0.9906,3.05232 0,0.27482 0.2958,1.07011 0.6572,1.76733 0.8999,1.736 3.6275,8.83974 4.2957,11.18765 0.3005,1.056 0.8872,2.568 1.3037,3.36 0.7532,1.432 3.0262,7.28121 3.0244,7.78259 0,0.14441 0.5816,0.95347 1.2936,1.79789 1.4495,1.71904 2.5111,2.17897 5.1394,2.22684 1.5762,0.0288 1.9684,-0.10051 3.2307,-1.06435 z m 25.3392,0.65274 c 0.5849,-0.24439 1.5523,-0.93978 2.1498,-1.54538 1.2413,-1.25814 5.7263,-9.71241 5.7263,-10.79427 0,-0.68618 -5.9409,-19.50361 -6.2574,-19.82019 -0.084,-0.0843 -0.3008,-0.006 -0.4812,0.17472 -0.5641,0.56419 -10.2259,22.91312 -10.5611,24.42941 -0.6114,2.76502 0.9955,6.02736 3.6049,7.31897 1.6099,0.79687 4.2236,0.9032 5.8187,0.23674 z m 26.9753,0.1064 c 1.8004,-0.6753 3.2825,-1.98013 4.0902,-3.60112 0.9748,-1.9561 1.0378,-3.85306 0.3316,-9.98295 -1.4056,-12.20031 -4.4503,-22.77561 -9.5349,-33.11804 -2.3547,-4.7896 -2.5971,-5.45834 -2.6098,-7.2 -0.011,-1.53773 0.1627,-2.22096 0.8734,-3.43149 1.0605,-1.8065 2.2925,-2.58144 7.4787,-4.70422 2.0854,-0.85357 9.9421,-4.08285 17.4593,-7.1762 7.5173,-3.09331 14.5733,-5.85516 15.68,-6.13747 7.0086,-1.78765 12.5719,-7.26909 15.0926,-14.87062 0.4378,-1.32 0.8418,-2.832 0.8978,-3.36 l 0.1019,-0.96 -13.8175,-0.0834 -13.8175,-0.0834 -2.0924,3.47276 c -4.4195,7.33508 -8.7561,12.73901 -15.5215,19.34148 -6.1973,6.04819 -7.5676,6.79251 -12.5043,6.79251 -2.9879,0 -3.5739,-0.0971 -5.2076,-0.86269 -1.0125,-0.47446 -2.6228,-1.60221 -3.5785,-2.50608 l -1.7377,-1.64339 -1.5415,0.90105 c -2.2107,1.29232 -4.1813,3.38541 -5.167,5.48823 -0.7381,1.57456 -0.8545,2.23699 -0.8545,4.86288 v 3.04 l 8.2765,25.6 c 4.552,14.08 8.5348,26.104 8.8507,26.72 0.7326,1.42896 2.086,2.71177 3.5128,3.32982 1.3094,0.56717 4.0506,0.65562 5.3392,0.17229 z M 215.55147,458.35453 c 0.22532,-0.572 1.33558,-2.9592 2.46724,-5.30493 1.13166,-2.3457 1.99524,-4.32723 1.91906,-4.40339 -0.0762,-0.0762 -0.77296,0.0866 -1.54842,0.36182 -0.77545,0.27517 -2.30991,0.58554 -3.40991,0.6897 -2.39634,0.22688 -2.33711,-0.0464 -1.2,5.5368 0.44,2.16041 0.8,3.98022 0.8,4.044 0,0.0638 0.12653,0.116 0.28117,0.116 0.15465,0 0.46553,-0.468 0.69086,-1.04 z m 209.76682,-3.60154 c 0.4426,-2.26352 0.7319,-4.30515 0.643,-4.53696 -0.096,-0.25005 -0.675,-0.4215 -1.4233,-0.4215 -0.6939,0 -2.1682,-0.28218 -3.2763,-0.62707 -1.1081,-0.3449 -2.0809,-0.56093 -2.1618,-0.48007 -0.081,0.0808 0.7302,1.98301 1.8023,4.22704 1.0721,2.24407 2.1794,4.6456 2.4606,5.33677 0.3405,0.83693 0.6181,1.14986 0.831,0.93696 0.1758,-0.17584 0.6818,-2.17165 1.1245,-4.43517 z M 206.68776,442.73485 c -0.61805,-0.61805 -20.35087,-8.60615 -24.0699,-9.74381 l -3.64989,-1.11651 -13.31427,0.003 c -8.72681,0 -13.7528,0.12352 -14.58705,0.35513 -1.67801,0.46586 -3.5291,2.34752 -3.98879,4.05469 -0.65403,2.42887 0.72977,5.34695 3.00571,6.33827 1.27274,0.55437 57.15716,0.6634 56.60419,0.11044 z m 98.77163,-0.14541 c 0,-0.92141 -3.5566,-9.91613 -4.0787,-10.31491 -0.711,-0.5432 -23.4334,-0.57235 -25.5761,-0.0328 -3.9357,0.99104 -5.5185,5.81862 -2.8895,8.81292 1.7824,2.02996 1.4609,1.9936 17.7443,2.0074 13.0167,0.0109 14.8,-0.046 14.8,-0.47258 z m 183.5697,-0.0399 c 0.6086,-0.28876 1.4943,-1.03356 1.9684,-1.6551 0.7393,-0.96928 0.8619,-1.43757 0.8619,-3.29149 0,-1.69187 -0.1454,-2.35773 -0.6694,-3.06493 -1.047,-1.41312 -2.5753,-2.28387 -4.3867,-2.49939 -0.9151,-0.10889 -7.4959,-0.15433 -14.6239,-0.10102 l -12.96,0.097 -2.88,0.89117 c -3.5078,1.08544 -24.16,9.54592 -24.16,9.89753 0,0.13821 12.5423,0.2513 27.8717,0.2513 25.1744,0 27.9787,-0.0508 28.978,-0.52503 z m -74.0161,-12.48377 c 1.7155,-0.87015 11.0814,-10.56752 14.0719,-14.56995 9.8606,-13.19719 15.4016,-27.31341 17.034,-43.39514 0.2627,-2.58838 0.5032,-7.70605 0.5344,-11.37264 l 0.057,-6.66656 0.9192,-0.77344 c 1.3578,-1.14253 2.9039,-1.04464 4.2106,0.26653 l 1.0364,1.04 0.2136,5.70736 c 0.1174,3.13904 0.1538,5.804 0.081,5.92214 -0.073,0.11815 -0.2133,1.72583 -0.3117,3.57264 -0.4821,9.04957 -2.5854,18.67293 -5.9832,27.37578 -0.691,1.76989 -1.2563,3.31958 -1.2563,3.44381 0,0.12422 5.508,0.18816 12.24,0.14208 l 12.24,-0.0838 -0.084,-2.24 c -0.3815,-10.11575 -3.5386,-27.80947 -6.1691,-34.57405 -0.2024,-0.52029 -0.5608,-1.66595 -0.7965,-2.54595 -0.2357,-0.88 -1.608,-3.832 -3.0496,-6.56 -1.4415,-2.728 -2.8436,-5.392 -3.1157,-5.92 -1.7705,-3.43549 -8.1155,-10.46077 -12.3177,-13.63836 -4.4483,-3.36367 -10.846,-6.01645 -14.5573,-6.03609 -0.5776,-0.003 -1.5856,0.23142 -2.24,0.52104 -0.6543,0.28963 -2.2697,0.9178 -3.5897,1.39593 -1.9565,0.70869 -2.5917,1.11795 -3.4372,2.21468 -1.3157,1.70652 -2.2687,4.83208 -2.5898,8.49373 -0.2556,2.91564 -0.2103,3.42046 0.7299,8.12257 1.2589,6.29677 5.7751,18.28426 6.5724,17.44541 0.4408,-0.46381 1.438,-7.44512 1.5026,-10.51891 0.3224,-15.36145 0.2952,-14.96334 1.0648,-15.58651 1.478,-1.19679 3.3162,-1.12369 4.6238,0.18388 0.6935,0.69353 0.7431,1.05277 0.9582,6.94698 0.1572,4.30602 0.1138,6.7072 -0.1411,7.81565 -0.2023,0.88 -0.4217,2.896 -0.4875,4.48 -0.3792,9.13763 -3.2481,21.76662 -7.2638,31.97606 -3.9364,10.00784 -9.4486,18.74522 -16.4882,26.13533 -1.2739,1.33728 -2.5339,2.95264 -2.8001,3.58973 -2.1795,5.21625 3.4791,10.2823 8.5896,7.69008 z m -95.7936,-27.46487 c 6.8215,-1.24588 10.751,-3.01436 14.4796,-6.51657 7.9769,-7.49255 13.5076,-21.07594 15.4789,-38.01635 0.7388,-6.3488 0.4768,-14.19266 -0.6139,-18.37576 -2.7142,-10.41005 -9.7774,-15.98688 -20.7123,-16.35358 -2.3239,-0.0779 -2.4525,-0.0416 -4.5012,1.27155 -3.816,2.44604 -10.0679,4.22438 -14.8511,4.22438 -2.3106,0 -6.808,-0.73113 -9.0269,-1.46747 -1.4185,-0.47074 -3.2148,-1.31536 -7.2931,-3.42928 -1.5349,-0.79562 -1.7149,-0.81709 -4.4268,-0.5281 -10.2883,1.09635 -16.1807,5.77674 -19.0588,15.13856 -1.0051,3.26953 -0.9459,3.60259 0.6856,3.85442 2.4921,0.38467 4.3346,1.17359 5.8442,2.50239 4.6332,4.07831 5.1812,10.38436 1.3128,15.10532 -0.6384,0.77904 -2.38,2.08176 -4.3122,3.2255 -2.5466,1.50743 -3.2417,2.07002 -3.243,2.6249 0,1.21702 2.1488,9.16192 3.3746,12.45961 3.1663,8.51796 6.9044,14.41328 11.7863,18.58788 2.16,1.84707 5.458,3.75488 5.9574,3.4462 0.176,-0.10873 0.3207,-0.72921 0.3217,-1.37881 0,-1.69997 0.493,-3.22685 1.5942,-4.96327 0.5302,-0.83606 0.964,-1.62835 0.964,-1.76067 0,-0.13232 -0.7052,-0.7671 -1.5672,-1.41065 -4.238,-3.16391 -7.4443,-9.64493 -8.9737,-18.13856 -1.1222,-6.232 -2.6235,-26.99828 -2.1034,-29.09453 0.7423,-2.99171 4.9294,-3.40036 6.0677,-0.59219 0.2497,0.61586 0.4955,3.29668 0.6216,6.77875 1.0172,28.08102 4.2747,36.33565 15.4272,39.09286 2.9877,0.73863 9.1132,0.73728 12.1072,-0.003 11.0976,-2.74275 14.3222,-10.99216 15.4051,-39.4102 0.148,-3.88395 0.3639,-6.04486 0.6629,-6.63459 0.4532,-0.89365 1.914,-1.84541 2.8326,-1.84541 0.9495,0 2.3859,0.96444 2.8909,1.94094 0.4436,0.8578 0.4611,1.81112 0.1518,8.23458 -0.4063,8.43657 -1.1241,16.65839 -1.7933,20.53967 -2.4832,14.40394 -8.1531,21.31364 -19.4837,23.74423 -2.0769,0.44553 -4.7691,0.67149 -9.6057,0.80614 -7.4416,0.20723 -7.9313,0.33517 -8.4482,2.20733 -0.5928,2.14701 0.5009,4.09824 2.5951,4.62995 1.8963,0.48141 16.0811,0.11939 19.4531,-0.49651 z M 205.1052,400.32839 c 0.10683,-0.2784 0.19424,-1.28144 0.19424,-2.22899 0,-5.11357 2.10743,-14.64112 4.77444,-21.58483 0.91259,-2.376 1.73501,-4.55111 1.82758,-4.83354 0.19202,-0.58582 -1.26062,-1.56281 -3.26808,-2.19798 -4.78327,-1.51344 -15.91911,-9.12279 -16.82163,-11.49456 -0.37867,-0.99514 0.19396,-2.75594 1.10338,-3.39293 0.37769,-0.26454 1.31036,-0.48099 2.07259,-0.48099 1.18976,0 1.68914,0.23955 3.5288,1.69264 6.63983,5.2447 15.97688,9.65565 23.80378,11.24525 8.90312,1.80816 19.41336,1.14553 29.2393,-1.84346 8.18436,-2.4896 19.09839,-7.9159 20.41949,-10.15226 1.5179,-2.56966 -0.5744,-6.06217 -3.6318,-6.06217 -0.5411,0 -1.9604,0.49181 -3.15406,1.0929 -3.30872,1.66627 -9.8246,4.3471 -10.56574,4.3471 -0.36242,0 -1.63749,0.3736 -2.8335,0.83021 -1.196,0.4566 -3.11055,0.95766 -4.25455,1.11344 -1.144,0.1558 -2.728,0.48796 -3.52,0.73814 -0.80656,0.25478 -3.62188,0.54845 -6.4,0.66758 -5.95505,0.25533 -14.44562,-0.62988 -16.60434,-1.73116 -0.68762,-0.35082 -2.30509,-0.93015 -3.59438,-1.28743 -2.58465,-0.71625 -7.85405,-3.52406 -9.48312,-5.05312 -0.57301,-0.53782 -1.79701,-1.4823 -2.72,-2.09884 -1.66825,-1.11434 -4.68977,-4.07495 -5.75605,-5.63998 -1.77955,-2.61192 1.19569,-6.27572 3.91461,-4.82059 0.32706,0.17503 2.06069,1.76392 3.85251,3.53085 1.79181,1.76693 4.1058,3.78844 5.1422,4.49224 1.9841,1.3474 6.85726,3.81866 7.53008,3.81866 0.65355,0 0.82518,-1.14755 0.83121,-5.55758 0.005,-3.40112 -0.1223,-4.60161 -0.66583,-6.296 -0.89241,-2.78199 -2.34471,-4.93352 -3.65301,-5.41181 -0.56864,-0.20787 -2.11388,-0.8207 -3.43388,-1.36183 -3.02793,-1.24128 -4.04158,-1.38173 -6.50113,-0.90078 -5.65808,1.10641 -11.05342,4.3273 -16.54945,9.87962 -2.02982,2.05061 -4.39564,4.73638 -5.25739,5.96838 -0.86174,1.232 -1.86499,2.55104 -2.22942,2.93123 -0.67616,0.70538 -0.90957,1.13296 -3.60144,6.59728 -0.84764,1.72067 -1.74784,3.52067 -2.00043,4 -0.25259,0.47933 -0.71017,1.73549 -1.01686,2.79149 -0.73054,2.51549 -2.42703,8.41507 -3.17466,11.04 -1.44855,5.08582 -3.14668,16.46137 -3.69018,24.72 l -0.22638,3.44 h 18.08943 c 16.2,0 18.10972,-0.0529 18.28367,-0.50618 z m 24.35424,-74.88992 c 4.29041,-1.03022 9.16285,-4.08546 11.83778,-7.42282 2.00149,-2.49714 3.84555,-6.27312 4.49984,-9.21405 0.72551,-3.26098 0.50246,-9.0462 -0.45243,-11.73513 -2.67343,-7.52823 -8.48496,-12.89781 -16.04519,-14.82498 -2.48924,-0.63452 -7.094,-0.70096 -9.76,-0.14083 -4.21564,0.88573 -8.80331,3.48727 -11.65836,6.61115 -8.10177,8.86463 -7.92355,22.17823 0.41051,30.66736 5.53059,5.6335 13.47297,7.90701 21.16785,6.0593 z m 190.71995,0.007 c 1.056,-0.24975 3.072,-1.02278 4.48,-1.71783 4.5714,-2.25663 7.8742,-5.56219 10.0846,-10.093 1.614,-3.30829 2.226,-5.99174 2.226,-9.76 0,-3.76361 -0.611,-6.4473 -2.2221,-9.76 -5.6328,-11.58191 -20.0291,-15.94312 -31.0995,-9.4213 -7.6396,4.50066 -11.9572,13.10106 -10.8807,21.67363 1.6871,13.43485 14.2637,22.18815 27.4117,19.0785 z m -106.2889,-3.9583 c 11.2606,-2.87998 18.375,-13.77672 16.508,-25.28432 -1.4437,-8.89829 -9.0453,-16.52328 -18.021,-18.07644 -3.5367,-0.612 -4.6202,-0.61396 -7.7699,-0.014 -10.4204,1.98478 -17.7216,10.30696 -18.2502,20.80227 -0.2092,4.15288 0.4087,7.11145 2.2749,10.89218 2.9737,6.02436 8.978,10.69983 15.3871,11.98169 2.5115,0.50232 7.3004,0.35613 9.8711,-0.30134 z m -55.54836,-25.21254 c -0.46038,-0.484 -0.91756,-1.24 -1.01596,-1.68 -0.0984,-0.44 -0.69226,-6.344 -1.3197,-13.12 -0.62744,-6.776 -1.2412,-12.40198 -1.36392,-12.50218 -0.12271,-0.1002 -1.30311,-0.59009 -2.62311,-1.08864 -6.29893,-2.37901 -11.54046,-5.6513 -16.0601,-10.02632 -3.57989,-3.46535 -5.80475,-6.52744 -7.79426,-10.72734 -2.10255,-4.43854 -2.82594,-7.77026 -2.82594,-13.01552 0,-5.49107 0.74098,-8.70302 3.13745,-13.6 3.42594,-7.00062 8.63724,-12.42093 16.12749,-16.7743 19.41797,-11.28582 47.42911,-8.3541 62.23411,6.51359 1.6177,1.62455 3.5562,3.70645 4.3078,4.62644 2.4088,2.94853 4.8434,8.86619 6.3214,15.36539 0.7868,3.45979 0.2206,9.81277 -1.186,13.30888 -2.6756,6.64965 -4.2405,9.20768 -8.0984,13.23813 -3.5527,3.71147 -7.2807,6.42344 -12.1636,8.84837 -6.9,3.42674 -13.1645,5.1053 -20.718,5.55137 -2.7757,0.16392 -4.2139,0.37783 -4.3833,0.65197 -0.1387,0.22441 -1.7856,5.399 -3.6598,11.49909 -1.87411,6.10009 -3.63512,11.54213 -3.9133,12.09343 -0.95853,1.89958 -3.57592,2.33781 -5.00286,0.83764 z m 5.83638,-25.35702 c 1.86401,-6.01737 1.93193,-6.08298 6.29718,-6.08298 13.4303,0 24.6733,-4.24604 32.5837,-12.30555 3.1066,-3.16508 4.7737,-5.70895 6.7097,-10.23788 1.216,-2.84476 1.2242,-2.89276 1.257,-7.36 0.036,-4.91794 -0.4038,-7.27838 -2.0313,-10.89797 -1.9203,-4.2708 -6.5334,-10.00436 -9.468,-11.76786 -0.5211,-0.31308 -2.1714,-1.3595 -3.6674,-2.32536 -4.5932,-2.96552 -7.3562,-4.06047 -13.6,-5.3896 -12.7303,-2.70993 -26.32649,-0.40649 -36.38968,6.16508 -3.01282,1.96746 -7.19969,5.91132 -9.09725,8.56921 -5.51811,7.72921 -6.4367,17.05091 -2.49921,25.36153 3.79057,8.00048 11.71557,14.3584 22.19569,17.80672 2.67102,0.87885 3.71786,1.37962 4.09851,1.96057 0.34294,0.52339 0.66171,2.38023 0.96837,5.64067 0.49625,5.27636 0.58611,5.7832 0.98195,5.53856 0.14456,-0.0894 0.8919,-2.19316 1.66074,-4.67514 z"
       id="path53125" />
  </g>
</svg>
