<?xml version="1.0" encoding="UTF-8"?>
<svg xmlns="http://www.w3.org/2000/svg" xmlns:xlink="http://www.w3.org/1999/xlink" width="300px" height="300px" viewBox="0 0 300 300" version="1.1">
<g id="surface1">
<path style=" stroke:none;fill-rule:nonzero;fill:rgb(3.137255%,30.588235%,61.960784%);fill-opacity:1;" d="M 66.328125 233.09375 C 65.804688 232.820312 65.429688 232 65.542969 231.367188 C 65.816406 229.792969 66.925781 224.425781 67.125 223.675781 C 67.253906 223.1875 67.398438 222.429688 67.445312 221.988281 C 67.558594 220.90625 68.03125 218.496094 68.230469 217.976562 C 68.316406 217.742188 68.414062 217.214844 68.449219 216.804688 C 68.484375 216.390625 68.941406 213.847656 69.464844 211.15625 C 69.992188 208.460938 70.394531 206.214844 70.359375 206.15625 C 70.324219 206.101562 69.847656 206.015625 69.300781 205.964844 C 65.03125 205.5625 62.820312 200.554688 65.378906 197.070312 C 65.664062 196.683594 66.242188 196.136719 66.664062 195.851562 C 68.035156 194.945312 68.511719 194.875 73.308594 194.875 C 75.792969 194.875 77.632812 194.816406 77.683594 194.738281 C 77.730469 194.664062 77.464844 194.171875 77.101562 193.648438 C 75.511719 191.371094 74.433594 188.296875 74.289062 185.628906 C 74.15625 183.167969 74.742188 176.917969 75.4375 173.429688 C 75.601562 172.609375 75.761719 171.738281 75.796875 171.492188 C 75.828125 171.246094 75.957031 170.6875 76.078125 170.246094 C 76.203125 169.804688 76.339844 169.246094 76.386719 169.003906 C 76.5625 168.09375 77.464844 165.296875 77.816406 164.597656 C 78.011719 164.203125 78.304688 163.476562 78.460938 162.992188 C 78.792969 161.972656 79.558594 160.410156 80.039062 159.773438 C 80.21875 159.527344 80.550781 158.96875 80.773438 158.523438 C 81.332031 157.425781 82.3125 156.046875 83.203125 155.121094 C 83.609375 154.699219 84.039062 154.167969 84.152344 153.949219 C 84.386719 153.496094 86.472656 151.628906 87.800781 150.679688 C 88.925781 149.878906 90.625 148.972656 91.796875 148.554688 C 92.300781 148.375 92.710938 148.152344 92.710938 148.058594 C 92.710938 147.96875 92.410156 147.5 92.046875 147.015625 C 91.195312 145.898438 90.328125 144.121094 89.898438 142.621094 C 89.617188 141.628906 89.566406 141.105469 89.566406 139.179688 C 89.566406 137.261719 89.617188 136.726562 89.894531 135.765625 C 91.332031 130.769531 95.261719 127.140625 100.257812 126.203125 C 101.839844 125.90625 104.425781 125.976562 105.902344 126.359375 C 107.386719 126.742188 109.660156 127.890625 110.921875 128.894531 C 113.035156 130.582031 114.722656 133.183594 115.449219 135.878906 C 115.90625 137.570312 115.910156 140.808594 115.457031 142.476562 C 114.738281 145.136719 113.007812 147.800781 110.9375 149.445312 C 109.078125 150.925781 106.523438 152.015625 104.25 152.296875 C 103.78125 152.359375 103.410156 152.476562 103.410156 152.570312 C 103.414062 152.660156 103.550781 153.164062 103.71875 153.691406 C 104.132812 154.980469 104.234375 157.304688 103.949219 159.109375 C 103.710938 160.675781 103.773438 160.886719 104.492188 160.863281 C 104.742188 160.855469 105.640625 160.898438 106.488281 160.949219 C 107.441406 161.015625 108.613281 160.988281 109.566406 160.875 C 110.414062 160.777344 111.367188 160.679688 111.691406 160.652344 C 113.039062 160.539062 116.515625 159.457031 118.066406 158.667969 C 119.417969 157.976562 119.417969 157.980469 119.683594 156.371094 C 120.652344 150.601562 123.851562 146.847656 128.886719 145.578125 C 129.628906 145.390625 130.273438 145.191406 130.328125 145.140625 C 130.382812 145.085938 130.09375 144.398438 129.683594 143.613281 C 128.117188 140.597656 127.710938 137.683594 128.417969 134.492188 C 129.445312 129.832031 133.066406 126.007812 137.722656 124.660156 C 139.273438 124.210938 142.21875 124.109375 143.871094 124.445312 C 148.179688 125.3125 152.011719 128.503906 153.550781 132.503906 C 154.203125 134.1875 154.4375 135.496094 154.441406 137.421875 C 154.441406 139.710938 154.050781 141.339844 153.007812 143.394531 C 152.570312 144.253906 152.234375 145.015625 152.257812 145.085938 C 152.28125 145.164062 152.917969 145.375 153.679688 145.570312 C 156.238281 146.214844 158.574219 147.675781 160.066406 149.554688 C 161.027344 150.765625 162.125 153.074219 162.550781 154.769531 C 163.664062 159.214844 163.21875 165.796875 161.375 172.140625 C 159.9375 177.085938 157.425781 181.488281 154.671875 183.882812 C 154.289062 184.21875 153.976562 184.550781 153.976562 184.628906 C 153.976562 184.699219 154.222656 184.761719 154.527344 184.761719 C 155.464844 184.765625 156.976562 185.15625 157.945312 185.644531 C 159.125 186.242188 160.554688 187.609375 161.132812 188.695312 C 161.515625 189.414062 165.800781 203.5 171.621094 223.148438 C 172.035156 224.554688 172.453125 225.730469 172.539062 225.757812 C 172.625 225.785156 172.746094 225.636719 172.796875 225.425781 C 172.851562 225.210938 174.316406 221.765625 176.054688 217.765625 L 179.214844 210.496094 L 178.398438 207.921875 C 177.40625 204.800781 177.285156 204.28125 177.285156 203.15625 C 177.28125 200.152344 178.929688 197.363281 181.65625 195.753906 C 182.246094 195.402344 182.75 195.046875 182.769531 194.960938 C 182.792969 194.871094 182.886719 194.320312 182.976562 193.730469 C 183.203125 192.28125 183.683594 191.402344 185.066406 189.933594 C 187.957031 186.863281 189.902344 183.9375 191.621094 180.054688 C 192.488281 178.105469 193.695312 174.546875 193.691406 173.953125 C 193.691406 173.730469 193.460938 173.019531 193.171875 172.375 C 192.890625 171.730469 192.484375 170.777344 192.273438 170.25 C 192.0625 169.726562 191.773438 169.132812 191.632812 168.933594 C 191.121094 168.183594 189.582031 163.613281 189.097656 161.382812 C 188.496094 158.617188 188.464844 155.269531 189.019531 153.472656 C 189.164062 152.992188 189.238281 152.554688 189.183594 152.5 C 189.125 152.449219 188.453125 152.296875 187.691406 152.160156 C 181.386719 151.035156 176.839844 145.597656 176.839844 139.179688 C 176.839844 135.582031 178.128906 132.449219 180.640625 129.9375 C 182.660156 127.917969 184.664062 126.8125 187.289062 126.269531 C 193.21875 125.046875 199.160156 127.941406 201.828125 133.359375 C 202.855469 135.449219 203.121094 136.644531 203.121094 139.179688 C 203.121094 140.894531 203.058594 141.53125 202.804688 142.476562 C 202.421875 143.910156 201.40625 145.988281 200.515625 147.164062 C 200.152344 147.640625 199.902344 148.082031 199.960938 148.136719 C 200.023438 148.191406 200.53125 148.417969 201.09375 148.640625 C 203.539062 149.601562 205.882812 151.234375 208.0625 153.492188 C 210.089844 155.585938 211.027344 156.914062 212.851562 160.285156 C 214.148438 162.679688 214.632812 163.75 215.238281 165.550781 C 215.65625 166.796875 216.097656 168.246094 216.214844 168.773438 C 216.335938 169.304688 216.496094 170 216.578125 170.324219 C 217.65625 174.710938 218.628906 183.003906 218.40625 185.816406 C 218.199219 188.328125 217.242188 191.074219 215.816406 193.238281 C 215.339844 193.964844 214.945312 194.628906 214.945312 194.710938 C 214.945312 194.804688 216.574219 194.875 219.601562 194.902344 L 224.253906 194.945312 L 225.09375 195.339844 C 228.996094 197.171875 229.554688 202.378906 226.121094 204.914062 C 225.34375 205.484375 223.851562 206.015625 223 206.015625 C 222.691406 206.015625 222.398438 206.078125 222.34375 206.160156 C 222.261719 206.296875 223.222656 211.71875 223.890625 214.878906 C 224.039062 215.605469 224.242188 216.726562 224.335938 217.371094 C 224.484375 218.425781 225.296875 222.503906 226.097656 226.238281 C 226.261719 227.003906 226.460938 228.027344 226.546875 228.511719 C 226.628906 228.996094 226.761719 229.71875 226.839844 230.125 C 227.175781 231.820312 227.160156 232.296875 226.769531 232.722656 C 225.871094 233.6875 224.535156 233.3125 224.199219 232 C 223.960938 231.050781 223.816406 230.328125 221.460938 218.105469 C 220.203125 211.574219 219.125 206.183594 219.066406 206.121094 C 219.007812 206.0625 214.3125 206.027344 208.636719 206.050781 L 198.3125 206.085938 L 198.066406 207.332031 C 197.925781 208.019531 197.453125 210.457031 197.011719 212.757812 L 196.207031 216.933594 L 196.484375 218.175781 C 196.882812 219.957031 197.316406 222.921875 197.515625 225.1875 C 197.648438 226.695312 197.648438 227.339844 197.507812 228.035156 C 197.019531 230.503906 195.222656 232.410156 192.742188 233.074219 C 191.289062 233.464844 189.535156 233.222656 188.085938 232.433594 C 187.15625 231.925781 185.910156 230.574219 185.421875 229.539062 C 185.207031 229.085938 184.972656 228.757812 184.898438 228.804688 C 184.828125 228.847656 184.550781 229.296875 184.285156 229.796875 C 181.8125 234.488281 175.328125 234.355469 173.101562 229.574219 L 172.609375 228.511719 L 172.375 229.097656 C 171.667969 230.878906 170.796875 231.886719 169.316406 232.617188 C 167.980469 233.273438 166.664062 233.425781 165.289062 233.070312 C 163.742188 232.675781 163.121094 232.21875 161.585938 230.324219 L 161.207031 229.859375 L 160.886719 230.378906 C 160.707031 230.667969 160.46875 230.9375 160.347656 230.984375 C 160.230469 231.027344 160.132812 231.152344 160.132812 231.253906 C 160.132812 231.703125 158.433594 232.75 157.1875 233.066406 C 154.453125 233.769531 151.710938 232.453125 150.453125 229.832031 C 149.859375 228.601562 148.707031 225.59375 148.453125 224.625 C 148.339844 224.183594 148.117188 223.601562 147.960938 223.339844 C 147.652344 222.8125 146.296875 219.253906 146.136719 218.542969 C 146.085938 218.300781 145.847656 217.707031 145.617188 217.226562 C 145.382812 216.738281 144.429688 214.335938 143.496094 211.875 C 142.566406 209.414062 141.683594 207.109375 141.539062 206.746094 L 141.273438 206.085938 L 136.066406 206.046875 C 132.003906 206.019531 130.824219 206.050781 130.722656 206.191406 C 130.644531 206.296875 130.332031 207.695312 130.019531 209.3125 C 129.714844 210.921875 129.3125 212.835938 129.132812 213.558594 C 128.945312 214.285156 128.6875 215.570312 128.550781 216.417969 C 128.128906 219.117188 127.578125 222.042969 127.367188 222.71875 C 127.253906 223.085938 127.175781 223.476562 127.195312 223.597656 C 127.222656 223.828125 126.472656 227.929688 125.957031 230.339844 C 125.796875 231.109375 125.636719 231.882812 125.601562 232.054688 C 125.570312 232.234375 125.378906 232.5625 125.1875 232.792969 C 124.480469 233.609375 122.921875 233.191406 122.691406 232.121094 C 122.605469 231.757812 123.746094 225.496094 124.0625 224.554688 C 124.304688 223.835938 125.539062 217.238281 125.539062 216.671875 C 125.539062 216.386719 125.671875 215.730469 125.832031 215.222656 C 125.996094 214.710938 126.125 214.109375 126.125 213.886719 C 126.125 213.667969 126.421875 211.984375 126.789062 210.152344 C 127.148438 208.320312 127.445312 206.648438 127.445312 206.4375 C 127.449219 206.070312 127.402344 206.050781 126.472656 205.964844 C 124.527344 205.78125 122.785156 204.582031 121.921875 202.820312 C 121.351562 201.660156 121.265625 199.742188 121.726562 198.515625 C 122.148438 197.390625 122.890625 196.460938 123.941406 195.746094 C 124.421875 195.421875 124.785156 195.105469 124.75 195.050781 C 124.714844 194.992188 124.398438 194.515625 124.042969 193.988281 C 123.0625 192.527344 122.683594 191.195312 122.691406 189.234375 C 122.691406 187.730469 122.734375 187.492188 123.300781 185.847656 C 123.632812 184.871094 124.207031 183.46875 124.574219 182.734375 C 124.949219 181.996094 125.246094 181.28125 125.246094 181.132812 C 125.246094 180.992188 125.027344 180.542969 124.753906 180.140625 C 123.046875 177.605469 121.609375 174.007812 120.410156 169.253906 C 120.320312 168.902344 120.203125 168.640625 120.144531 168.664062 C 120.089844 168.691406 119.550781 168.898438 118.945312 169.132812 C 118.339844 169.359375 117.578125 169.675781 117.246094 169.824219 C 116.914062 169.980469 116.554688 170.105469 116.449219 170.105469 C 116.339844 170.105469 116.050781 170.167969 115.804688 170.242188 C 114.835938 170.546875 112.246094 171.128906 111.878906 171.128906 C 111.664062 171.128906 111.3125 171.199219 111.097656 171.28125 C 110.511719 171.5 105.15625 171.617188 103.703125 171.433594 C 102.089844 171.234375 100.882812 171.035156 100.488281 170.914062 C 100.214844 170.824219 100.125 170.9375 99.726562 171.804688 C 97.816406 176.019531 96.960938 180.136719 96.960938 185.125 L 96.960938 187.40625 L 97.652344 187.84375 C 98.035156 188.085938 101.324219 190.035156 104.964844 192.183594 C 108.609375 194.332031 111.953125 196.378906 112.402344 196.730469 C 113.441406 197.558594 114.539062 199.195312 114.992188 200.597656 C 115.464844 202.042969 115.472656 204.15625 115.007812 205.574219 C 114.839844 206.097656 114.699219 206.691406 114.699219 206.890625 C 114.699219 207.089844 116.484375 211.367188 118.667969 216.390625 C 122.511719 225.230469 122.644531 225.566406 122.71875 226.671875 C 123.058594 231.640625 117.6875 234.917969 113.394531 232.351562 C 112.234375 231.660156 111.550781 230.769531 110.132812 228.117188 C 109.433594 226.808594 108.796875 225.714844 108.714844 225.6875 C 108.632812 225.660156 108.261719 226.558594 107.886719 227.683594 C 107.511719 228.808594 107.007812 230.027344 106.765625 230.390625 C 104.765625 233.410156 100.566406 234.167969 97.664062 232.027344 C 96.75 231.359375 95.890625 230.25 95.46875 229.207031 C 95.167969 228.457031 95.132812 228.140625 95.148438 226.386719 C 95.164062 224.203125 95.4375 221.914062 96.03125 218.914062 C 96.484375 216.636719 96.554688 217.363281 95.25 210.628906 C 94.796875 208.289062 94.363281 206.296875 94.285156 206.195312 C 94.171875 206.054688 91.917969 206.015625 83.894531 206.015625 L 73.648438 206.015625 L 73.527344 206.34375 C 73.460938 206.523438 72.671875 210.496094 71.773438 215.175781 C 70.878906 219.847656 70.082031 223.902344 70.003906 224.183594 C 69.933594 224.46875 69.554688 226.414062 69.164062 228.511719 C 68.550781 231.816406 68.410156 232.375 68.089844 232.726562 C 67.65625 233.207031 66.863281 233.371094 66.328125 233.09375 Z M 157.273438 229.75 C 158.539062 229.035156 158.910156 227.828125 158.390625 226.113281 C 158.21875 225.554688 158.078125 224.949219 158.078125 224.773438 C 158.078125 224.601562 157.914062 224.046875 157.714844 223.546875 C 157.261719 222.410156 156.332031 219.351562 156.171875 218.472656 C 156.105469 218.109375 155.945312 217.515625 155.808594 217.152344 C 155.671875 216.789062 153.828125 210.714844 151.707031 203.65625 C 149.589844 196.601562 147.71875 190.566406 147.554688 190.246094 C 147.160156 189.472656 146.308594 188.648438 145.488281 188.246094 C 144.863281 187.9375 144.554688 187.90625 141.050781 187.816406 C 138.324219 187.746094 136.96875 187.648438 136.140625 187.46875 C 132.277344 186.613281 130.609375 185.957031 128.765625 184.5625 C 128.164062 184.109375 127.613281 183.734375 127.546875 183.734375 C 127.363281 183.734375 126.5 185.710938 126.050781 187.144531 C 125.3125 189.527344 125.703125 191.539062 127.199219 193.089844 C 127.539062 193.4375 128.097656 193.894531 128.453125 194.101562 C 129.597656 194.78125 130.375 194.871094 135.246094 194.871094 C 139.699219 194.875 139.746094 194.878906 140.117188 195.203125 C 140.394531 195.445312 141.015625 196.902344 142.480469 200.738281 C 145.757812 209.332031 148.328125 216.132812 148.726562 217.296875 C 149.277344 218.894531 150.832031 222.914062 151.027344 223.246094 C 151.121094 223.398438 151.644531 224.6875 152.1875 226.109375 C 153.292969 229.011719 153.8125 229.777344 154.902344 230.121094 C 155.6875 230.367188 156.359375 230.261719 157.273438 229.75 Z M 102.960938 229.855469 C 104.257812 229.191406 104.152344 229.457031 108.367188 216.460938 L 112.253906 204.472656 L 112.265625 203.082031 C 112.273438 201.851562 112.226562 201.59375 111.882812 200.882812 C 111.152344 199.402344 110.582031 198.996094 102.53125 194.25 C 98.378906 191.800781 94.84375 189.710938 94.675781 189.605469 C 94.179688 189.285156 94.007812 188.886719 93.953125 187.898438 C 93.925781 187.382812 93.859375 186.894531 93.8125 186.8125 C 93.6875 186.617188 77.667969 186.609375 77.542969 186.808594 C 77.378906 187.078125 77.925781 188.800781 78.667969 190.328125 C 79.300781 191.644531 79.585938 192.042969 80.601562 193.054688 C 81.90625 194.355469 83.226562 195.121094 84.902344 195.539062 C 86.488281 195.9375 102.351562 202.558594 102.851562 203.03125 C 103.535156 203.679688 103.851562 204.421875 103.851562 205.386719 C 103.851562 206.140625 103.738281 206.457031 102.832031 208.289062 C 100.8125 212.359375 99.488281 216.433594 98.730469 220.886719 C 98.113281 224.515625 97.960938 227.300781 98.332031 228.1875 C 99.070312 229.949219 101.246094 230.734375 102.960938 229.855469 Z M 118.378906 229.675781 C 118.71875 229.4375 119.15625 228.949219 119.347656 228.582031 C 119.644531 228.035156 119.691406 227.769531 119.640625 226.972656 C 119.589844 226.113281 119.277344 225.3125 116.496094 218.9375 C 114.792969 215.042969 113.363281 211.8125 113.316406 211.765625 C 113.265625 211.714844 113.167969 211.738281 113.097656 211.8125 C 112.898438 212.019531 110.152344 220.617188 110.152344 221.03125 C 110.152344 221.449219 113.433594 228.074219 114.078125 228.960938 C 114.730469 229.851562 115.5625 230.222656 116.777344 230.164062 C 117.585938 230.125 117.875 230.035156 118.378906 229.675781 Z M 168.367188 229.695312 C 168.816406 229.351562 169.132812 228.949219 169.355469 228.421875 C 169.648438 227.742188 169.671875 227.570312 169.527344 226.90625 C 169.191406 225.355469 169.042969 224.808594 168.613281 223.527344 C 167.976562 221.625 167.453125 219.816406 167.3125 219.058594 C 167.25 218.695312 167.054688 218 166.882812 217.519531 C 166.707031 217.03125 164.855469 210.933594 162.761719 203.960938 C 160.671875 196.988281 158.855469 191.007812 158.730469 190.671875 C 158.417969 189.824219 157.453125 188.777344 156.558594 188.308594 C 155.824219 187.921875 155.738281 187.910156 152.839844 187.863281 C 150.847656 187.832031 149.871094 187.867188 149.871094 187.972656 C 149.871094 188.054688 150.0625 188.503906 150.296875 188.972656 C 150.527344 189.4375 151.882812 193.714844 153.300781 198.476562 C 155.78125 206.804688 156.320312 208.382812 159.238281 215.902344 C 159.484375 216.546875 159.691406 217.175781 159.691406 217.300781 C 159.691406 217.425781 159.824219 217.789062 159.992188 218.113281 C 160.402344 218.90625 161.65625 222.160156 161.957031 223.234375 C 162.097656 223.71875 162.367188 224.410156 162.558594 224.769531 C 162.902344 225.429688 163.945312 228.109375 163.941406 228.335938 C 163.941406 228.40625 164.207031 228.773438 164.535156 229.164062 C 165.199219 229.949219 165.683594 230.160156 166.886719 230.179688 C 167.609375 230.195312 167.789062 230.132812 168.367188 229.695312 Z M 179.976562 229.992188 C 180.242188 229.878906 180.6875 229.5625 180.957031 229.285156 C 181.527344 228.707031 183.582031 224.835938 183.582031 224.339844 C 183.582031 224.027344 180.863281 215.40625 180.714844 215.265625 C 180.675781 215.226562 180.574219 215.261719 180.492188 215.34375 C 180.238281 215.601562 175.808594 225.835938 175.65625 226.53125 C 175.378906 227.796875 176.113281 229.289062 177.308594 229.882812 C 178.046875 230.25 179.242188 230.296875 179.976562 229.992188 Z M 192.332031 230.042969 C 193.152344 229.730469 193.832031 229.132812 194.203125 228.390625 C 194.648438 227.496094 194.675781 226.625 194.351562 223.820312 C 193.710938 218.234375 192.316406 213.386719 189.988281 208.652344 C 188.90625 206.457031 188.796875 206.148438 188.792969 205.351562 C 188.785156 204.648438 188.863281 204.335938 189.195312 203.78125 C 189.679688 202.957031 190.242188 202.597656 192.617188 201.625 C 193.574219 201.238281 197.171875 199.757812 200.617188 198.339844 C 204.054688 196.925781 207.289062 195.65625 207.796875 195.527344 C 211.003906 194.710938 213.554688 192.199219 214.707031 188.71875 C 214.910156 188.113281 215.09375 187.421875 215.121094 187.179688 L 215.167969 186.738281 L 208.835938 186.699219 L 202.507812 186.664062 L 201.550781 188.253906 C 199.527344 191.613281 197.539062 194.089844 194.441406 197.109375 C 191.601562 199.882812 190.976562 200.222656 188.714844 200.222656 C 187.347656 200.222656 187.078125 200.179688 186.328125 199.828125 C 185.863281 199.613281 185.128906 199.09375 184.691406 198.679688 L 183.894531 197.929688 L 183.1875 198.339844 C 182.175781 198.933594 181.273438 199.890625 180.824219 200.855469 C 180.484375 201.578125 180.429688 201.878906 180.429688 203.082031 L 180.429688 204.472656 L 184.21875 216.199219 C 186.308594 222.648438 188.128906 228.15625 188.273438 228.4375 C 188.609375 229.089844 189.230469 229.679688 189.882812 229.960938 C 190.484375 230.222656 191.738281 230.261719 192.332031 230.042969 Z M 98.726562 209.933594 C 98.832031 209.671875 99.335938 208.578125 99.855469 207.503906 C 100.375 206.429688 100.769531 205.519531 100.734375 205.484375 C 100.699219 205.453125 100.382812 205.523438 100.027344 205.652344 C 99.671875 205.777344 98.964844 205.921875 98.460938 205.96875 C 97.367188 206.070312 97.394531 205.945312 97.914062 208.503906 C 98.117188 209.492188 98.28125 210.328125 98.28125 210.355469 C 98.28125 210.386719 98.335938 210.410156 98.410156 210.410156 C 98.480469 210.410156 98.625 210.195312 98.726562 209.933594 Z M 194.804688 208.28125 C 195.007812 207.246094 195.136719 206.3125 195.097656 206.207031 C 195.054688 206.09375 194.789062 206.015625 194.445312 206.015625 C 194.128906 206.015625 193.453125 205.882812 192.945312 205.726562 C 192.4375 205.566406 191.992188 205.46875 191.957031 205.507812 C 191.914062 205.542969 192.289062 206.414062 192.78125 207.441406 C 193.269531 208.46875 193.777344 209.570312 193.90625 209.886719 C 194.0625 210.269531 194.1875 210.414062 194.289062 210.316406 C 194.367188 210.234375 194.597656 209.320312 194.804688 208.28125 Z M 94.664062 202.78125 C 94.382812 202.496094 85.347656 198.835938 83.644531 198.316406 L 81.96875 197.804688 L 75.871094 197.808594 C 71.875 197.808594 69.574219 197.863281 69.191406 197.96875 C 68.421875 198.183594 67.574219 199.042969 67.363281 199.824219 C 67.066406 200.9375 67.695312 202.273438 68.742188 202.730469 C 69.324219 202.984375 94.917969 203.035156 94.664062 202.78125 Z M 139.902344 202.714844 C 139.902344 202.292969 138.277344 198.171875 138.039062 197.988281 C 137.710938 197.738281 127.304688 197.726562 126.324219 197.972656 C 124.519531 198.425781 123.792969 200.636719 124.996094 202.007812 C 125.816406 202.9375 125.667969 202.921875 133.125 202.929688 C 139.089844 202.933594 139.902344 202.910156 139.902344 202.714844 Z M 223.980469 202.695312 C 224.261719 202.5625 224.667969 202.21875 224.886719 201.9375 C 225.222656 201.492188 225.277344 201.277344 225.277344 200.429688 C 225.277344 199.65625 225.210938 199.347656 224.972656 199.027344 C 224.492188 198.378906 223.792969 197.980469 222.964844 197.878906 C 222.546875 197.828125 219.53125 197.8125 216.265625 197.832031 L 210.332031 197.878906 L 209.011719 198.285156 C 207.402344 198.78125 197.941406 202.660156 197.941406 202.820312 C 197.941406 202.882812 203.6875 202.933594 210.707031 202.933594 C 222.242188 202.933594 223.523438 202.914062 223.980469 202.695312 Z M 190.082031 196.976562 C 190.871094 196.578125 195.15625 192.136719 196.527344 190.304688 C 201.042969 184.257812 203.582031 177.792969 204.328125 170.429688 C 204.449219 169.242188 204.558594 166.898438 204.574219 165.21875 L 204.597656 162.164062 L 205.019531 161.8125 C 205.644531 161.285156 206.351562 161.332031 206.949219 161.933594 L 207.425781 162.410156 L 207.523438 165.023438 C 207.574219 166.460938 207.59375 167.683594 207.558594 167.734375 C 207.527344 167.789062 207.460938 168.523438 207.414062 169.371094 C 207.195312 173.515625 206.230469 177.925781 204.675781 181.914062 C 204.359375 182.722656 204.097656 183.429688 204.097656 183.488281 C 204.097656 183.542969 206.625 183.574219 209.707031 183.550781 L 215.3125 183.515625 L 215.273438 182.488281 C 215.101562 177.855469 213.652344 169.75 212.449219 166.652344 C 212.355469 166.417969 212.191406 165.890625 212.085938 165.488281 C 211.976562 165.085938 211.347656 163.734375 210.6875 162.484375 C 210.027344 161.234375 209.382812 160.015625 209.261719 159.773438 C 208.449219 158.199219 205.542969 154.980469 203.617188 153.527344 C 201.582031 151.984375 198.652344 150.769531 196.949219 150.761719 C 196.6875 150.757812 196.226562 150.863281 195.925781 151 C 195.625 151.132812 194.886719 151.417969 194.28125 151.640625 C 193.382812 151.960938 193.09375 152.152344 192.707031 152.652344 C 192.105469 153.433594 191.667969 154.867188 191.519531 156.542969 C 191.40625 157.878906 191.421875 158.109375 191.855469 160.265625 C 192.429688 163.148438 194.5 168.640625 194.863281 168.253906 C 195.066406 168.042969 195.523438 164.84375 195.554688 163.4375 C 195.699219 156.398438 195.6875 156.582031 196.042969 156.296875 C 196.71875 155.75 197.5625 155.78125 198.15625 156.382812 C 198.476562 156.699219 198.5 156.863281 198.597656 159.5625 C 198.667969 161.535156 198.652344 162.632812 198.53125 163.144531 C 198.441406 163.542969 198.339844 164.46875 198.3125 165.195312 C 198.136719 169.378906 196.820312 175.164062 194.980469 179.839844 C 193.179688 184.425781 190.65625 188.425781 187.433594 191.808594 C 186.847656 192.421875 186.269531 193.164062 186.148438 193.457031 C 185.148438 195.84375 187.742188 198.164062 190.082031 196.976562 Z M 146.207031 184.398438 C 149.332031 183.828125 151.132812 183.015625 152.839844 181.410156 C 156.492188 177.980469 159.023438 171.757812 159.929688 164 C 160.269531 161.09375 160.148438 157.5 159.648438 155.585938 C 158.402344 150.816406 155.167969 148.261719 150.160156 148.097656 C 149.097656 148.058594 149.039062 148.074219 148.097656 148.679688 C 146.351562 149.796875 143.488281 150.609375 141.296875 150.609375 C 140.238281 150.609375 138.175781 150.273438 137.164062 149.9375 C 136.511719 149.726562 135.691406 149.335938 133.824219 148.367188 C 133.117188 148.003906 133.035156 147.996094 131.796875 148.128906 C 127.085938 148.628906 124.382812 150.773438 123.066406 155.058594 C 122.605469 156.554688 122.632812 156.710938 123.378906 156.824219 C 124.523438 157.003906 125.367188 157.363281 126.054688 157.972656 C 128.175781 159.839844 128.429688 162.726562 126.660156 164.890625 C 126.367188 165.25 125.570312 165.84375 124.683594 166.367188 C 123.515625 167.054688 123.195312 167.316406 123.195312 167.570312 C 123.195312 168.128906 124.183594 171.765625 124.742188 173.277344 C 126.195312 177.179688 127.90625 179.878906 130.140625 181.789062 C 131.132812 182.636719 132.640625 183.507812 132.867188 183.371094 C 132.949219 183.320312 133.019531 183.035156 133.019531 182.738281 C 133.019531 181.957031 133.242188 181.257812 133.746094 180.464844 C 133.992188 180.078125 134.191406 179.71875 134.191406 179.65625 C 134.191406 179.597656 133.867188 179.308594 133.472656 179.011719 C 131.527344 177.558594 130.058594 174.59375 129.359375 170.703125 C 128.84375 167.851562 128.160156 158.339844 128.398438 157.378906 C 128.738281 156.003906 130.65625 155.820312 131.179688 157.105469 C 131.292969 157.386719 131.402344 158.617188 131.460938 160.210938 C 131.929688 173.074219 133.417969 176.851562 138.527344 178.117188 C 139.894531 178.453125 142.699219 178.453125 144.074219 178.113281 C 149.15625 176.859375 150.632812 173.082031 151.128906 160.066406 C 151.195312 158.285156 151.296875 157.296875 151.433594 157.023438 C 151.640625 156.617188 152.308594 156.179688 152.730469 156.179688 C 153.164062 156.179688 153.824219 156.625 154.054688 157.070312 C 154.253906 157.464844 154.265625 157.898438 154.121094 160.839844 C 153.9375 164.707031 153.609375 168.472656 153.300781 170.246094 C 152.164062 176.847656 149.566406 180.011719 144.375 181.121094 C 143.425781 181.328125 142.195312 181.429688 139.976562 181.496094 C 136.570312 181.585938 136.34375 181.648438 136.109375 182.503906 C 135.835938 183.488281 136.335938 184.382812 137.296875 184.625 C 138.167969 184.84375 144.664062 184.679688 146.207031 184.398438 Z M 93.941406 183.355469 C 93.988281 183.230469 94.027344 182.769531 94.027344 182.335938 C 94.027344 179.992188 94.996094 175.632812 96.21875 172.449219 C 96.632812 171.363281 97.011719 170.363281 97.054688 170.234375 C 97.140625 169.96875 96.476562 169.519531 95.558594 169.230469 C 93.367188 168.535156 88.265625 165.050781 87.851562 163.960938 C 87.679688 163.507812 87.941406 162.703125 88.359375 162.410156 C 88.53125 162.289062 88.957031 162.191406 89.308594 162.191406 C 89.851562 162.191406 90.082031 162.300781 90.925781 162.964844 C 93.964844 165.367188 98.242188 167.390625 101.824219 168.113281 C 105.90625 168.941406 110.71875 168.640625 115.21875 167.269531 C 118.964844 166.132812 123.964844 163.644531 124.570312 162.621094 C 125.265625 161.445312 124.308594 159.847656 122.90625 159.847656 C 122.660156 159.847656 122.011719 160.070312 121.464844 160.347656 C 119.945312 161.109375 116.960938 162.335938 116.621094 162.335938 C 116.457031 162.335938 115.871094 162.507812 115.324219 162.714844 C 114.78125 162.925781 113.902344 163.15625 113.375 163.226562 C 112.855469 163.296875 112.128906 163.453125 111.765625 163.566406 C 111.394531 163.679688 110.105469 163.816406 108.835938 163.871094 C 106.105469 163.988281 102.21875 163.582031 101.226562 163.078125 C 100.914062 162.914062 100.175781 162.652344 99.582031 162.488281 C 98.398438 162.160156 95.984375 160.875 95.238281 160.175781 C 94.976562 159.929688 94.414062 159.492188 93.992188 159.210938 C 93.226562 158.703125 91.847656 157.34375 91.355469 156.628906 C 90.542969 155.433594 91.902344 153.753906 93.148438 154.417969 C 93.300781 154.5 94.09375 155.230469 94.914062 156.039062 C 95.734375 156.847656 96.792969 157.773438 97.269531 158.097656 C 98.175781 158.714844 100.410156 159.847656 100.71875 159.847656 C 101.015625 159.847656 101.09375 159.316406 101.097656 157.300781 C 101.097656 155.742188 101.042969 155.191406 100.792969 154.414062 C 100.382812 153.140625 99.71875 152.15625 99.121094 151.9375 C 98.859375 151.84375 98.152344 151.5625 97.546875 151.316406 C 96.160156 150.742188 95.695312 150.679688 94.570312 150.898438 C 91.976562 151.40625 89.507812 152.882812 86.992188 155.425781 C 86.0625 156.367188 84.980469 157.597656 84.582031 158.160156 C 84.1875 158.726562 83.726562 159.328125 83.558594 159.503906 C 83.253906 159.824219 83.144531 160.023438 81.914062 162.523438 C 81.523438 163.3125 81.109375 164.136719 80.996094 164.355469 C 80.878906 164.574219 80.671875 165.152344 80.53125 165.632812 C 80.195312 166.785156 79.417969 169.488281 79.078125 170.691406 C 78.410156 173.019531 77.632812 178.230469 77.386719 182.011719 L 77.28125 183.585938 L 85.566406 183.585938 C 92.984375 183.585938 93.859375 183.5625 93.941406 183.355469 Z M 105.097656 149.058594 C 107.0625 148.585938 109.292969 147.183594 110.515625 145.65625 C 111.433594 144.511719 112.277344 142.78125 112.578125 141.4375 C 112.910156 139.941406 112.808594 137.292969 112.371094 136.0625 C 111.144531 132.609375 108.484375 130.152344 105.023438 129.269531 C 103.882812 128.980469 101.773438 128.949219 100.550781 129.207031 C 98.625 129.613281 96.519531 130.804688 95.210938 132.234375 C 91.503906 136.292969 91.585938 142.394531 95.402344 146.28125 C 97.933594 148.859375 101.570312 149.902344 105.097656 149.058594 Z M 192.449219 149.058594 C 192.929688 148.945312 193.855469 148.59375 194.5 148.269531 C 196.59375 147.238281 198.109375 145.722656 199.117188 143.652344 C 199.859375 142.132812 200.140625 140.902344 200.140625 139.179688 C 200.140625 137.457031 199.859375 136.226562 199.121094 134.707031 C 196.542969 129.402344 189.949219 127.40625 184.878906 130.390625 C 181.378906 132.453125 179.402344 136.394531 179.894531 140.320312 C 180.664062 146.472656 186.429688 150.480469 192.449219 149.058594 Z M 143.765625 147.246094 C 148.925781 145.925781 152.183594 140.9375 151.328125 135.664062 C 150.664062 131.589844 147.183594 128.097656 143.074219 127.386719 C 141.453125 127.105469 140.957031 127.105469 139.515625 127.378906 C 134.742188 128.289062 131.394531 132.101562 131.15625 136.90625 C 131.0625 138.808594 131.34375 140.164062 132.195312 141.898438 C 133.5625 144.65625 136.308594 146.796875 139.246094 147.382812 C 140.394531 147.613281 142.589844 147.546875 143.765625 147.246094 Z M 118.324219 135.699219 C 118.113281 135.476562 117.90625 135.128906 117.859375 134.929688 C 117.8125 134.726562 117.542969 132.023438 117.253906 128.921875 C 116.964844 125.816406 116.6875 123.238281 116.628906 123.191406 C 116.574219 123.148438 116.035156 122.921875 115.429688 122.691406 C 112.542969 121.601562 110.140625 120.105469 108.074219 118.101562 C 106.433594 116.515625 105.414062 115.113281 104.503906 113.191406 C 103.539062 111.15625 103.207031 109.632812 103.207031 107.226562 C 103.207031 104.710938 103.546875 103.242188 104.648438 101 C 106.214844 97.792969 108.601562 95.3125 112.03125 93.316406 C 120.925781 88.148438 133.753906 89.492188 140.535156 96.300781 C 141.277344 97.042969 142.164062 97.996094 142.507812 98.417969 C 143.613281 99.769531 144.726562 102.476562 145.40625 105.453125 C 145.765625 107.039062 145.503906 109.949219 144.863281 111.554688 C 143.636719 114.597656 142.917969 115.769531 141.152344 117.617188 C 139.523438 119.3125 137.816406 120.558594 135.582031 121.667969 C 132.421875 123.234375 129.554688 124.003906 126.089844 124.210938 C 124.824219 124.285156 124.160156 124.382812 124.082031 124.507812 C 124.023438 124.613281 123.269531 126.980469 122.40625 129.773438 C 121.550781 132.566406 120.742188 135.0625 120.617188 135.316406 C 120.179688 136.183594 118.976562 136.382812 118.324219 135.699219 Z M 120.996094 124.082031 C 121.851562 121.328125 121.882812 121.300781 123.882812 121.300781 C 130.03125 121.300781 135.183594 119.351562 138.804688 115.660156 C 140.226562 114.210938 140.992188 113.046875 141.878906 110.972656 C 142.4375 109.671875 142.441406 109.648438 142.453125 107.601562 C 142.472656 105.351562 142.269531 104.269531 141.523438 102.609375 C 140.644531 100.65625 138.53125 98.03125 137.1875 97.21875 C 136.949219 97.078125 136.195312 96.597656 135.507812 96.15625 C 133.40625 94.796875 132.140625 94.296875 129.277344 93.6875 C 123.445312 92.445312 117.21875 93.5 112.609375 96.511719 C 111.230469 97.410156 109.3125 99.21875 108.445312 100.433594 C 105.917969 103.976562 105.496094 108.246094 107.300781 112.054688 C 109.039062 115.714844 112.667969 118.628906 117.464844 120.207031 C 118.691406 120.609375 119.171875 120.839844 119.34375 121.105469 C 119.503906 121.347656 119.644531 122.195312 119.789062 123.691406 C 120.011719 126.105469 120.054688 126.335938 120.238281 126.226562 C 120.304688 126.183594 120.644531 125.222656 120.996094 124.082031 Z M 120.996094 124.082031 "/>
</g>
</svg>
