<?xml version="1.0" encoding="UTF-8" standalone="no"?>
<svg
   xmlns:dc="http://purl.org/dc/elements/1.1/"
   xmlns:cc="http://creativecommons.org/ns#"
   xmlns:rdf="http://www.w3.org/1999/02/22-rdf-syntax-ns#"
   xmlns:svg="http://www.w3.org/2000/svg"
   xmlns="http://www.w3.org/2000/svg"
   xmlns:sodipodi="http://sodipodi.sourceforge.net/DTD/sodipodi-0.dtd"
   xmlns:inkscape="http://www.inkscape.org/namespaces/inkscape"
   viewBox="0 0 24 24"
   width="24"
   height="24"
   version="1.1"
   id="svg88"
   sodipodi:docname="facebook.svg"
   inkscape:version="0.92.5 (2060ec1f9f, 2020-04-08)">
  <metadata
     id="metadata94">
    <rdf:RDF>
      <cc:Work
         rdf:about="">
        <dc:format>image/svg+xml</dc:format>
        <dc:type
           rdf:resource="http://purl.org/dc/dcmitype/StillImage" />
      </cc:Work>
    </rdf:RDF>
  </metadata>
  <defs
     id="defs92" />
  <sodipodi:namedview
     pagecolor="#ffffff"
     bordercolor="#666666"
     borderopacity="1"
     objecttolerance="10"
     gridtolerance="10"
     guidetolerance="10"
     inkscape:pageopacity="0"
     inkscape:pageshadow="2"
     inkscape:window-width="1920"
     inkscape:window-height="1043"
     id="namedview90"
     showgrid="false"
     inkscape:zoom="19.666667"
     inkscape:cx="-0.50312937"
     inkscape:cy="12.29745"
     inkscape:window-x="3840"
     inkscape:window-y="0"
     inkscape:window-maximized="1"
     inkscape:current-layer="svg88" />
  <path
     fill="none"
     d="M0 0h24v24H0z"
     id="path84" />
  <path
     d="M15.402 21v-6.966h2.333l.349-2.708h-2.682V9.598c0-.784.218-1.319 1.342-1.319h1.434V5.857a19.19 19.19 0 0 0-2.09-.107c-2.067 0-3.482 1.262-3.482 3.58v1.996h-2.338v2.708h2.338V21H4a1 1 0 0 1-1-1V4a1 1 0 0 1 1-1h16a1 1 0 0 1 1 1v16a1 1 0 0 1-1 1h-4.598z"
     id="path86" />
  <path
     style="fill:#1a96d0;stroke-width:0.05084746;fill-opacity:1"
     d="M 3.5942303,20.885928 C 3.3817569,20.793347 3.1269137,20.488677 3.0628062,20.2506 3.0260252,20.114006 3.0133884,17.49337 3.022531,11.898238 L 3.0358537,3.7449226 3.1624258,3.523835 C 3.2403976,3.3876391 3.3770661,3.2509706 3.518358,3.1679027 L 3.7477181,3.0330582 H 12.01043 c 8.171289,0 8.264621,0.00113 8.435287,0.1016949 0.09492,0.055932 0.243645,0.1896217 0.330509,0.2970877 l 0.157933,0.1953928 0.01316,8.3104964 c 0.01203,7.596029 0.006,8.324562 -0.06969,8.474099 -0.11749,0.231992 -0.221209,0.338432 -0.437209,0.448674 -0.17729,0.09048 -0.334248,0.09628 -2.605932,0.09628 H 15.41721 V 17.49916 14.041533 h 1.165022 1.165022 l 0.0308,-0.190678 c 0.01694,-0.104873 0.08748,-0.636865 0.156757,-1.182204 0.06927,-0.545339 0.139518,-1.07733 0.1561,-1.182203 l 0.03015,-0.190678 H 16.769137 15.41721 v -0.963599 c 0,-1.0774092 0.04911,-1.4067894 0.244377,-1.638845 0.264857,-0.3147641 0.481432,-0.3682597 1.573419,-0.3886434 L 18.21382,8.2864116 V 7.0741784 c 0,-1.1434497 -0.0054,-1.2139615 -0.09596,-1.2426915 -0.184623,-0.058597 -2.027857,-0.1087368 -2.493984,-0.067842 -1.481699,0.1299949 -2.527817,1.0006955 -2.911793,2.4235326 -0.08953,0.3317588 -0.108365,0.5861715 -0.129441,1.7484229 l -0.02467,1.3601696 h -1.163601 -1.163602 v 1.372881 1.372882 h 1.169491 1.169492 v 3.457627 3.457627 l -4.411017,-0.002 c -3.5304447,-0.0016 -4.4416577,-0.01534 -4.5645047,-0.06887 z"
     id="path96"
     inkscape:connector-curvature="0" />
</svg>
