<?xml version="1.0" encoding="UTF-8" standalone="no"?>
<!-- Created with Inkscape (http://www.inkscape.org/) -->

<svg
   version="1.1"
   id="svg2906"
   width="292"
   height="131"
   viewBox="0 0 292 131"
   sodipodi:docname="EventMaster.svg"
   inkscape:version="1.2 (dc2aedaf03, 2022-05-15)"
   inkscape:export-filename="EventMaster.png"
   inkscape:export-xdpi="96"
   inkscape:export-ydpi="96"
   xmlns:inkscape="http://www.inkscape.org/namespaces/inkscape"
   xmlns:sodipodi="http://sodipodi.sourceforge.net/DTD/sodipodi-0.dtd"
   xmlns="http://www.w3.org/2000/svg"
   xmlns:svg="http://www.w3.org/2000/svg">
  <defs
     id="defs2910" />
  <sodipodi:namedview
     id="namedview2908"
     pagecolor="#ffffff"
     bordercolor="#000000"
     borderopacity="0.25"
     inkscape:showpageshadow="2"
     inkscape:pageopacity="0.0"
     inkscape:pagecheckerboard="0"
     inkscape:deskcolor="#d1d1d1"
     showgrid="false"
     inkscape:zoom="2.9301343"
     inkscape:cx="103.06695"
     inkscape:cy="107.84489"
     inkscape:window-width="1920"
     inkscape:window-height="1009"
     inkscape:window-x="1672"
     inkscape:window-y="-8"
     inkscape:window-maximized="1"
     inkscape:current-layer="g2912" />
  <g
     inkscape:groupmode="layer"
     inkscape:label="Image"
     id="g2912">
    <g
       id="g3136"
       transform="translate(1.4094721,1.2712626)">
      <path
         style="fill:#5cb0d6"
         d="M 10.556704,109.77749 9,107.55499 V 66.451808 25.348628 L 11.314451,23.174314 13.628902,21 h 3.630983 3.630983 l 1.318041,-2.75 1.31804,-2.75 H 27 30.473051 l 1.31804,2.75 1.318041,2.75 H 53.028886 72.94864 l 1.581954,-3.059161 1.581953,-3.059162 3.186772,0.309162 L 82.48609,15.5 83.797611,18.25 85.109132,21 H 89.054566 93 l 2,2 2,2 V 66.845012 108.69002 L 95.171259,110.34501 93.342519,112 H 52.727963 12.113408 Z M 92.8,107.8 94,106.6 v -6.633333 c 0,-3.648334 -0.30256,-6.935893 -0.672354,-7.305688 L 92.655291,91.988624 84.942482,99.494312 77.229674,107 H 45.55582 13.881966 l 0.618034,1 0.618034,1 H 53.359017 91.6 Z M 74.393011,101.41821 C 74.726855,100.54823 75,97.448082 75,94.528996 v -5.307428 l 1.776561,-2.19396 1.776562,-2.193961 7.473438,-0.666823 L 93.5,83.5 v -19 -19 L 63.17952,45.235232 32.85904,44.970464 33.192579,43.235232 33.526118,41.5 63.513059,41 93.5,40.5 93.804128,34.003039 94.108255,27.506078 91.943344,25.753039 89.778432,24 h -4.307428 c -2.369086,0 -5.019233,0.273145 -5.889217,0.606989 L 78,25.213978 v 1.693011 C 78,27.838145 78.54,29.14 79.2,29.8 L 80.4,31 79.223629,32.176371 78.047257,33.352743 76.08002,31.572417 74.112782,29.792092 73.806391,27.146046 73.5,24.5 50.225711,24.23151 l -23.27429,-0.26849 -0.633531,1.650956 -0.633531,1.650955 1.239923,1.985432 1.239922,1.985433 -1.058473,1.058473 -1.058474,1.058474 L 24.023629,31.521384 22,29.690025 v -2.325961 -2.32596 l -2.406859,-0.604083 -2.406859,-0.604083 -2.081334,1.113895 -2.081333,1.113896 -0.574102,2.287406 c -0.315757,1.258073 -0.43357,4.507584 -0.261808,7.221136 L 12.5,40.5 20,41 27.5,41.5 V 43 44.5 L 20,45 12.5,45.5 12.2336,72.285099 11.967201,99.070197 13.018784,101.0351 14.070368,103 H 43.928195 73.786022 Z M 57.571429,97.428571 56,95.857143 v -3.806127 -3.806127 l 1.422306,-1.180409 1.422306,-1.180409 4.827694,0.307965 L 68.5,86.5 68.813649,91.466875 69.127297,96.43375 67.372519,97.716875 65.617741,99 H 62.380299 59.142857 Z M 65.5,92 V 89.5 L 63.245529,89.179863 60.991058,88.859726 60.38854,90.429863 59.786022,92 60.38854,93.570137 60.991058,95.140274 63.245529,94.820137 65.5,94.5 Z M 18.243804,96.843804 17,95.6 V 91.871429 88.142857 L 18.571429,86.571429 20.142857,85 h 3.806127 3.806127 l 1.180409,1.422306 1.180409,1.422306 -0.307965,4.827694 L 29.5,97.5 24.493804,97.793804 19.487609,98.087609 Z M 26.5,92 V 89.5 L 24.245529,89.179863 21.991058,88.859726 21.38854,90.429863 20.786022,92 21.38854,93.570137 21.991058,95.140274 24.245529,94.820137 26.5,94.5 Z m 11.166667,5.333333 C 37.3,96.966667 37,94.581667 37,92.033333 V 87.4 l 1.2,-1.2 1.2,-1.2 h 3.365741 c 1.851158,0 4.236158,0.465833 5.3,1.035184 L 50,87.070368 v 3.883028 c 0,2.135666 -0.273145,4.594833 -0.606989,5.464817 L 48.786022,98 h -5.226344 c -2.87449,0 -5.526345,-0.3 -5.893011,-0.666667 z M 45.816422,91.75 46.132845,89 h -2.459434 -2.459433 l -0.575604,1.5 c -0.316583,0.825 -0.307453,2.198792 0.02029,3.052872 L 41.254557,95.105744 43.37728,94.802872 45.5,94.5 Z M 18.571429,79.428571 17,77.857143 v -3.806127 -3.806127 l 1.422306,-1.180409 1.422306,-1.180409 4.827694,0.307965 L 29.5,68.5 29.813649,73.466875 30.127297,78.43375 28.372519,79.716875 26.617741,81 H 23.380299 20.142857 Z M 26.5,74 V 71.5 L 24.245529,71.179863 21.991058,70.859726 21.38854,72.429863 20.786022,74 21.38854,75.570137 21.991058,77.140274 24.245529,76.820137 26.5,76.5 Z M 38.627481,79.716875 36.872703,78.43375 37.186351,73.466875 37.5,68.5 l 5.405355,-0.307647 5.405355,-0.307648 0.829332,1.307648 c 0.456133,0.719206 0.836223,3.204314 0.844645,5.522463 L 50,78.929632 48.065741,79.964816 C 47.001899,80.534167 44.837908,81 43.256871,81 H 40.382259 Z M 45.5,74 V 71.5 L 43.377278,71.197128 41.254555,70.894256 40.658662,72.447128 40.06277,74 l 0.595892,1.552872 0.595893,1.552872 2.122723,-0.302872 L 45.5,76.5 Z M 57.571429,79.428571 56,77.857143 v -3.806127 -3.806127 l 1.422306,-1.180409 1.422306,-1.180409 4.827694,0.307965 L 68.5,68.5 68.813649,73.466875 69.127297,78.43375 67.372519,79.716875 65.617741,81 H 62.380299 59.142857 Z M 65.5,74 V 71.5 L 63.245529,71.179863 60.991058,70.859726 60.38854,72.429863 59.786022,74 60.38854,75.570137 60.991058,77.140274 63.245529,76.820137 65.5,76.5 Z M 77.2,79.8 76,78.6 v -4.1 -4.1 l 1.2,-1.2 1.2,-1.2 h 4.1 4.1 l 1.2,1.2 1.2,1.2 v 4.1 4.1 L 87.8,79.8 86.6,81 H 82.5 78.4 Z M 85,74.5 V 72 h -2.440983 -2.440983 l -0.64763,1.047887 -0.64763,1.047887 0.557228,1.452113 L 79.93723,77 H 82.468615 85 Z M 18.2,61.8 17,60.6 v -4.177555 -4.177556 l 1.422306,-1.180409 1.422306,-1.180409 4.827694,0.307965 L 29.5,50.5 l 0.307647,5.405355 0.307648,5.405355 -1.307648,0.829332 C 28.088441,62.596175 25.6775,62.976265 23.45,62.984687 L 19.4,63 Z m 8.608296,-5.46411 0.308295,-2.16411 -2.049347,-0.650438 -2.049347,-0.650437 -1.008948,0.623564 c -2.646491,1.635621 -0.7417,5.754578 2.4499,5.297714 L 26.5,58.5 Z M 38.2,61.8 37,60.6 v -4.693011 -4.693011 l 1.581787,-0.606989 C 39.451771,50.273145 41.836771,50 43.881787,50 H 47.6 l 1.2,1.2 1.2,1.2 v 4.1 4.1 L 48.8,61.8 47.6,63 H 43.5 39.4 Z M 46,56.468615 V 53.93723 l -1.577541,-0.605359 -1.577542,-0.60536 -1.459203,1.459203 -1.459203,1.459203 0.643734,1.677542 L 41.213978,59 H 43.606989 46 Z m 11.035184,4.597126 C 56.465833,60.001899 56,57.837908 56,56.256871 v -2.874612 l 1.283125,-1.754778 1.283125,-1.754778 4.966875,0.313648 L 68.5,50.5 l 0.307647,5.405355 0.307648,5.405355 -1.307648,0.829332 c -0.719206,0.456133 -3.204314,0.836223 -5.522463,0.844645 L 58.070368,63 Z m 8.773112,-4.729851 0.308295,-2.16411 -2.049347,-0.650438 -2.049347,-0.650437 -1.008948,0.623564 c -2.646491,1.635621 -0.7417,5.754578 2.4499,5.297714 L 65.5,58.5 Z M 77.2,61.8 76,60.6 v -4.1 -4.1 l 1.2,-1.2 1.2,-1.2 h 4.1 4.1 l 1.2,1.2 1.2,1.2 v 4.1 4.1 L 87.8,61.8 86.6,63 H 82.5 78.4 Z M 85,56.468615 V 53.93723 l -1.577541,-0.605359 -1.577542,-0.60536 -1.559203,1.559203 -1.559203,1.559203 0.60536,1.577542 L 79.93723,59 H 82.468615 85 Z m 0.215651,37.818977 C 87.847043,91.695767 90,89.220767 90,88.787592 V 88 h -3.918213 c -2.155016,0 -4.630016,0.273145 -5.5,0.606989 L 79,89.213978 V 94.106989 99 h 0.715651 c 0.393608,0 2.868608,-2.120584 5.5,-4.712408 z m 86.159899,16.130728 -3.12446,-1.3216 -0.59416,-1.54836 L 167.06277,106 h -3.87087 -3.87087 l -1.17394,2.57651 -1.17393,2.57651 -3.23658,-0.69411 C 149.41861,109.5329 149,109.21801 149,106.89599 149,104.51916 156.62392,73.46308 157.99618,70.25 L 158.95712,68 h 2.48626 2.48625 l 1.21539,2.25 c 1.30562,2.417047 2.9032,8.260038 5.94683,21.75 1.05479,4.675 2.57292,10.74521 3.37362,13.48935 l 1.45583,4.98935 -0.71065,0.63061 -0.71065,0.6306 z m -6.47088,-12.818177 c 0.28092,-0.454552 0.3886,-2.396437 -0.14292,-3.511922 L 163.76674,92 162.55401,90.378914 c -0.45577,-0.609236 -1.38951,0.25218 -3.35939,0.152758 -1.20248,1.521664 -1.66138,3.413582 -1.04324,4.535765 L 159.76674,98 l 2.14293,0.682563 c 1.07831,0.343462 2.71407,-0.627867 2.995,-1.08242 z m 21.37995,11.952137 -5.21537,-2.42819 -0.61815,-2.81204 c -0.33998,-1.54663 -0.80395,-3.40715 -1.03104,-4.13449 -0.22709,-0.727345 0.0513,-2.189845 0.61871,-3.250002 L 181.07037,95 h 2.953 2.95299 l 0.62976,3.938268 0.62975,3.938272 1.38008,0.52958 1.38007,0.52958 1.57306,-2.40079 1.57306,-2.400794 -1.01612,-1.898637 c -0.55886,-1.04425 -3.48323,-4.006363 -6.4986,-6.582472 l -5.48249,-4.683836 -1.12854,-3.419496 -1.12853,-3.419497 1.05185,-3.906285 1.05186,-3.906284 1.9266,-1.743551 1.9266,-1.74355 3.82761,-0.500287 3.82762,-0.500286 2.73248,1.053621 2.73248,1.053621 2.51752,5.218565 C 202.84524,79.053505 203.79167,84 202.36602,84 c -0.34869,0 -2.37369,-0.521229 -4.5,-1.158288 L 194,81.683425 v -1.407454 c 0,-0.7741 -0.48138,-2.306925 -1.06974,-3.406279 l -1.06974,-1.998825 -1.43026,1.187011 L 189,77.244889 v 2.721019 2.721019 l 4.89796,4.130017 4.89795,4.130017 2.10205,4.342244 L 203,99.631449 v 3.107551 3.10755 l -2.58889,3.07672 -2.5889,3.07673 -3.1611,-0.01 -3.16111,-0.01 -5.21538,-2.42818 z m -70.78462,0.50951 -3,-0.58143 V 88.990179 68.5 l 2.5856,-0.300558 2.58559,-0.300558 1.07309,1.300558 c 0.5902,0.715307 2.36349,5.766992 3.94063,11.225968 l 2.86755,9.925409 1.0687,0.356235 1.0687,0.356234 2.28741,-7.781644 C 131.23534,79.00174 132.92898,73.8125 133.74092,71.75 L 135.21716,68 h 2.85624 2.85623 l 0.89125,1.75 0.89126,1.75 -0.30583,19.5 -0.30582,19.5 -2.80025,-0.34708 c -1.54013,-0.19089 -3.41144,-0.8489 -4.15845,-1.46225 l -1.35822,-1.11518 -1.25391,1.71483 -1.25391,1.71483 -3.16843,-0.63369 -3.16842,-0.63368 -1.86337,-2.36889 C 120.71233,104.36457 120,104.38127 120,107.44098 c 0,2.98396 -0.65574,3.36586 -4.5,2.62081 z m 101,0.0621 -3,-0.63945 L 213,92.703457 212.5,75.922456 211,74.976541 c -0.825,-0.520253 -2.23936,-0.952806 -3.14301,-0.961228 L 206.21398,74 205.62967,72.477319 205.04536,70.954638 207.02268,68.977319 209,67 h 7.42857 7.42857 l 1.50592,1.50592 c 0.82826,0.828256 1.80149,2.437168 2.16274,3.57536 l 0.65681,2.069441 -0.6289,0.6289 c -0.34589,0.345895 -1.84948,0.649483 -3.3413,0.67464 L 221.5,75.5 l -0.27307,17.75 -0.27308,17.75 -0.72692,-0.11831 c -0.39981,-0.0651 -2.07693,-0.40607 -3.72693,-0.75778 z m 24.5,-0.0541 -7.5,-0.56984 -0.27003,-20.666145 -0.27004,-20.666144 2.77004,-0.529054 c 1.52352,-0.29098 4.91419,-0.405609 7.53484,-0.254732 l 4.76481,0.274323 1.47518,1.920876 1.47519,1.920876 -0.24,2 -0.23999,2 -3.60322,-0.311456 -3.60323,-0.311456 -1.06905,2.811456 c -0.58799,1.546301 -1.07394,4.273956 -1.0799,6.061456 l -0.0108,3.25 h 2.77813 2.77812 l 1.74265,1.925596 1.74264,1.925596 -0.34621,1.824404 -0.3462,1.824404 -2.75057,0.317303 -2.75058,0.317302 -1.58518,3.065399 -1.58517,3.065396 1.3443,0.85199 c 0.73936,0.46859 2.59145,0.85888 4.11574,0.8673 l 2.77144,0.0153 1.11002,2.43623 1.11002,2.43623 -0.60008,1.56377 c -0.33004,0.86007 -0.95169,1.4827 -1.38146,1.38361 -0.42976,-0.0991 -4.15638,-0.43659 -8.28138,-0.75 z m 20.5,0.20033 c -1.1,-0.26696 -2.51647,-0.90386 -3.14771,-1.41533 l -1.1477,-0.92994 -0.0623,-19.448687 -0.0623,-19.448691 1.79554,-0.960947 1.79555,-0.960947 6.38245,0.505686 6.38245,0.505687 1.44045,1.191499 c 0.79225,0.655325 2.25926,2.9915 3.26002,5.1915 l 1.81956,4 0.022,5.263569 0.022,5.263569 -1.18789,1.90211 -1.18789,1.902111 1.23947,3.834321 1.23946,3.83432 -0.36991,5 -0.36992,5 -1.93166,-0.27815 c -1.06241,-0.15298 -2.94416,-0.49905 -4.18166,-0.76905 l -2.25,-0.4909 -0.0153,-6.23095 -0.0153,-6.23095 -0.94852,-1.5 -0.94852,-1.5 -1.78617,1.794679 -1.78616,1.794679 v 6.615512 6.61552 l -1,0.21758 c -0.55,0.11967 -1.9,-8.4e-4 -3,-0.2678 z m 9.46698,-26.532273 1.46698,-2.601751 -0.9871,-2.818073 -0.98711,-2.818073 -2.09763,-0.302221 -2.09763,-0.302221 -0.51542,5.302221 -0.51543,5.302221 1.13318,0.733744 c 1.68943,1.093925 2.96688,0.400836 4.60016,-2.495847 z m -124.21736,-26.462113 -2.75039,-0.408703 -0.90006,-1.68354 C 142.14251,53.394121 134.82863,20.881244 134.62214,17.5 L 134.5,15.5 h 2.93998 2.93998 l 2.31002,5.96375 2.31002,5.96375 0.0153,3.53625 c 0.008,1.944937 0.37062,4.09573 0.80487,4.779538 l 0.78956,1.243289 1.63204,-4.743289 C 149.13941,29.63448 150.17947,25.475 150.55304,23 c 0.37357,-2.475 1.09279,-5.2875 1.59827,-6.25 L 153.07037,15 h 2.34349 2.3435 l 1.21776,2.939946 1.21777,2.939946 -2.1496,10.810054 C 153.0377,56.862371 152.4794,58.127221 146.74962,57.275784 Z M 173.75,57.246098 166,56.915871 V 35.957936 15 l 2.75,-0.129047 c 1.5125,-0.07098 4.98595,-0.02234 7.71879,0.108079 l 4.96878,0.237125 1.24941,1.641921 c 0.68718,0.903057 1.26372,2.688833 1.28122,3.968391 l 0.0318,2.326469 -4.08787,-0.295153 -4.08786,-0.295154 -0.96901,1.731516 -0.969,1.731516 0.30687,4.237168 L 174.5,34.5 l 2.19699,-0.228818 2.19699,-0.228817 2.11624,2.971993 2.11625,2.971993 -0.62225,1.006825 L 181.88197,42 h -2.36956 -2.36955 L 175.57143,43.571429 174,45.142857 V 47.571429 50 h 3.34501 3.34501 l 1.74265,1.925596 1.74264,1.925596 -0.33766,1.741538 c -0.40408,2.084165 -0.31604,2.069735 -10.08765,1.653368 z m 56.75,-0.0399 c -1.65,-0.198051 -3.45,-0.79793 -4,-1.333065 L 225.5,54.90016 225.446,39.17173 225.392,23.443301 224.63699,22.22165 223.88197,21 h -2.50741 -2.5074 L 219.18358,18.25 219.5,15.5 224,14.873716 c 2.475,-0.344456 6.85123,-0.395163 9.72496,-0.112681 l 5.22497,0.513603 1.60102,2.443469 1.60102,2.443469 -0.5853,1.525282 -0.58531,1.525281 -2.41835,-0.606969 -2.41835,-0.606968 -1.57233,1.572328 L 233,25.142857 v 13.44214 13.442141 l 1.22496,1.961471 1.22496,1.961472 -0.97496,0.808105 L 233.5,57.56629 Z M 112.44625,55.720526 c -0.27004,-0.70371 -0.36842,-10.021262 -0.21861,-20.70567 L 112.5,15.588659 114.78113,15.04433 c 1.25462,-0.299382 4.75241,-0.389586 7.77286,-0.200455 l 5.49174,0.343876 1.518,2.935492 1.518,2.935492 -0.59988,0.970633 L 129.88197,23 h -3.96574 -3.96573 l -0.97525,2.5651 C 120.43886,26.975904 120,29.450904 120,31.0651 V 34 l 1.25,0.115154 c 0.6875,0.06334 2.09947,0.02455 3.13772,-0.08619 l 1.88771,-0.201343 0.84697,1.336189 c 0.46584,0.734904 0.85387,2.523608 0.86229,3.974898 l 0.0153,2.638709 -3.40345,0.638491 -3.40345,0.638491 -0.59655,1.554587 C 120.26845,45.464011 120,46.796453 120,47.56997 v 1.406395 l 4.08593,0.653367 4.08594,0.653367 1.10721,2.430064 1.10721,2.430064 -1.44315,0.913074 -1.44314,0.913073 -7.28138,0.01531 L 112.93723,57 Z M 190.66667,56.333333 190,55.666667 V 35.449965 15.233263 l 1.95352,-0.510858 1.95353,-0.510858 1.79647,1.312935 1.79648,1.312935 3,7.686675 3,7.686674 1,-0.355383 1,-0.355383 0.11537,-5.5 c 0.0635,-3.025 0.17596,-6.7375 0.25,-8.25 L 206,15 h 2.89301 2.89301 l 0.72139,1.75 0.72139,1.75 0.3589,17 c 0.19739,9.35 0.60449,18.0125 0.90465,19.25 L 215.0381,57 h -3.86406 -3.86406 l -1.65499,-1.828741 C 204.74474,54.165452 204,53.035548 204,52.660361 c 0,-0.375187 -0.94956,-2.702254 -2.11013,-5.171259 L 199.77975,43 h -1.02877 -1.02876 l 0.498,5.75 c 0.2739,3.1625 0.2989,6.3125 0.0556,7 L 197.83337,57 h -3.25 c -1.7875,0 -3.55,-0.3 -3.91666,-0.666667 z"
         id="path3140"
         sodipodi:nodetypes="cccccccccccccccccccccccccccccccccccssccccccccccsscccccccccccccccccsscsscccccccccccccccccccccccsscccccccccccccsccccccccccccccccccccccccccccccccccccccccccccccccccccsscccsscsscssccccssccccccccccccccccccccccccccccccccccccsscsscccccccccccccccccccccccccccccccccccccccccccccccccccccccccccccccccccccccccccccssccccccssccccccsscccccccccccccccccccccsscccccccsscsccccssccccccccccccccccccccccccccccccsscsscccssccccccccssscccsssccccsscscscssccssscccccccccsscccccccccccssscsscccccccccccccccccscccccsscccsscccccccsscccccsssccccsscccccccsscsscccsscccccsscccccccsscccccccccccsscccssscsscccccccsscccccccccsscccccccccsssscccccccssccssccccccscssscccccsccscccsscsscccccccccccccccccccccccsssscccccccccsscccccccccccccccssscsscccccccsscsscsscccsscccccccccscccccccccccccscccccsscccssscccsccssc" />
      <path
         style="fill:#1a96d0"
         d="M 168.90915,106.61052 166.63933,104 h -5.19769 -5.1977 l -1.44426,2.17518 -1.44427,2.17518 -1.64147,-0.62989 -1.64148,-0.62989 0.86972,-2.79529 c 0.47834,-1.53741 2.54859,-9.920536 4.60056,-18.62917 l 3.73086,-15.83388 1.43042,-0.548902 1.43041,-0.548903 0.88122,0.882782 c 1.08812,1.090057 3.27829,9.063764 6.972,25.382783 l 2.8293,12.5 -0.81899,0.86052 -0.819,0.86052 z m -3.25168,-8.16028 0.5947,-1.54976 -1.2604,-5.939267 -1.2604,-5.939266 -1.23301,-1.023305 -1.233,-1.023304 -1.16192,1.400028 c -0.63906,0.770016 -1.68404,3.889212 -2.32217,6.931547 l -1.16025,5.531517 1.31193,1.580785 L 159.24489,100 h 2.90894 2.90894 z m 18.20131,7.56238 -2.98738,-2.98737 0.3143,-3.262627 L 181.5,96.5 h 1.959 1.95901 l 0.63142,3.08729 C 186.90239,103.75781 187.787,105 189.90403,105 h 1.78599 l 1.65499,-1.82874 L 195,101.34252 194.97776,98.921259 194.95553,96.5 193.22776,94.429482 c -0.95027,-1.138784 -3.58232,-3.493209 -5.84901,-5.232054 l -4.12124,-3.161537 -1.25692,-3.034463 -1.25691,-3.034462 0.59774,-3.733483 0.59775,-3.733483 2.1412,-1.75 2.1412,-1.75 h 4.31779 4.31778 l 1.49086,1.49086 c 0.81998,0.819973 2.00911,3.061175 2.64253,4.98045 l 1.15167,3.489589 -0.66434,1.074919 -0.66433,1.074919 -1.52782,-0.305369 L 195.75789,80.5 194.62895,77.095896 193.5,73.691791 191.68735,72.595896 189.8747,71.5 187.93735,73.860784 186,76.221568 v 2.574573 2.574572 l 5.95861,5.564644 5.95861,5.564643 1.01648,2.749571 1.01647,2.74957 -0.60936,3.250429 -0.60935,3.25043 -2.04005,2.25 -2.04004,2.25 h -3.90261 -3.90261 z m 53.36985,2.26239 -3.27136,-0.40491 0.27136,-19.185052 L 234.5,69.5 h 6.5 6.5 v 1.459005 1.459004 l -3.24384,0.663436 c -1.78411,0.364889 -3.92161,1.225937 -4.75,1.91344 L 238,76.244889 v 4.443297 4.443297 l 1.03518,1.934258 L 240.07037,89 h 3.53814 3.53814 l -0.33188,1.75 -0.33187,1.75 -2.99145,0.338485 c -1.6453,0.186167 -3.55395,0.803767 -4.24145,1.372445 L 238,95.244889 V 98.422445 101.6 l 1.2,1.2 1.2,1.2 h 3.24098 3.24099 l 0.71179,1.1517 0.71179,1.15171 -1.8439,1.34829 -1.84391,1.3483 -2.05887,-0.16004 c -1.13238,-0.088 -3.53098,-0.34225 -5.33024,-0.56495 z M 113.70124,107.3679 113,106.66667 V 88.301949 69.93723 l 1.64461,-0.631095 1.64461,-0.631095 1.16367,1.591418 c 0.64002,0.875279 2.45546,6.135116 4.03431,11.688526 l 2.87064,10.09711 1.36346,1.131571 1.36346,1.131572 0.86233,-0.907619 C 128.42137,92.908428 130.24291,87.775 131.99495,82 c 1.75203,-5.775 3.77673,-11.115746 4.49932,-11.868324 l 1.31381,-1.368325 1.09596,0.677342 L 140,70.118034 V 89.059017 108 h -2 -2 v -8.940983 -8.940983 l -0.9309,-0.575329 -0.9309,-0.575329 -0.8191,1.266312 C 132.86859,90.93016 131.8226,95.1 130.99467,99.5 l -1.50532,8 H 126.99467 124.5 l -2.04254,-9.295267 -2.04255,-9.295268 -0.95745,-0.204732 L 118.5,88.5 l -0.5,9.489707 -0.5,9.489703 -1.54876,0.29487 c -0.85182,0.16217 -1.86432,-0.0207 -2.25,-0.40638 z M 214.66667,107.3333 214,106.66664 V 90.955748 75.244859 l -1.25,-1.014836 c -0.6875,-0.55816 -2.15,-1.181923 -3.25,-1.38614 l -2,-0.371303 V 70.986275 69.49997 l 8.75,-0.288933 8.75,-0.288933 v 2.038933 2.038933 h -2.3 -2.3 l -1.2,1.2 -1.2,1.2 v 16.3 16.3 h -1.33333 c -0.73334,0 -1.63334,-0.3 -2,-0.66667 z m 44.07179,-1.22547 c -0.27215,-1.04068 -0.32403,-7.453182 -0.11531,-14.250003 C 258.83188,85.061035 259.00206,77.1375 259.00133,74.25 L 259,69 h 6.38922 6.38921 l 2.36079,1.910326 2.36078,1.910326 -0.0896,7.339674 C 276.36117,84.197147 276.202,88.625 276.05673,90 c -0.14528,1.375 -0.14303,5.875 0.005,10 l 0.26913,7.5 h -1.91543 -1.91542 l -0.30321,-6.46165 -0.30321,-6.461655 -1.06924,-1.288347 L 269.75511,92 h -2.17755 C 266.3799,92 264.86,92.54 264.2,93.2 l -1.2,1.2 v 6.8 6.8 h -1.88337 -1.88337 l -0.4948,-1.89214 z M 271.17126,86.345012 273,84.690025 V 80.673753 76.657481 L 271.34501,74.828741 269.69002,73 h -2.14501 C 266.36526,73 264.86,73.54 264.2,74.2 l -1.2,1.2 v 5.633333 C 263,87.400075 263.3305,88 266.83793,88 h 2.50459 z M 113.44521,54.717826 c -0.2706,-0.705195 -0.36898,-9.592695 -0.21861,-19.75 L 113.5,16.5 l 6.40894,-0.301843 6.40894,-0.301843 0.77508,1.254097 C 128.29071,19.088419 127.18643,20 123.64098,20 H 120.4 l -1.2,1.2 -1.2,1.2 v 5.6 5.6 l 1.2,1.2 1.2,1.2 h 2.87332 2.87333 l -0.33468,1.75 -0.33468,1.75 -3.48864,0.5 -3.48865,0.5 v 5 5 l 3.49599,0.331705 c 1.92279,0.182437 4.10092,0.833761 4.84029,1.447387 l 1.34432,1.115682 -1.78143,1.302613 L 124.61774,56 h -5.34025 -5.34026 z m 31.15012,0.436415 C 143.97528,54.150991 136,18.801088 136,17.056041 v -1.202689 l 1.67808,0.323324 1.67809,0.323324 0.84513,3 c 0.46483,1.65 1.48475,6.245489 2.2665,10.212198 0.78176,3.966709 1.92769,8.158264 2.54652,9.314567 l 1.12516,2.102368 1.30355,-1.081852 1.30355,-1.081853 2.23354,-10.732714 C 152.20856,22.329721 153.61558,17.0725 154.10682,16.55 L 155,15.6 l 1.16249,1.162489 1.16249,1.162488 -1.79154,7.787512 c -0.98535,4.283131 -2.78069,12.317135 -3.98965,17.853343 -1.20896,5.536207 -2.52745,10.598707 -2.92997,11.25 -0.8475,1.371288 -3.25485,1.574018 -4.01849,0.338409 z m 22.84988,-0.436415 c -0.2706,-0.705195 -0.36898,-9.592695 -0.21861,-19.75 L 167.5,16.5 h 6.5 6.5 v 1.5 1.5 l -3.5,0.321297 c -1.925,0.176713 -3.93774,0.749451 -4.47275,1.272751 l -0.97275,0.951454 -0.18218,5.727249 -0.18217,5.727249 1.02737,1.25 1.02737,1.25 h 2.95088 2.95088 l -0.33354,1.75 -0.33354,1.75 -2.48979,0.345818 c -1.36938,0.1902 -3.05228,0.8078 -3.73978,1.372445 L 171,42.244889 v 3.842372 3.842371 l 1.76064,0.942268 1.76065,0.942268 2.72692,-0.521284 2.72691,-0.521283 0.65816,1.715124 0.65815,1.715125 -1.39571,0.883762 -1.39572,0.883762 -5.28138,0.01531 L 167.93723,56 Z m 24,0 c -0.2706,-0.705195 -0.36898,-9.592695 -0.21861,-19.75 L 191.5,16.5 h 1.96282 1.96282 l 4.09784,9.997987 4.09784,9.997988 1.65363,0.318458 1.65362,0.318459 0.28571,-10.316446 L 207.5,16.5 h 1.5 1.5 l 0.27272,18.927283 0.27271,18.927283 -0.98033,0.980335 -0.98034,0.980336 -1.34211,-1.113859 c -0.73817,-0.612622 -2.85744,-4.84605 -4.70949,-9.407618 -1.85205,-4.561568 -3.8131,-8.875332 -4.35788,-9.586142 l -0.99052,-1.292381 -1.06054,1.060544 -1.06054,1.060544 0.20919,6.940331 0.20919,6.940331 -0.96628,2.541507 L 194.0495,56 h -1.05613 c -0.58088,0 -1.27755,-0.576978 -1.54816,-1.282174 z M 227,38.622445 V 22.244889 l -1.25,-1.014836 c -0.6875,-0.55816 -2.15,-1.181923 -3.25,-1.38614 l -2,-0.371303 V 17.986305 16.5 h 8.5 8.5 v 1.486305 1.486305 l -2,0.371303 c -1.1,0.204217 -2.5625,0.82798 -3.25,1.38614 L 231,22.244889 V 38.622445 55 h -2 -2 z"
         id="path3138"
         sodipodi:nodetypes="ccccccccsscccssccccccccccssccccccccccccsscccccsscccccccccssccccccccccccccccccccccccscccccccsscccccccccsscccccccccccssscccccsscccssscccccccccccsscccccccccssscccsscccccccccccccsssssccccccsscccccccssccccccsccccccsscssccsscccsscccccccccccccccsscccccssscccssscccsscccsssssscccccsscccccccccsscccccccccccccssscccccccccccccccssscccccccssccsscccccccsscccccc" />
      <path
         style="fill:#ffffff;stroke-width:0.170641"
         d="m 103.4846,175.7172 c -0.31924,-0.86058 -0.33187,-1.41994 -0.32057,-14.20583 0.006,-7.32048 0.0729,-16.20441 0.14771,-19.74207 l 0.13595,-6.4321 1.47338,-0.33578 c 0.81035,-0.18468 2.31804,-0.3859 3.35042,-0.44715 1.67861,-0.0996 6.48194,0.078 9.47055,0.3502 l 1.10917,0.10102 1.47636,2.87596 1.47637,2.87596 -0.59365,0.94909 -0.59366,0.94908 h -3.97915 -3.97914 l -0.68059,1.91971 c -0.8587,2.42207 -1.23197,4.58659 -1.23197,7.14386 v 2.00716 l 0.79804,0.11967 c 0.80025,0.12001 4.43445,-0.0229 5.10555,-0.2007 0.28673,-0.076 0.46163,0.0687 0.88081,0.72878 0.78348,1.23373 1.07943,2.44378 1.18686,4.85256 l 0.096,2.1519 -3.43605,0.65293 -3.43605,0.65292 -0.35083,0.93767 c -0.53428,1.42799 -0.83898,2.89646 -0.84177,4.05682 l -0.003,1.04827 0.98118,0.17083 c 0.53965,0.0939 2.38098,0.38936 4.09185,0.65647 l 3.11066,0.48566 1.02737,2.25478 c 0.56506,1.24012 1.02738,2.32742 1.02738,2.4162 0,0.0888 -0.61685,0.55306 -1.37078,1.03171 l -1.37077,0.87029 h -7.21287 -7.21287 z m 13.81912,-1.2798 1.83497,-1.32247 -0.74098,-0.64255 c -1.42374,-1.23462 -2.87864,-1.70588 -6.45745,-2.09167 -1.267,-0.13658 -2.36124,-0.24916 -2.43163,-0.25016 -0.0704,-0.001 -0.12798,-2.21935 -0.12798,-4.92966 v -4.92784 l 1.23715,-0.18144 c 0.68043,-0.0998 2.197,-0.31234 3.37015,-0.47232 1.17316,-0.15999 2.18881,-0.33929 2.25701,-0.39845 0.095,-0.0824 0.81452,-3.20066 0.81452,-3.53004 0,-0.0366 -1.28812,-0.0665 -2.8625,-0.0665 h -2.8625 l -1.23287,-1.24116 -1.23288,-1.24116 v -5.46076 -5.46075 l 1.24116,-1.23288 1.24116,-1.23287 h 2.24857 c 4.64459,0 5.5966,-0.72044 4.2155,-3.19008 l -0.60949,-1.08988 -1.6515,0.10451 c -0.90833,0.0575 -3.78411,0.20313 -6.39064,0.32368 -2.60653,0.12054 -4.77398,0.254 -4.81655,0.29657 -0.15817,0.15817 -0.46414,24.52853 -0.38956,31.02834 0.0697,6.07297 0.10943,6.829 0.40139,7.63617 l 0.32405,0.89586 h 5.39296 5.39296 z"
         id="path3369"
         transform="translate(9.1702479,-119.69587)" />
      <path
         style="fill:#ffffff;stroke-width:0.170641"
         d="m 137.36572,176.85918 c -2.484,-0.33722 -2.42228,-0.31147 -2.92703,-1.22154 -0.78786,-1.42051 -1.93166,-5.7744 -4.56284,-17.36844 -2.93496,-12.93259 -4.45498,-20.63092 -4.45498,-22.56275 v -0.38842 h 2.87127 2.87127 l 2.33327,6.02754 2.33327,6.02754 v 2.5748 c 0,3.1501 0.28051,4.78321 1.0311,6.00307 0.29945,0.48668 0.57556,0.85376 0.61358,0.81574 0.038,-0.038 0.57138,-1.55842 1.18526,-3.37869 1.23151,-3.65166 2.24767,-7.5117 2.80287,-10.64713 0.58647,-3.31198 1.00495,-4.85584 1.74609,-6.44168 l 0.69781,-1.49311 2.31801,0.002 2.31801,0.002 1.15183,2.77812 c 0.6335,1.52797 1.15182,2.93334 1.15182,3.12304 0,0.40053 -3.81591,19.47961 -4.6039,23.01895 -1.97159,8.8556 -3.16802,11.97326 -4.94214,12.87835 -0.90052,0.45941 -1.92077,0.52453 -3.93457,0.25113 z m 0.67084,-1.26659 c 0.3208,-0.092 0.80293,-0.37772 1.07139,-0.63493 0.81059,-0.7766 1.37083,-2.91596 4.90641,-18.73615 1.32141,-5.9127 2.81462,-12.51649 3.31826,-14.6751 l 0.91569,-3.92473 -1.12804,-1.15182 c -0.62043,-0.63351 -1.2013,-1.15183 -1.29083,-1.15183 -0.0895,0 -0.37856,0.24956 -0.64227,0.55458 -0.9269,1.07211 -2.11522,5.55633 -4.42023,16.68013 l -1.25525,6.05774 -1.06298,0.89738 c -0.58465,0.49356 -1.16561,0.93676 -1.29104,0.98489 -0.14784,0.0567 -0.44432,-0.31893 -0.84293,-1.06802 -1.04241,-1.95895 -1.90641,-4.9754 -3.11757,-10.88419 -1.37574,-6.71171 -2.62751,-11.81745 -3.01532,-12.29894 -0.0822,-0.10208 -0.70714,-0.28179 -1.38873,-0.39935 -0.68158,-0.11756 -1.41201,-0.25353 -1.62318,-0.30216 -0.36158,-0.0833 -0.38394,-0.0349 -0.38394,0.83056 0,0.50544 0.3778,2.75982 0.83956,5.00974 2.34362,11.41928 7.13675,32.1528 7.73829,33.47328 0.3401,0.7466 1.51416,1.07118 2.67271,0.73892 z"
         id="path3371"
         transform="translate(9.1702479,-119.69587)" />
      <path
         style="fill:#ffffff;stroke-width:0.170641"
         d="m 164.5829,176.87009 c -2.62786,-0.12547 -5.41144,-0.23463 -6.18572,-0.24257 l -1.40779,-0.0145 v -20.8899 -20.8899 l 1.15183,-0.12446 c 1.1869,-0.12826 10.80325,0.0546 12.92479,0.24574 l 1.19324,0.10752 0.79478,1.05384 c 1.16043,1.53866 1.54073,2.66988 1.64215,4.88477 l 0.0844,1.84323 -0.40623,-0.0859 c -0.22342,-0.0473 -1.71162,-0.16831 -3.30711,-0.26898 -1.59549,-0.10068 -3.24871,-0.22444 -3.67381,-0.27503 l -0.77292,-0.092 -0.99311,1.75991 -0.9931,1.7599 0.30499,4.32865 0.30499,4.32864 0.86379,-0.10495 c 0.47508,-0.0577 1.4781,-0.15277 2.22892,-0.21122 l 1.36512,-0.10628 2.06855,2.89676 2.06854,2.89676 -0.58916,0.96327 -0.58916,0.96327 h -2.33579 -2.33579 l -1.66054,1.6668 -1.66055,1.6668 v 2.42858 2.42857 h 3.39644 3.39645 l 1.7268,1.8968 c 1.6729,1.83758 1.72322,1.91616 1.61208,2.51695 -0.48925,2.64477 -0.6554,2.78312 -3.4215,2.84899 -1.10971,0.0264 -4.16772,-0.0546 -6.79559,-0.18009 z m 6.02015,-1.92077 c 0.70874,-0.4458 1.3608,-0.85848 1.44901,-0.91707 0.0913,-0.0606 -0.12301,-0.85066 -0.49754,-1.83413 -0.53469,-1.40405 -0.72183,-1.72629 -0.9992,-1.72052 -0.1877,0.004 -1.4316,0.22036 -2.76422,0.48101 l -2.42294,0.4739 -1.7151,-0.92171 -1.71509,-0.92171 v -3.81413 -3.81414 l 0.73828,-0.60496 c 1.07126,-0.87782 2.4768,-1.43829 4.35304,-1.73581 0.90694,-0.14381 1.80641,-0.29303 1.99883,-0.33159 0.29263,-0.0587 0.39727,-0.31756 0.6399,-1.58326 0.44293,-2.31055 0.7327,-2.08093 -2.62614,-2.08093 -3.29326,0 -2.81595,0.18539 -4.26463,-1.65646 l -0.6989,-0.88858 0.19874,-5.68109 0.19874,-5.68108 0.47905,-0.47006 c 0.92766,-0.91023 2.85845,-1.48824 5.80872,-1.73892 0.70389,-0.0598 1.56776,-0.15073 1.9197,-0.20203 l 0.63991,-0.0933 v -1.52077 -1.52077 h -6.56967 -6.56966 l -0.0131,5.16188 c -0.007,2.83904 -0.0449,5.31546 -0.0838,5.50316 -0.0389,0.18771 -0.0823,6.21559 -0.0964,13.3953 -0.0254,12.87404 0.004,13.70529 0.52601,15.07927 l 0.17072,0.44902 h 5.31354 5.31353 z"
         id="path3373"
         transform="translate(9.1702479,-119.69587)" />
      <path
         style="fill:#ffffff;stroke-width:0.170641"
         d="m 183.07551,176.43947 c -0.83658,-0.14136 -1.40843,-0.38642 -1.89781,-0.8133 -0.28125,-0.24533 -0.29862,-1.43511 -0.29862,-20.45495 0,-11.10696 0.0281,-20.19447 0.0624,-20.19447 0.0343,0 0.89818,-0.21869 1.9197,-0.48598 l 1.85732,-0.48598 1.77021,1.29653 1.77021,1.29652 2.99027,7.67883 c 1.64465,4.22335 2.99945,7.69295 3.01067,7.71021 0.0112,0.0173 0.49901,-0.13628 1.08396,-0.3412 l 1.06356,-0.37259 0.002,-0.76796 c 0.004,-1.95659 0.34082,-12.87603 0.43803,-14.20996 l 0.10911,-1.49715 2.82786,0.0467 2.82787,0.0467 0.66865,1.62109 0.66866,1.62108 0.23032,10.40908 c 0.3868,17.48039 0.71866,24.51324 1.26487,26.80585 l 0.30127,1.26454 h -3.78944 -3.78944 l -1.30231,-1.4876 c -1.39697,-1.59573 -1.67041,-2.0669 -2.5037,-4.31411 -0.2958,-0.79771 -1.24189,-2.96698 -2.10243,-4.8206 l -1.56462,-3.37023 h -1.06792 -1.06791 v 0.58871 c 0,0.32379 0.12142,1.95554 0.26982,3.62611 0.39255,4.41907 0.40184,8.31671 0.0218,9.13781 l -0.29619,0.63991 -2.34402,-0.0201 c -1.28921,-0.011 -2.69942,-0.0801 -3.1338,-0.15353 z m 18.70366,-13.98958 c -0.066,-6.42888 -0.14793,-11.73611 -0.1821,-11.79383 -0.0342,-0.0577 -0.0777,-2.74531 -0.0968,-5.97242 -0.019,-3.22711 -0.0654,-6.46258 -0.10296,-7.18994 l -0.0683,-1.32247 h -1.499 -1.499 l -0.10411,1.74907 c -0.0573,0.96199 -0.19668,5.57735 -0.30984,10.25637 l -0.20573,8.50729 -0.77995,-0.10471 c -0.42897,-0.0576 -1.15999,-0.20003 -1.62448,-0.31654 l -0.84453,-0.21184 -0.7235,-1.79173 c -0.39792,-0.98545 -2.21893,-5.43917 -4.04669,-9.89715 l -3.32319,-8.10544 -2.06238,-0.0479 -2.06239,-0.0479 -0.0131,3.11944 c -0.007,1.7157 -0.046,3.27302 -0.0863,3.46073 -0.0403,0.1877 -0.092,7.29062 -0.11492,15.78426 -0.04,14.83172 -0.0289,15.4686 0.27998,16.0904 0.38089,0.76671 1.02808,1.1443 1.96128,1.1443 0.76379,0 0.51824,0.42988 1.98662,-3.4779 l 0.63359,-1.68618 -0.21169,-6.90488 -0.2117,-6.90488 1.0023,-1.01676 1.00231,-1.01676 0.48297,0.56386 c 0.64067,0.74798 1.84464,3.15547 3.3541,6.70693 2.77478,6.52854 3.33266,7.78015 4.4633,10.01339 0.97763,1.931 1.34769,2.48604 2.1408,3.2109 l 0.95885,0.87633 1.01326,-0.99256 1.01327,-0.99257 z"
         id="path3375"
         transform="translate(9.1702479,-119.69587)" />
      <path
         style="fill:#ffffff;stroke-width:0.170641"
         d="m 221.67277,176.85393 c -2.29065,-0.33338 -3.67637,-0.83501 -4.56214,-1.65148 l -0.73829,-0.68054 v -15.65727 -15.65728 l -0.79419,-1.29973 -0.7942,-1.29974 h -2.49747 -2.49747 l 0.30023,-2.58897 c 0.16513,-1.42394 0.38058,-2.63863 0.47877,-2.69932 0.0982,-0.0607 1.50194,-0.28995 3.11942,-0.50947 3.80475,-0.51636 8.28032,-0.55021 12.806,-0.0968 l 3.21014,0.32159 1.58208,2.40256 1.58208,2.40257 -0.38346,1.02384 c -0.21091,0.56312 -0.462,1.22712 -0.55798,1.47557 l -0.17451,0.45172 -2.41436,-0.60455 -2.41436,-0.60456 -1.60659,1.59991 -1.60658,1.59991 v 13.4599 13.45991 l 1.21923,1.95316 c 0.7025,1.12537 1.1545,2.01477 1.0665,2.09852 -0.084,0.0799 -0.48634,0.42128 -0.89409,0.75851 -0.83684,0.69209 -0.94776,0.70316 -3.42876,0.34208 z m 0.16007,-18.47866 v -16.36075 l 0.90401,-0.69744 c 1.1614,-0.89602 2.42695,-1.45022 4.10254,-1.79657 0.73577,-0.15209 1.40767,-0.31973 1.4931,-0.37253 0.0854,-0.0528 0.15533,-0.74416 0.15533,-1.53637 v -1.44038 h -8.61735 -8.61735 v 1.52367 1.52367 l 0.98118,0.18487 c 2.33613,0.44015 3.69487,1.01723 4.9127,2.0865 l 0.59046,0.51843 v 16.36383 16.36382 h 2.04769 2.04769 z"
         id="path3377"
         transform="translate(9.1702479,-119.69587)" />
      <path
         style="fill:#ffffff;stroke-width:0.170641"
         d="m 207.75498,229.82362 c -1.78319,-0.37563 -3.26405,-0.70456 -3.29079,-0.73094 -0.0348,-0.0343 -1.03498,-31.53812 -1.05787,-33.31996 -0.004,-0.32219 -1.85196,-1.43462 -2.96143,-1.78285 -0.5544,-0.17401 -1.50765,-0.31274 -2.14897,-0.31274 h -1.15258 l -0.53862,-1.37604 c -0.29624,-0.75682 -0.53862,-1.46842 -0.53862,-1.58133 0,-0.11292 0.82673,-1.02946 1.83717,-2.03678 l 1.83718,-1.83147 h 7.53208 7.53209 l 1.1015,1.18972 c 1.22431,1.32237 2.13619,2.92189 2.64735,4.64367 l 0.33868,1.14077 -0.36404,0.34097 c -0.63918,0.59866 -1.33192,0.75016 -3.81952,0.83534 -1.33739,0.0458 -2.43352,0.0928 -2.43582,0.10443 -0.0325,0.16401 -0.5005,30.35637 -0.50353,32.48555 -0.004,2.94191 -0.004,2.94354 -0.38814,2.92909 -0.21117,-0.008 -1.84292,-0.3218 -3.62612,-0.69743 z m 1.10917,-18.35292 v -16.33456 l 1.14725,-1.1561 1.14724,-1.15611 h 2.35089 2.35089 v -2.13301 -2.13301 l -0.63991,0.004 c -0.35194,0.002 -3.78822,0.1158 -7.63617,0.25268 -3.84794,0.13689 -7.51458,0.25036 -8.14809,0.25216 l -1.15182,0.003 v 1.58746 1.58745 l 1.45999,0.28145 c 1.68965,0.32573 3.03411,0.89778 4.2004,1.7872 l 0.82395,0.62835 v 15.71727 15.71728 l 0.49269,0.47202 c 0.63461,0.60799 1.58127,0.94005 2.70683,0.94946 l 0.89586,0.007 z"
         id="path3379"
         transform="translate(9.1702479,-119.69587)" />
      <path
         style="fill:#ffffff;stroke-width:0.170641"
         d="m 177.12499,229.17229 -5.0339,-2.35684 -0.19772,-0.65692 c -0.10874,-0.36131 -0.52104,-2.03285 -0.91622,-3.71455 -0.85814,-3.65184 -0.84333,-4.09973 0.20418,-6.17482 l 0.72318,-1.43259 h 2.9188 2.91879 l 0.55793,3.5408 c 0.30687,1.94743 0.59624,3.70385 0.64306,3.90315 0.11807,0.50268 2.74511,1.55691 3.04828,1.22328 0.39747,-0.43739 2.98309,-4.51725 2.98309,-4.70702 0,-0.1069 -0.28414,-0.71533 -0.63142,-1.35206 -0.87352,-1.60159 -3.84912,-4.60837 -8.53261,-8.62202 l -3.78886,-3.24697 -1.09868,-3.40169 -1.09869,-3.40168 1.03648,-3.84626 1.03647,-3.84625 1.9218,-1.74096 1.92179,-1.74096 3.55036,-0.46102 c 1.95269,-0.25356 3.69976,-0.4599 3.88237,-0.45853 0.40965,0.003 5.22141,1.85296 5.50334,2.11576 0.36788,0.34294 3.42367,6.97407 4.05428,8.79789 0.75301,2.17781 1.19004,4.54082 0.98624,5.33262 -0.10965,0.42603 -0.24986,0.57678 -0.57216,0.61518 -0.2348,0.028 -1.91971,-0.38343 -3.74423,-0.91422 -1.82453,-0.5308 -3.56688,-1.03722 -3.8719,-1.12539 -0.51335,-0.14838 -0.55458,-0.21412 -0.55458,-0.88431 0,-1.06334 -0.43291,-2.57617 -1.1799,-4.12321 -1.09668,-2.27125 -0.92308,-2.22029 -2.63969,-0.77475 l -1.47852,1.24504 0.0468,2.74615 0.0468,2.74615 4.58433,3.8679 c 2.52137,2.12734 4.75942,4.04926 4.97344,4.27093 0.21401,0.22167 1.28019,2.25973 2.36928,4.52902 l 1.98016,4.12598 v 3.1671 3.16711 l -2.51695,2.98739 -2.51695,2.98739 -3.24217,-0.0145 -3.24217,-0.0145 z m 9.9053,-2.09225 c 0.87513,-0.96199 1.81437,-1.99047 2.0872,-2.28552 0.44246,-0.47848 0.55866,-0.86569 1.07536,-3.58345 0.31861,-1.67585 0.58081,-3.20058 0.58266,-3.38829 0.002,-0.1877 -0.43573,-1.5396 -0.97241,-3.00422 l -0.97577,-2.66295 -5.93371,-5.52781 -5.93371,-5.5278 -0.003,-2.6037 -0.003,-2.6037 1.89505,-2.30758 1.89505,-2.30757 0.53658,0.34835 c 0.29512,0.19159 1.08436,0.67143 1.75387,1.06632 l 1.2173,0.71796 1.12741,3.42763 1.12741,3.42762 1.57047,0.30106 1.57047,0.30105 0.27651,-0.36659 c 0.15209,-0.20162 0.46156,-0.70532 0.68772,-1.11932 l 0.41121,-0.75275 -0.74135,-2.26252 c -0.9845,-3.00457 -2.15038,-5.26094 -3.45283,-6.68232 l -1.03179,-1.12603 h -4.3494 -4.3494 l -2.20515,1.8025 c -1.21283,0.99138 -2.20515,1.8309 -2.20515,1.8656 0,0.0347 -0.26904,1.7207 -0.59787,3.74668 l -0.59787,3.68359 1.23686,3.00923 1.23686,3.00922 1.11008,0.8797 c 0.61054,0.48384 2.03127,1.60459 3.15718,2.49057 2.93694,2.31109 4.86743,4.07655 6.20589,5.67536 l 1.16868,1.39602 0.10533,2.40434 0.10533,2.40434 -1.63907,1.81901 -1.63906,1.81902 h -1.35119 c -1.53725,0 -2.12252,-0.22586 -2.76372,-1.06651 -0.5369,-0.70391 -1.14086,-2.56768 -1.64508,-5.07655 -0.21691,-1.07931 -0.46995,-2.06077 -0.5623,-2.18102 -0.12287,-0.16001 -0.67601,-0.20578 -2.06228,-0.17064 l -1.89437,0.048 -0.31648,3.30788 -0.31648,3.30789 3.04495,3.04847 3.04496,3.04848 h 3.86023 3.86024 z"
         id="path3381"
         transform="translate(9.1702479,-119.69587)" />
      <path
         style="fill:#ffffff;stroke-width:0.170641"
         d="m 162.20751,230.02028 -3.05795,-1.29985 -0.59066,-1.56675 -0.59067,-1.56675 -3.94489,6.8e-4 -3.94489,6.9e-4 -1.08704,2.43096 c -0.59787,1.33703 -1.14591,2.49524 -1.21788,2.5738 -0.072,0.0786 -1.08017,-0.0616 -2.24045,-0.31149 -4.70451,-1.0132 -5.43411,-1.40855 -5.56748,-3.0169 -0.12187,-1.4695 1.3578,-8.29504 4.66387,-21.51401 2.74415,-10.97216 3.69584,-14.35987 4.72196,-16.80881 l 0.51837,-1.23714 h 2.41504 2.41503 l 0.96326,1.91971 c 1.59449,3.17767 2.74803,7.226 5.67667,19.92229 1.84451,7.99638 3.26034,13.60512 4.487,17.77509 l 0.83662,2.84404 -0.69898,0.57714 -0.69898,0.57714 z m 1.43687,-2.91148 c 0,-0.58322 -5.02325,-22.39668 -6.24479,-27.11796 -1.95802,-7.56786 -2.80372,-10.01102 -3.80311,-10.98689 l -0.66571,-0.65005 -1.44146,0.54754 -1.44145,0.54754 -2.17202,9.23832 c -2.7558,11.72141 -5.90831,24.46645 -6.5624,26.53067 l -0.5049,1.5934 0.56236,0.23497 c 0.30929,0.12923 1.07199,0.42679 1.69489,0.66125 l 1.13255,0.42629 1.47351,-2.212 1.47352,-2.21199 5.13531,0.006 5.13531,0.006 2.28597,2.65098 2.28597,2.65097 0.82822,-0.81577 c 0.45553,-0.44867 0.82823,-0.94298 0.82823,-1.09846 z"
         id="path3383"
         transform="translate(9.1702479,-119.69587)" />
      <path
         style="fill:#ffffff;stroke-width:0.170641"
         d="m 148.88396,218.15563 c -0.65696,-0.80382 -1.21845,-1.56782 -1.24774,-1.69778 -0.0976,-0.43314 1.52584,-7.65301 2.1296,-9.47075 0.64671,-1.94705 0.96951,-2.58837 1.8018,-3.57973 l 0.54382,-0.64774 1.11651,0.9426 c 0.61408,0.51843 1.16498,1.02808 1.22421,1.13255 0.0592,0.10448 0.65834,2.80076 1.33135,5.99174 l 1.22366,5.80178 -0.5702,1.45044 -0.57021,1.45045 -2.89416,0.044 -2.89415,0.044 z m 5.61632,0.0994 c 0.20644,-0.0785 0.62058,-0.34905 0.92031,-0.60126 0.53043,-0.44633 0.54496,-0.49549 0.54496,-1.84359 0,-1.23792 -0.0673,-1.53086 -0.63373,-2.75775 -0.34854,-0.75498 -0.97252,-1.82096 -1.38661,-2.36884 -0.7329,-0.96971 -0.76929,-0.99286 -1.3713,-0.87235 -0.34013,0.0681 -1.10974,0.20921 -1.71024,0.31358 l -1.09183,0.18978 -0.52883,1.01236 c -0.43467,0.83208 -0.52892,1.2119 -0.52927,2.133 -3.9e-4,1.04908 0.0595,1.22389 0.93811,2.73667 l 0.93852,1.61601 1.19448,0.37949 c 1.162,0.36916 1.86696,0.38549 2.71543,0.0629 z"
         id="path3385"
         transform="translate(9.1702479,-119.69587)" />
      <path
         style="fill:#ffffff;stroke-width:0.170641"
         d="m 118.61144,229.92329 c -1.53966,-0.31808 -2.8124,-0.59841 -2.82831,-0.62295 -0.37965,-0.58588 -2.94918,-3.62169 -3.40168,-4.019 -1.15986,-1.01836 -1.46728,-0.67806 -1.63345,1.80817 -0.13863,2.07414 -0.27962,2.45425 -1.02479,2.76291 -0.60815,0.2519 -1.55589,0.16989 -4.39527,-0.38032 l -1.91971,-0.37201 v -20.41833 -20.41834 l 1.83439,-0.20478 c 1.00891,-0.11263 2.15134,-0.2475 2.53873,-0.29969 0.69004,-0.093 0.71817,-0.0763 1.38575,0.82129 1.1454,1.54006 2.45821,5.31834 5.47473,15.75631 l 1.67506,5.79615 1.05482,0.33741 c 0.65051,0.20809 1.10942,0.27565 1.19726,0.17627 0.0783,-0.0886 0.81611,-2.46479 1.6395,-5.28036 1.75861,-6.01355 3.79051,-12.22722 5.03598,-15.40032 l 0.88745,-2.26099 h 2.76487 2.76487 l 0.90414,1.83439 0.90413,1.83438 -0.27131,16.55215 c -0.14923,9.10367 -0.27092,17.80987 -0.27043,19.3471 l 8.5e-4,2.79496 -1.23714,-0.11802 c -2.86766,-0.27354 -4.76691,-0.90564 -6.16609,-2.05216 -0.40552,-0.33229 -0.81108,-0.60417 -0.90125,-0.60417 -0.0902,0 -0.68967,0.72949 -1.33223,1.62108 -0.86215,1.19631 -1.26173,1.61665 -1.52489,1.60415 -0.19613,-0.009 -1.61632,-0.2772 -3.15598,-0.59528 z m 12.22801,-21.17278 -0.0434,-19.05474 -1.08958,-0.66635 -1.08958,-0.66634 -0.67315,0.652 c -1.28867,1.24818 -2.62517,4.55959 -5.49736,13.62069 -2.45745,7.75269 -3.39313,10.19835 -4.17086,10.90171 -0.35198,0.31832 -0.36629,0.31393 -1.2553,-0.38577 -1.88659,-1.48485 -1.60959,-0.87686 -3.62499,-7.95633 -1.91556,-6.72878 -3.67107,-12.26692 -4.44022,-14.00762 -0.59358,-1.34337 -1.61346,-2.80311 -1.94903,-2.78962 -0.14864,0.006 -0.92296,0.26424 -1.7207,0.57394 l -1.45045,0.56308 -0.0434,18.39969 -0.0434,18.39968 0.46295,0.48322 c 0.69148,0.72174 1.4706,0.896 2.91607,0.65219 l 1.20867,-0.20387 0.0927,-0.88223 c 0.051,-0.48522 0.24884,-4.03055 0.4397,-7.87849 0.19086,-3.84795 0.39527,-7.71305 0.45425,-8.5891 l 0.10724,-1.59284 0.61546,0.10883 c 0.33851,0.0598 0.73542,0.14372 0.88202,0.18637 0.20281,0.059 0.75375,2.30236 2.30365,9.38019 l 2.0371,9.30265 2.5552,-0.0467 2.5552,-0.0467 1.05259,-5.48569 c 1.58773,-8.27458 2.26826,-10.9613 3.09156,-12.2054 0.47701,-0.7208 0.52424,-0.72272 1.56814,-0.0637 l 0.69555,0.43908 v 8.9565 8.95649 h 2.04843 2.04842 z"
         id="path3387"
         transform="translate(9.1702479,-119.69587)" />
      <path
         style="fill:#ffffff;stroke-width:0.170641"
         d="m 234.63089,229.93614 c -2.39324,-0.20925 -5.67594,-0.47813 -7.29489,-0.59751 l -2.94355,-0.21705 2.9e-4,-1.21274 c 1.6e-4,-0.66701 -0.11954,-9.9173 -0.266,-20.5562 -0.14645,-10.63891 -0.24066,-19.36908 -0.20935,-19.40039 0.0313,-0.0313 0.97648,-0.21997 2.10038,-0.41926 1.69507,-0.30056 2.68348,-0.36003 5.79755,-0.34882 2.06475,0.007 4.47928,0.07 5.36562,0.13904 l 1.61152,0.12554 1.44626,1.86065 1.44626,1.86066 -0.19613,1.8758 c -0.10788,1.03168 -0.23386,1.91352 -0.27996,1.95962 -0.0461,0.0461 -1.66327,-0.0517 -3.59369,-0.21729 -1.93042,-0.16561 -3.53611,-0.27218 -3.56821,-0.23682 -0.19357,0.21327 -1.47959,4.0296 -1.71798,5.09818 -0.17352,0.7778 -0.32196,2.43443 -0.37844,4.22336 l -0.0929,2.94355 h 2.81887 2.81886 l 1.72607,1.90868 c 1.06553,1.17827 1.69662,2.01085 1.64913,2.17567 -0.0423,0.14684 -0.20706,0.93889 -0.3661,1.76009 -0.2527,1.30488 -0.33461,1.49493 -0.64975,1.50757 -0.19832,0.008 -1.42708,0.14233 -2.73058,0.29862 l -2.36999,0.28416 -1.59462,3.07153 c -0.87704,1.68935 -1.59369,3.10993 -1.59256,3.15685 0.001,0.0469 0.41222,0.33345 0.91354,0.63671 1.1748,0.71067 2.70132,1.06355 4.62466,1.06906 2.84243,0.008 2.6141,-0.14383 3.82765,2.54757 l 1.05444,2.3385 -0.35766,0.95594 c -0.19671,0.52576 -0.51368,1.15428 -0.70437,1.3967 -0.42067,0.5348 -0.31774,0.5346 -6.29435,0.012 z m 2.78453,-2.57071 c 2.02734,-1.48319 1.9488,-1.21198 0.84896,-2.9313 l -0.58073,-0.90783 -3.25702,0.0205 -3.25702,0.0205 -1.17025,-1.16129 -1.17026,-1.16128 v -3.09821 -3.09822 l 0.72523,-0.59261 c 0.39887,-0.32593 0.96763,-0.7174 1.2639,-0.86992 0.84993,-0.43753 2.89356,-0.9247 4.74474,-1.13106 0.93498,-0.10423 1.75044,-0.27119 1.81214,-0.37102 0.0617,-0.0998 0.20261,-0.73069 0.31313,-1.40192 0.11053,-0.67122 0.24404,-1.39317 0.29671,-1.60434 l 0.0958,-0.38394 -3.5593,-0.003 -3.55929,-0.003 -1.0665,-2.02879 -1.06651,-2.02878 0.005,-4.32481 0.005,-4.3248 1.14685,-0.89883 c 1.43194,-1.12227 3.17007,-1.81199 6.09542,-2.41878 l 2.21833,-0.46014 0.0491,-1.5666 0.0491,-1.5666 h -6.57607 -6.57607 l -0.001,2.51695 c -5.9e-4,1.38433 -0.0397,3.70717 -0.0868,5.16188 -0.14428,4.44992 -0.46109,30.73512 -0.37152,30.82469 0.18088,0.18088 10.18033,1.27201 10.63273,1.16023 0.10495,-0.0259 1.00336,-0.6416 1.99647,-1.36815 z"
         id="path3389"
         transform="translate(9.1702479,-119.69587)" />
      <path
         style="fill:#ffffff;stroke-width:0.170641"
         d="m 253.23072,230.07634 c -1.41022,-0.23606 -3.6235,-1.23507 -4.54651,-2.05215 l -0.53644,-0.47489 -0.092,-19.38086 -0.092,-19.38086 1.82297,-0.9531 1.82297,-0.95311 6.30209,0.50709 6.30208,0.50709 0.85357,0.71465 c 1.53105,1.28186 2.81347,3.35895 4.77296,7.73059 l 0.77326,1.72513 0.12222,5.21762 0.12223,5.21762 -1.22015,1.95464 c -0.67109,1.07505 -1.22016,2.01903 -1.22016,2.09773 0,0.0787 0.54707,1.834 1.21571,3.90066 l 1.2157,3.75756 -0.36163,4.84817 c -0.19889,2.66649 -0.40255,4.88909 -0.45256,4.9391 -0.11815,0.11815 -3.16346,-0.36541 -5.92589,-0.94095 l -2.17567,-0.45329 v -6.2031 -6.2031 l -0.95829,-1.49155 c -0.52705,-0.82035 -0.9903,-1.52606 -1.02943,-1.56824 -0.0391,-0.0422 -0.87492,0.72433 -1.85729,1.70336 l -1.78613,1.78005 v 6.67837 6.67837 l -0.6399,0.10576 c -0.68127,0.11261 -1.73054,0.109 -2.43163,-0.008 z m 0.68256,-9.16029 v -6.88922 l 0.78057,-0.7195 c 1.25755,-1.15917 2.07461,-1.44531 4.14504,-1.4516 l 1.76875,-0.005 1.01368,1.21985 1.01368,1.21985 0.32315,6.45898 c 0.17773,3.55244 0.32702,6.47818 0.33176,6.50164 0.005,0.0235 0.90352,0.0427 1.99731,0.0427 h 1.9887 l -0.11261,-2.17567 c -0.27105,-5.23687 -0.32786,-12.76822 -0.12658,-16.78245 0.11482,-2.29003 0.22296,-6.80858 0.2403,-10.04122 l 0.0315,-5.87753 -2.36114,-1.92928 -2.36114,-1.92928 h -6.35 -6.35001 l -0.2231,9.93982 c -0.4856,21.63419 -0.45843,26.4688 0.16111,28.66763 l 0.1803,0.6399 h 1.95434 1.95435 z"
         id="path3391"
         transform="translate(9.1702479,-119.69587)" />
      <path
         style="fill:#ffffff;stroke-width:0.170641"
         d="m 255.97651,207.4846 c -0.41379,-0.0812 -0.91978,-0.30498 -1.12442,-0.49723 -0.72276,-0.67899 -0.81154,-1.34976 -0.89358,-6.75117 l -0.0779,-5.12982 0.96453,-0.88152 c 1.18395,-1.08207 2.14065,-1.40093 4.20332,-1.40093 h 1.48977 l 1.63611,1.82338 1.63612,1.82338 -0.005,3.93574 -0.005,3.93574 -1.82967,1.65667 -1.82968,1.65667 -1.7064,-0.0116 c -0.93853,-0.006 -2.04496,-0.0781 -2.45875,-0.15929 z m 4.34966,-1.88679 c 0.67411,-0.67942 2.97234,-4.36964 2.97234,-4.77262 0,-0.0941 -0.43644,-1.42037 -0.96988,-2.94729 l -0.96989,-2.77623 -2.12321,-0.29254 c -1.16777,-0.1609 -2.14625,-0.2695 -2.17442,-0.24134 -0.0282,0.0282 -0.28403,2.43089 -0.56859,5.3394 l -0.51739,5.28819 0.37686,0.29613 c 0.86852,0.68248 1.73154,1.00364 2.48913,0.92629 0.60387,-0.0616 0.88866,-0.2189 1.48505,-0.81999 z"
         id="path3393"
         transform="translate(9.1702479,-119.69587)" />
    </g>
  </g>
</svg>
