<?xml version="1.0" encoding="UTF-8" standalone="no"?>
<!-- Created with Inkscape (http://www.inkscape.org/) -->

<svg
   version="1.1"
   id="svg2"
   width="300"
   height="237.33333"
   viewBox="0 0 300 237.33333"
   sodipodi:docname="ayuntamiento.svg"
   inkscape:version="1.2 (dc2aedaf03, 2022-05-15)"
   xmlns:inkscape="http://www.inkscape.org/namespaces/inkscape"
   xmlns:sodipodi="http://sodipodi.sourceforge.net/DTD/sodipodi-0.dtd"
   xmlns="http://www.w3.org/2000/svg"
   xmlns:svg="http://www.w3.org/2000/svg">
  <defs
     id="defs6" />
  <sodipodi:namedview
     id="namedview4"
     pagecolor="#ffffff"
     bordercolor="#000000"
     borderopacity="0.25"
     inkscape:showpageshadow="2"
     inkscape:pageopacity="0.0"
     inkscape:pagecheckerboard="0"
     inkscape:deskcolor="#d1d1d1"
     showgrid="false"
     inkscape:zoom="2.4699082"
     inkscape:cx="123.0815"
     inkscape:cy="153.85188"
     inkscape:window-width="1680"
     inkscape:window-height="979"
     inkscape:window-x="-8"
     inkscape:window-y="-8"
     inkscape:window-maximized="1"
     inkscape:current-layer="g8" />
  <g
     inkscape:groupmode="layer"
     inkscape:label="Image"
     id="g8">
    <path
       id="rect2815"
       style="fill:#1a96d0;fill-opacity:1"
       d="m 22.902344,105.92773 c -4.123486,0 -7.44336,3.3202 -7.44336,7.44336 v 100.77344 c 0,4.1237 3.319874,7.44336 7.44336,7.44336 h 15.667968 c -8.304827,-2.70255 -7.161243,-12.00632 3.517579,-11.45898 1.009082,0.0517 2.018341,0.0986 3.027343,0.15039 1.221983,-1.14706 1.489793,-2.02856 -0.566406,-2.35547 -0.363346,-0.0249 -0.726325,-0.0558 -1.089844,-0.0781 0.01746,-0.0118 0.01952,-0.0146 0.03516,-0.0254 -0.177927,-0.0104 -0.347615,-0.024 -0.546875,-0.0293 -0.162128,0.0408 -0.281757,0.0572 -0.25586,-0.008 0.02226,-0.0556 0.119839,0.003 0.179688,0.004 0.02817,6.4e-4 0.04842,0.003 0.07617,0.004 0.425579,-0.10715 1.156679,-0.39241 0.546875,0.0293 0.399583,0.0233 0.756724,0.0562 1.054687,0.10352 0.750104,0.0513 1.500542,0.1 2.25,0.16015 1.324882,-0.0142 2.650528,-0.0354 3.97461,-0.0859 2.147152,-0.081 4.29241,-0.19745 6.439453,-0.28125 1.508727,-0.0429 3.018098,-0.0565 4.527343,-0.0684 1.598091,-0.83531 3.75839,-1.29817 6.501954,-1.08203 2.315335,0.18241 4.638443,-0.0296 6.949218,-0.17969 2.83755,-0.20091 5.679161,-0.33318 8.521485,-0.43945 -0.921446,-1.48201 -1.523438,-3.52885 -1.523438,-6.18165 v -2.14453 -4.21679 c 0,-2.09385 0.368331,-3.82297 0.976563,-5.1875 -0.03475,-0.44944 -0.102203,-0.8959 -0.13086,-1.34571 -0.234749,-3.23737 -0.509991,-6.47237 -0.705078,-9.71289 -0.248679,-3.53555 -0.454821,-7.07478 -0.820312,-10.60156 -0.220267,-2.99874 -0.417467,-5.99967 -0.498047,-9.00586 -0.06614,-2.72602 -0.02867,-5.45302 -0.03906,-8.17969 -9e-4,-2.55727 3.94e-4,-5.11425 -0.0059,-7.67187 -0.005,-2.19384 -0.009,-4.38836 -0.03906,-6.58203 -0.03048,-1.8114 -0.07178,-3.62303 -0.18164,-5.43164 -0.09275,-1.30176 -0.21146,-2.60214 -0.484375,-3.88086 -0.803344,-3.76369 -0.110099,-6.49158 1.279297,-8.08594 0.05487,-1.34115 0.108079,-2.68302 0.255859,-4.01758 0.469339,-4.23813 2.269573,-6.78437 4.345703,-7.77344 z m 67.328125,0 c 2.335911,1.13856 4.111067,4.30303 3.61914,9.28125 -0.124002,1.25492 -0.174203,2.51573 -0.220703,3.7754 -0.02663,0.76991 -0.04173,1.53998 -0.05664,2.31054 -0.03752,1.93939 -0.407385,3.52479 -0.962891,4.82813 0.108134,0.89067 0.183764,1.78577 0.25,2.67968 0.129131,2.03372 0.178131,4.07028 0.212891,6.10743 0.03136,2.25263 0.0358,4.5066 0.04102,6.75976 0.0049,2.56551 0.005,5.13175 0.0059,7.69727 0.01827,2.62409 -0.03612,5.24967 0.03516,7.87304 0.07714,2.81154 0.261021,5.61965 0.46875,8.42383 0.368664,3.53968 0.57352,7.09172 0.824219,10.64063 0.194286,3.23185 0.466695,6.45815 0.701172,9.6875 0.126465,2.00989 0.321028,4.0156 0.585937,6.01172 0.222581,1.68572 0.377237,3.37906 0.482422,5.07617 0.0582,1.36482 0.198947,2.75417 -0.105469,4.10351 -0.109861,0.48708 -0.290414,0.95584 -0.435547,1.4336 -0.618801,1.32431 -1.470498,2.41507 -2.628906,3.23242 0.944753,0.0265 1.889826,0.0405 2.833984,0.0879 0.536094,0.0286 1.071382,0.0701 1.607422,0.0996 -0.697096,-1.49478 -1.084433,-3.43599 -0.929687,-5.85938 0.05867,-0.91839 0.118162,-1.83649 0.195312,-2.7539 0.185474,-2.33507 0.328523,-4.67152 0.382813,-7.01367 0.07711,-2.62248 0.01118,-5.2478 0.03516,-7.8711 0.0025,-3.9092 0.0065,-7.81932 0.01367,-11.72851 0.0097,-5.00539 0.02514,-10.01025 0.03906,-15.01563 0.0082,-5.1211 0.05926,-10.25033 -0.232421,-15.36523 -0.270513,-4.29645 -0.719965,-8.5768 -1,-12.8711 -0.06023,-2.52897 -0.03151,-5.05798 -0.03711,-7.58789 v -5.44531 c 0,-4.72768 1.879484,-7.58799 4.158202,-8.59766 z m 13.710941,0 c 2.27904,1.00967 4.16015,3.86998 4.16015,8.59766 v 5.44531 c 0.0123,2.42841 -0.0313,4.85742 0.0332,7.28516 0.31051,4.13747 0.71793,8.266 0.98046,12.4082 0.31374,5.37655 0.26291,10.76739 0.25391,16.15039 -0.0139,5.00677 -0.0271,10.01309 -0.0371,15.01953 -0.007,3.90427 -0.0107,7.80862 -0.0137,11.7129 -0.0143,2.73153 0.0315,5.46416 -0.0391,8.19531 -0.0615,2.55182 -0.21595,5.09827 -0.41797,7.64258 -0.0721,0.85389 -0.12734,1.70896 -0.18164,2.56445 -0.15499,2.44146 -0.79401,4.32557 -1.68555,5.72266 3.45424,0.33677 6.91655,0.55941 10.38477,0.69726 5.09454,0.19519 10.18422,0.50066 15.27734,0.72656 2.71926,0.11187 5.44103,0.13695 8.16211,0.18946 -0.0983,-1.1674 -0.17227,-2.33617 -0.2168,-3.50586 -2.63241,0.11293 -4.95435,-1.87697 -5.29101,-5.39063 -3.02684,-0.6962 -5.36885,-4.08842 -3.82617,-9.66797 0.0749,-0.27106 0.0321,-0.0868 0.0742,-0.5664 0.1115,-1.34076 -0.0314,-2.69755 0.0254,-4.04102 v -5.39258 -5.64258 -4.92968 c 0,-6.01206 3.03572,-9.01953 6.07227,-9.01953 0.89425,0 1.78668,0.26747 2.60352,0.78906 0.60129,-0.25719 1.22347,-0.41797 1.85156,-0.41797 3.03655,0 6.07226,3.00552 6.07226,9.01758 v 4.25976 c 0.0807,1.28184 0.18832,2.56143 0.25782,3.84375 0.0685,1.16639 0.2572,2.30703 0.48828,3.44922 0.36092,1.6183 0.54865,3.26347 0.67773,4.91407 0.19253,1.95084 0.0652,3.89958 -0.21094,5.83398 -0.0579,0.3037 -0.15619,0.59733 -0.2246,0.89844 1.03688,0.63193 1.95159,1.6782 2.58789,3.13672 0.1206,-0.587 0.44375,-0.91661 0.91015,-1.0586 -1.5491,-1.39547 -2.70097,-3.84786 -2.82617,-7.38476 -0.0517,-1.46094 -0.041,-0.74922 -0.041,-2.13086 v -5.57032 c 0,-4.50064 1.70204,-7.31609 3.83204,-8.44726 -0.28518,-1.37925 -0.53504,-2.76572 -0.5918,-4.17383 -0.24225,-6.00688 2.25813,-8.96415 5.08789,-8.94141 0.54856,0.004 1.10846,0.15493 1.66406,0.38282 0.82314,-0.54372 1.73973,-0.82304 2.66992,-0.81055 2.84499,0.0382 5.78768,2.72344 6.36524,8.33008 0.17519,1.70062 0.24077,3.40927 0.29687,5.11719 0.0994,2.04492 0.0658,4.08743 -0.10742,6.12695 -0.24517,1.90363 -0.71354,3.7665 -0.98633,5.66601 -0.014,0.10236 -0.0287,0.20464 -0.043,0.30664 0.15871,1.58589 0.26305,3.17731 0.32422,4.76954 0.0852,2.15983 0.11189,4.31595 -0.043,6.47265 -0.19488,2.03528 -0.43725,4.13512 -1.3125,6.01172 -0.21342,0.45759 -0.48325,0.88675 -0.7246,1.33008 -0.39334,0.47254 -0.73884,0.98979 -1.18165,1.41601 -0.22619,0.21792 -0.48614,0.37733 -0.73242,0.56055 -0.18916,1.55917 -0.3463,3.12189 -0.55469,4.67774 0.82549,7e-4 1.65091,0.003 2.47657,0.004 2.51116,0.001 5.024,0.002 7.53515,0.002 2.56154,2.1e-4 5.12206,-3e-5 7.6836,0 2.77415,2e-5 5.54811,0 8.32226,0 2.3427,1e-5 4.6866,0 7.0293,0 h 7.2168 7.6875 c 3.01527,-0.0431 6.026,0.0367 9.03906,0.14062 2.87236,0.10208 5.74736,0.15937 8.62109,0.20117 2.55736,0.10176 5.11167,0.24227 7.66993,0.32227 2.36742,0.0688 4.73722,0.097 7.10546,0.11719 1.95144,0.0151 3.90204,0.0194 5.85352,0.0234 1.50839,0.003 3.017,0.003 4.52539,0.004 1.38387,-0.0164 2.76068,0.14411 4.13867,0.25 0.63982,0.0437 0.32661,0.0222 0.94531,0.0586 10.83292,0.63709 11.26796,10.555 2.4336,11.96094 h 18.51367 c 4.1237,0 7.44336,-3.31966 7.44336,-7.44336 V 113.37109 c 0,-4.12316 -3.31966,-7.44336 -7.44336,-7.44336 z m 100.76562,2.12891 c 2.29472,0.0781 4.27589,1.8093 4.8125,4.80078 1.04491,-2.47778 2.89759,-3.81317 4.82031,-3.78906 2.52956,0.0317 5.1684,2.39947 6.20508,7.55664 0.45857,2.28133 0.57275,4.61673 0.69727,6.93555 0.12305,2.56869 0.15634,5.14151 0.18164,7.71289 0.0524,3.67121 -0.13294,7.34025 -0.38086,11.00195 -0.23979,4.15451 -0.64771,8.29575 -1.11914,12.42969 -0.0447,0.41461 -0.0854,0.82962 -0.13086,1.24414 2.40461,0.90183 4.45869,3.80411 4.50781,8.71094 0.0231,2.30844 -0.0166,4.6144 -0.0879,6.92187 -0.12596,3.47414 -0.61161,6.92108 -1.05273,10.36524 -0.31205,2.40132 -0.52749,4.81269 -0.68946,7.22851 -0.0582,1.035 -0.10246,2.06892 -0.19336,3.10156 -0.38796,4.4061 -2.33938,7.01718 -4.57226,7.97266 -1.50036,4.79441 -7.10579,5.56783 -10.35156,0.43164 -1.16987,1.1033 -2.54194,1.63652 -3.88086,1.55664 -1.78982,6.14886 -9.64452,6.02099 -11.85157,-3.24414 l -0.0996,-0.41797 c -0.34302,-1.38881 -0.5796,-2.79971 -0.91992,-4.18945 -0.51563,-2.26528 -1.0199,-4.53923 -1.33789,-6.8418 -0.3132,-2.65319 -0.55602,-5.31512 -0.51562,-7.99023 0.0542,-2.81346 0.13031,-5.62887 0.34375,-8.43555 0.26618,-3.30395 0.63231,-6.59789 1.05859,-9.88476 0.4225,-3.05626 0.85746,-6.10942 1.27734,-9.16602 0.43474,-3.08318 0.69321,-6.18235 0.89649,-9.28906 0.20172,-3.1037 0.48116,-6.20242 0.74805,-9.30078 0.19424,-2.09558 0.38605,-4.19329 0.49804,-6.29493 0.0297,-1.905 0.0686,-3.81082 0.18946,-5.71289 0.12512,-1.69698 0.29904,-3.39197 0.65429,-5.05859 1.09669,-5.14496 3.95087,-7.54087 6.61914,-7.62109 0.23467,-0.007 0.46094,0.0477 0.69141,0.0762 0.98515,-0.57866 2.00879,-0.84371 2.98242,-0.81055 z m 62.50977,9.56055 c 3.03643,0 6.07226,3.00747 6.07226,9.01953 v 5.33398 0.96289 c 0,5.20407 -2.27639,8.15412 -4.85742,8.85352 v 4.06836 3.95508 c 2.07911,1.38172 3.67997,4.43106 3.51172,9.03515 -0.13174,3.60495 -0.0437,7.21408 -0.01,10.82032 0.0484,4.26988 0.0829,8.54046 0.10743,12.81054 0.003,0.54143 0.005,1.08357 0.008,1.625 0.0445,8.77084 -6.3873,11.13948 -9.90235,7.12891 -3.28986,2.2721 -8.32025,0.076 -9.27734,-7.3457 -0.0468,-0.36329 -0.0937,-0.72656 -0.14062,-1.08985 -0.29113,-2.0462 -0.61024,-4.08985 -0.8379,-6.14453 -0.38199,-3.44874 0.34805,-5.99062 1.61133,-7.57812 0.0101,-0.77656 0.0719,-1.59498 0.23047,-2.48243 0.15508,-0.86793 0.31692,-1.73538 0.48242,-2.60156 -0.0921,-0.88173 -0.1981,-1.76212 -0.34765,-2.63672 -0.79529,-4.65071 0.31282,-8.02526 2.14648,-9.71094 -0.0794,-0.60499 -0.13281,-1.23866 -0.13281,-1.92968 v -6.77539 c 0,-0.44221 0.0427,-0.84114 0.0781,-1.2461 -1.6806,-1.38966 -2.91406,-3.99863 -2.91406,-7.83007 v -0.98633 -5.35743 c 0,-6.01195 3.03767,-9.01757 6.07422,-9.01757 1.32222,0 2.64359,0.57123 3.71484,1.71093 1.15907,-1.70935 2.76381,-2.59179 4.38282,-2.59179 z m -223.662112,0.5039 c 1.455796,0.0267 3.054228,2.06431 3.925781,5.54297 0.526297,-0.81674 1.223458,-1.5274 2.035156,-2.0332 0.404897,-0.25229 0.859412,-0.4157 1.289063,-0.62305 0.562748,-0.0939 1.119554,-0.30895 1.689453,-0.28125 0.674633,0.0328 1.354901,0.18578 1.972656,0.45899 1.245891,0.55104 1.957656,1.71736 2.695312,2.77343 0.213758,0.31762 0.421106,0.63871 0.636719,0.95508 0.107563,0.15783 0.18788,0.27236 0.275391,0.39649 0.100149,-0.011 0.201701,-0.0288 0.302734,-0.0449 -0.02958,-0.32761 -0.05581,-0.6566 -0.08984,-0.98437 -0.388686,-3.74393 1.441119,-5.68361 3.351563,-5.62109 1.685675,0.0552 3.433696,1.66951 3.77539,4.97265 0.279163,2.69867 0.409156,5.40952 0.511719,8.11914 0.117729,3.30925 0.06419,6.61915 -0.03516,9.92774 -0.06326,1.44963 -0.03027,0.7524 -0.09961,2.08789 -0.104602,2.01449 -0.760907,3.42171 -1.634766,4.24609 0.66956,1.96577 0.946422,4.03114 1.175781,6.08594 0.370769,2.9365 0.208666,5.62844 -0.652343,8.45898 -0.87953,2.23363 -2.761149,4.67999 -5.5,4.27149 -0.06021,0.0741 -0.13511,0.12987 -0.199219,0.19922 1.419796,-0.0171 3.059839,1.09466 4.173828,3.68554 0.72063,1.67629 1.008942,3.49466 1.275391,5.28711 0.369534,2.72825 0.300872,5.48591 0.189453,8.22852 -0.01889,0.37345 -0.03775,0.74569 -0.05664,1.11914 -0.242125,4.78754 -3.592049,6.16542 -5.623047,4.36719 -0.998344,0.98692 -2.311552,1.20277 -3.427734,0.60156 -1.554147,4.54838 -6.965815,3.56854 -6.746094,-2.60742 0.05141,-1.44521 0.108992,-2.89008 0.138672,-4.33594 0.02414,-2.82127 0.02089,-5.64579 -0.193359,-8.46094 -0.150189,-1.38531 -0.225742,-2.84965 -0.876954,-4.11133 -2.030986,-3.93467 -0.320959,-6.64555 2.058594,-6.59765 0.353217,0.007 0.721163,0.0754 1.09375,0.20898 -0.02425,-0.0849 -0.07127,-0.16872 -0.08984,-0.2539 -0.695361,-0.16235 -1.359764,-0.4501 -1.953125,-0.89844 -0.580417,-0.4386 -0.950336,-1.10213 -1.425781,-1.65234 -0.07176,-0.22554 -0.153407,-0.44848 -0.234375,-0.67188 -0.08284,0.13324 -0.167913,0.26662 -0.255859,0.39258 -0.544716,0.78016 -1.189439,1.34841 -1.919922,1.68945 -0.145486,0.62841 -0.324169,1.20417 -0.605469,1.49609 -0.507851,0.52798 -1.003719,0.92845 -1.488281,1.22266 0.0093,0.0287 0.01253,0.065 0.02148,0.0937 1.68653,0.18364 3.30268,1.945 3.34375,5.29297 0.02073,1.6898 0.06336,3.38022 0.06836,5.07031 0.03594,2.20805 -0.236408,4.39804 -0.507813,6.58399 -0.14193,1.13393 -0.257958,2.2716 -0.330078,3.41211 -0.02225,0.37609 -0.03652,0.75245 -0.05078,1.1289 -0.147066,3.88174 -2.364532,5.54849 -4.292969,5.09961 -1.149308,2.63834 -3.604953,3.14791 -5.167969,1.625 -2.147724,2.68475 -6.19893,1.16059 -5.875,-4.21875 0.05231,-0.86868 0.0256,-0.42039 0.08008,-1.3457 0.08752,-1.58951 0.154148,-3.17868 0.03906,-4.76953 -0.104717,-2.29372 -0.24457,-4.58558 -0.3125,-6.88086 -0.0551,-2.05711 -0.07292,-4.11574 0.0293,-6.17188 0.164903,-3.31671 1.807653,-4.95956 3.476562,-5.03906 0.306526,-0.0146 0.612796,0.029 0.91211,0.11914 -0.02823,-0.0641 -0.07874,-0.11596 -0.103516,-0.18164 -0.186294,-0.28437 -0.380664,-0.565 -0.537109,-0.86133 -1.013926,-2.35933 -1.837842,-4.79617 -2.480469,-7.2832 -0.576015,-2.80743 -1.206029,-5.71297 -0.105469,-8.47852 0.236315,-0.38364 0.431923,-0.797 0.708985,-1.15234 0.711376,-0.91241 1.652435,-1.45331 2.675781,-1.69336 -1.339156,-0.53441 -2.514647,-2.11778 -2.72461,-4.82031 -0.217853,-2.80463 -0.427756,-5.60846 -0.658203,-8.41211 -0.246341,-3.01748 -0.561788,-6.0322 -0.732422,-9.05469 -0.199638,-3.53701 1.459831,-5.30368 3.234375,-5.30273 1.069473,5.7e-4 2.178674,0.64768 2.949219,1.93164 0.585305,-0.60793 1.299362,-0.92994 2.035156,-0.92969 0.865785,2.9e-4 1.748318,0.42571 2.447266,1.26758 0.58736,-1.81087 1.458635,-2.66374 2.398438,-2.64649 z m 165.207032,1.44336 c -0.25727,1.06514 -0.45005,2.1433 -0.58203,3.23243 -0.29509,2.39592 -0.26668,4.80654 -0.23828,7.21484 0.0827,4.04802 0.41188,8.08294 0.80078,12.11133 0.0235,0.26991 0.0575,0.53879 0.082,0.80859 0.0331,-0.49358 0.0713,-0.98651 0.0996,-1.48047 0.22966,-3.34681 0.40277,-6.7027 0.35547,-10.05859 -0.0234,-2.39578 -0.0539,-4.79195 -0.16602,-7.18555 -0.0815,-1.54757 -0.18072,-3.09464 -0.35156,-4.63476 -3e-4,-0.003 2.9e-4,-0.005 0,-0.008 z m 36.07812,1.65625 c 2.78613,0.004 5.62213,2.66187 6.16993,8.27149 0.14286,1.46295 0.18592,2.93126 0.41601,4.38476 0.10797,1.03605 0.56314,1.97835 0.90039,2.95313 0.68196,2.15756 0.85417,4.42562 0.91797,6.67383 -0.065,2.52761 -0.3207,5.04637 -0.5957,7.55859 -0.38756,2.70385 -0.69287,5.41641 -0.88672,8.14062 -0.18391,3.11113 -0.22713,6.22817 -0.26953,9.34376 -0.0181,2.48581 0.14509,4.9645 0.33203,7.4414 0.14281,1.84601 0.38361,3.68172 0.5332,5.52734 0.16191,1.37276 0.33892,2.74307 0.4707,4.11915 0.96423,10.05309 -7.4046,12.43901 -10.7832,5.86328 -3.46202,0.65754 -7.14325,-2.60585 -6.56054,-9.42188 0.10135,-1.18637 0.16882,-2.37347 0.23242,-3.5625 0.10779,-1.90027 0.12104,-3.80809 0.33593,-5.70117 0.0177,-0.1555 0.0433,-0.30021 0.0645,-0.45117 -0.0489,-0.50135 -0.0762,-1.02607 -0.0762,-1.57813 v -5.68359 c 0,-1.71867 0.24833,-3.19067 0.67382,-4.41797 -1.28714,-1.61049 -2.03709,-4.18117 -1.6582,-7.65039 0.25733,-2.35616 0.11405,-1.1625 0.43359,-3.58398 0.23402,-1.41882 0.49294,-2.83435 0.8086,-4.23633 -0.70603,-1.39448 -1.16437,-3.18966 -1.19727,-5.42774 -0.0261,-1.77271 -0.0595,-3.54857 0.13282,-5.31445 0.43919,-4.03415 2.08942,-6.55734 4.03906,-7.66797 0.8588,-3.66066 3.19402,-5.58322 5.5664,-5.58008 z m -100.20117,4.32032 c 0.47816,0.004 0.95703,0.0141 1.43555,0.0332 2.10767,0.0478 4.21583,0.11574 6.31836,0.27734 2.48936,0.19607 4.97089,0.45944 7.45312,0.72656 2.43442,0.14173 4.871,0.0463 7.30664,-0.0234 1.69376,-0.0624 3.38427,-0.19348 5.07813,-0.23438 8.73008,-0.21064 11.11064,6.03306 7.16015,9.6543 1.72356,3.53474 -1.09221,8.1446 -8.49609,8.16406 -0.20369,0.001 -0.40567,-2e-4 -0.60937,0.002 -1.40637,0.005 -2.81442,0.0123 -4.22071,0.0293 -1.97969,0.0252 -3.95859,0.0615 -5.9375,0.13477 -2.7455,0.10131 -5.49192,0.24061 -8.24023,0.22461 -2.10247,-0.006 -4.20642,-0.0102 -6.3086,-0.0488 -1.90368,-0.0413 -3.80659,-0.10243 -5.70703,-0.23047 -1.89141,-0.1317 -3.78132,-0.30509 -5.67382,-0.41992 -1.48638,-0.13413 -2.9635,-0.32864 -4.44141,-0.53125 -7.33149,-1.00511 -9.4692,-5.94476 -7.27539,-9.2168 -1.1523,-3.31314 1.51721,-7.42033 8.32422,-7.88867 0.55085,-0.0379 1.10245,-0.0786 1.65234,-0.12891 1.34697,-0.11814 2.69387,-0.21003 4.04688,-0.20703 1.27889,-0.0396 2.55739,-0.0947 3.83398,-0.1875 1.43307,-0.0873 2.8663,-0.14018 4.30078,-0.1289 z m -94.236326,1.3125 c 0.06131,0.0577 0.11548,0.12365 0.171875,0.1875 -0.0023,-0.003 -0.0056,-0.009 -0.0078,-0.0117 -0.0498,-0.0631 -0.222602,-0.23088 -0.164062,-0.17578 z m -2.972656,3.43554 c -0.01387,0.74365 -0.02824,1.48696 -0.04102,2.23047 -0.05033,3.45731 -0.07501,6.91398 -0.09961,10.37109 -0.0095,1.32847 -0.2689,2.40699 -0.683593,3.23438 -0.01111,0.44339 -0.05173,0.91215 -0.144531,1.41992 -0.304784,1.6676 -0.732542,3.30929 -0.978516,4.98828 -0.06128,0.41827 -0.102527,0.84022 -0.154297,1.25977 -0.0034,0.0763 -0.0094,0.15222 -0.01367,0.22851 0.0055,-5e-5 0.0121,-0.002 0.01758,-0.002 0.606065,-0.001 1.071253,0.24889 1.544922,0.80469 0.226391,0.26562 0.321994,0.55571 0.373047,0.85742 0.329982,-1.42505 0.825157,-2.80824 1.414062,-4.14648 0.300047,-0.58747 0.577811,-1.18632 0.900391,-1.76172 0.606456,-1.08176 1.223567,-2.01938 2.007813,-2.97461 0.28093,-0.34223 0.659253,-0.73839 1.050781,-1.11133 -0.157126,-0.4915 -0.310044,-0.98452 -0.464844,-1.47656 -0.541737,-1.99939 -1.108775,-4.02314 -1.542969,-6.06641 -0.768787,-0.18157 -1.498227,-0.43963 -2.107422,-0.92578 -0.808062,-0.6449 -0.514916,-2.01622 -0.566406,-3.04883 -0.03329,-0.66769 0.169806,-1.32779 0.314453,-1.98047 0.04422,-0.19945 0.103027,-0.40897 0.160157,-0.61718 -0.37477,-0.38794 -0.705841,-0.81741 -0.986328,-1.28321 z m 2.398437,2.56641 c -0.149475,0.19857 -0.305693,0.39303 -0.4375,0.60351 -0.111333,0.1778 0.282786,-0.31472 0.384766,-0.49804 0.01909,-0.0343 0.03454,-0.0707 0.05273,-0.10547 z m -12.683594,13 c -0.126613,0.08 -0.257621,0.14481 -0.390625,0.20312 0.212731,0.0364 0.425361,0.0404 0.636719,0.0977 -0.08836,-0.0848 -0.161116,-0.20377 -0.244141,-0.30078 z m 1.660157,1.10351 c 0.137828,0.10375 0.288664,0.20112 0.414062,0.31055 0.0175,-0.082 0.03518,-0.16404 0.05273,-0.24609 -0.156038,-0.0101 -0.312785,-0.0274 -0.466796,-0.0645 z m 15.269531,20.35743 c 0.05383,0.094 0.107772,0.1865 0.160156,0.28515 0.0195,0.0367 0.02986,0.0764 0.04883,0.11328 0.07693,-0.0901 0.156156,-0.17271 0.238281,-0.25195 -0.02607,-0.0198 -0.05862,-0.0343 -0.08398,-0.0547 -0.121108,-0.0305 -0.242131,-0.0614 -0.363281,-0.0918 z" />
    <rect
       style="fill:#1a96d0;fill-opacity:1"
       id="rect3289"
       width="58.706638"
       height="15.790061"
       x="6.8828468"
       y="86.238022"
       ry="7.4435048" />
    <rect
       style="fill:#1a96d0;fill-opacity:1"
       id="rect3292"
       width="157.49574"
       height="13.765694"
       x="73.686951"
       y="91.90625"
       ry="6.8828468" />
    <rect
       style="fill:#1a96d0;fill-opacity:1"
       id="rect3294"
       width="57.492016"
       height="15.385187"
       x="240.0899"
       y="86.642899"
       ry="6.8828468" />
    <rect
       style="fill:#1a96d0;fill-opacity:1"
       id="rect3296"
       width="97.979355"
       height="11.336454"
       x="101.62321"
       y="35.223984"
       ry="5.6682272" />
    <rect
       style="fill:#1a96d0;fill-opacity:1"
       id="rect3298"
       width="81.379547"
       height="8.9072142"
       x="111.34017"
       y="29.150881"
       ry="4.4536071" />
    <rect
       style="fill:#1a96d0;fill-opacity:1"
       id="rect3300"
       width="55.062775"
       height="8.5023403"
       x="123.48637"
       y="21.863161"
       ry="4.2511702" />
    <rect
       style="fill:#1a96d0;fill-opacity:1"
       id="rect3302"
       width="31.984995"
       height="8.5023403"
       x="136.8472"
       y="16.194935"
       ry="4.2511702" />
    <path
       style="fill:#333333;stroke-width:1.33333"
       d="m 0.76075532,227.41937 v -10 l 3.66666678,-0.0204 c 7.3000829,-0.0407 7.0575179,1.99468 6.6820039,-56.06776 L 10.760755,107.41938 5.7607551,107.00556 0.76075532,106.59174 V 94.03207 81.47241 L 29.094089,81.11256 57.427423,80.75271 57.758191,67.41938 c 0.490828,-19.78544 0.271184,-19.33334 9.392692,-19.33334 7.427528,0 8.849068,-0.66025 44.495577,-20.666661 20.2526,-11.36667 37.93848,-20.6544405 39.30194,-20.6395005 1.36347,0.0149 18.97122,9.3149405 39.12837,20.6666605 35.48049,19.981261 36.89358,20.639501 44.30792,20.639501 9.10532,0 8.8879,-0.44819 9.37862,19.33334 l 0.33078,13.33333 27.66666,0.36038 27.66667,0.36039 v 12.55514 12.55514 l -4.33333,0.41781 -4.33334,0.41781 -0.34866,53.91181 c -0.37094,57.35287 -0.51358,56.02332 6.01533,56.06776 2.84263,0.0193 3,0.54499 3,10.02042 v 10 H 150.0941 0.76075532 Z m 292.66666468,0 c 0,-2.64784 -1.00203,-2.66907 -141.92723,-3.0061 -87.002494,-0.20806 -142.4109128,0.14424 -143.1770519,0.91038 -0.687391,0.6874 -0.887922,2.19285 -0.445623,3.34546 0.725325,1.89016 14.7648709,2.06239 143.1770449,1.7563 141.37085,-0.33699 142.37286,-0.35815 142.37286,-3.00604 z m -30.01409,-11.98303 c 0.90517,-1.09065 1.29746,-2.89065 0.87177,-4 -0.68244,-1.77841 -14.10993,-2.01697 -113.52434,-2.01697 -99.414418,0 -112.84191,0.23856 -113.524351,2.01697 -0.425694,1.10935 -0.0334,2.90935 0.871772,4 1.43252,1.72609 16.028903,1.98303 112.652579,1.98303 96.62366,0 111.22005,-0.25694 112.65257,-1.98303 z M 28.781173,211.08603 c 0.03632,-8.8929 0.126933,-8.92805 24.927887,-9.66666 l 22.385029,-0.66667 v -44 -43.99999 l -4,-0.41629 c -2.2,-0.22896 -4.676995,-1.29379 -5.504434,-2.3663 -1.235672,-1.60166 -5.523204,-1.88458 -24.000001,-1.58371 l -22.495565,0.3663 -0.348459,53.66666 -0.34846,53.66666 h 4.681793 c 4.517552,0 4.682508,-0.1754 4.70221,-5 z m -3.099718,-15.85708 c -0.506385,-0.50638 -0.9207,-17.90926 -0.9207,-38.67306 v -37.75237 l 3,-0.74149 c 1.65,-0.40783 11.7,-0.56926 22.333335,-0.35874 l 19.333333,0.38276 v 38.66665 38.66667 l -21.412634,0.36514 c -11.77695,0.20083 -21.82695,-0.0492 -22.333334,-0.55556 z m 16.500288,-7.18982 c 1.929714,-1.03276 2.573872,-2.7951 2.558595,-7 -0.02749,-7.5663 -1.329924,-9.23966 -6.786069,-8.71867 -4.476214,0.4274 -4.531435,0.51285 -4.937043,7.63937 -0.510937,8.97716 2.510219,11.64056 9.164517,8.0793 z m 19.075705,-0.3306 c 1.803927,-1.31906 2.243939,-3.22734 1.921507,-8.33334 L 62.760756,172.7527 H 57.427423 52.09409 l -0.410196,7.20713 c -0.417587,7.33698 0.706672,9.39542 5.155356,9.43912 1.143172,0.0107 3.131361,-0.74946 4.418198,-1.69042 z M 43.951437,163.31031 c 1.49521,-3.89645 0.827137,-12.2163 -1.110052,-13.82402 -1.055655,-0.87612 -3.605655,-1.39959 -5.666667,-1.16327 -3.468401,0.39771 -3.77804,0.91324 -4.160379,6.92693 -0.227196,3.5735 -0.09603,7.3235 0.291487,8.33334 1.005941,2.62144 9.619677,2.40057 10.645611,-0.27298 z m 19.219938,-4.99453 c 0.499048,-7.82316 -1.378347,-10.50955 -6.963719,-9.96451 -3.911898,0.38175 -4.133818,0.71996 -4.526649,6.89868 -0.585712,9.21247 0.145411,10.40718 6.069033,9.9172 4.977199,-0.41168 5.013463,-0.4575 5.421335,-6.85137 z M 44.094089,133.41937 v -7.33334 l -5.666667,-0.40999 -5.666667,-0.41 v 8.15333 8.15333 l 5.666667,-0.41 5.666667,-0.41 z m 18.666667,0 v -7.33334 l -5.666666,-0.40999 -5.666667,-0.41 v 8.15333 8.15333 l 5.666667,-0.41 5.666666,-0.41 z m 219.015114,29 -0.34845,-53.66666 -22.49556,-0.3663 c -18.4768,-0.30087 -22.76433,-0.0179 -24,1.58371 -0.82744,1.07251 -3.30444,2.13734 -5.50444,2.3663 l -4,0.41629 v 43.99999 44 l 22.38503,0.66667 c 24.80096,0.73861 24.89157,0.77376 24.92789,9.66666 0.0197,4.8246 0.18465,5 4.7022,5 h 4.6818 z m -49.73254,32.01517 c -0.36256,-0.94481 -0.49946,-18.50973 -0.30422,-39.03317 l 0.35498,-37.31532 19.33333,-0.38276 c 10.63333,-0.21052 20.69251,-0.0468 22.35373,0.36385 l 3.0204,0.74662 -0.35373,38.30279 -0.35373,38.30282 -21.69579,0.3665 c -16.73993,0.28278 -21.84636,-0.0259 -22.35497,-1.35133 z m 16.46096,-6.16179 c 1.17644,-0.74612 1.6101,-3.44992 1.33333,-8.31292 l -0.4102,-7.20713 h -5.33333 -5.33334 l -0.4182,6.62249 c -0.32242,5.106 0.1176,7.01428 1.92151,8.33334 2.67728,1.95768 5.71513,2.16569 8.24023,0.56422 z m 18.66666,0 c 1.17644,-0.74612 1.61011,-3.44992 1.33334,-8.31292 -0.40562,-7.12652 -0.46084,-7.21197 -4.93706,-7.63937 -5.45309,-0.52069 -6.75854,1.15283 -6.78606,8.69932 -0.0144,3.94237 0.67038,6.00277 2.31292,6.95945 2.84898,1.65939 5.75664,1.76506 8.07686,0.29352 z M 249.42742,156.7527 c 0,-7.77819 -0.10387,-8.01191 -3.74729,-8.42968 -5.52783,-0.63384 -7.58604,1.81815 -7.58604,9.03739 0,3.45465 0.42856,6.70973 0.95234,7.23353 0.52379,0.52379 3.07379,0.77379 5.66667,0.55555 l 4.71432,-0.39679 z m 18.66667,0 c 0,-7.77819 -0.10387,-8.01191 -3.7473,-8.42968 -5.19304,-0.59545 -7.58604,1.87048 -7.58604,7.81723 0,8.07082 1.01278,9.47501 6.50299,9.01616 l 4.83035,-0.40371 z m -18,-23.41 v -8.07666 l -5.66667,0.41 c -5.66487,0.40987 -5.6668,0.41184 -6.08412,6.2292 -0.59839,8.34146 0.18744,9.51413 6.37561,9.51413 h 5.37518 z m 18.66666,0 v -8.07666 l -5.66666,0.41 c -5.66487,0.40987 -5.6668,0.41184 -6.08412,6.2292 -0.59839,8.34146 0.18744,9.51413 6.37561,9.51413 h 5.37517 z M 91.111842,157.93069 c 0.313008,-39.36643 0.1166,-44.34993 -1.810951,-45.94966 -1.844881,-1.53111 -2.434256,-1.42204 -4.017753,0.74352 -1.494272,2.04354 -1.855716,10.8851 -1.855716,45.3941 0,23.57096 0.425309,43.28158 0.945132,43.80141 0.519823,0.51981 2.169823,0.76981 3.666667,0.55555 2.669034,-0.38206 2.728308,-1.24136 3.072621,-44.54492 z m 13.333868,-0.43922 c 0.35964,-45.57704 0.006,-49.02171 -4.640235,-45.1659 -1.329129,1.10309 -1.711389,11.16203 -1.711389,45.03484 0,23.98798 0.42074,44.03525 0.934979,44.54949 0.51425,0.51424 1.864255,0.7562 3.000015,0.53768 1.8069,-0.34764 2.10897,-5.96701 2.41663,-44.95611 z m 23.50573,43.15218 c 0.44513,-1.15998 0.80932,-11.65998 0.80932,-23.33334 v -21.22428 h 22 21.99999 l 0.0204,21.66667 c 0.0107,11.91667 0.51928,22.45329 1.129,23.41473 0.73379,1.15707 3.31887,1.60786 7.64626,1.33334 l 6.53768,-0.41474 0.35106,-45 0.35107,-44.99998 H 150.7785 112.76076 v 44.44442 c 0,24.44446 0.4,44.84446 0.88889,45.33334 0.48889,0.48889 3.7247,0.88889 7.19068,0.88889 4.51643,0 6.53109,-0.59752 7.11111,-2.10905 z m -6.91247,-52.35746 c -1.24719,-0.79125 -1.61472,-4.369 -1.33333,-12.97958 l 0.38846,-11.88723 h 30.66666 30.66666 l 0.38847,11.88723 c 0.28137,8.61058 -0.0861,12.18833 -1.33334,12.97958 -0.94698,0.60079 -14.32179,1.09234 -29.72179,1.09234 -15.4,0 -28.7748,-0.49155 -29.72179,-1.09234 z m 16.79961,-12.48856 c 0.35849,-4.32053 -0.012,-5.06131 -2.89455,-5.78474 -5.54732,-1.39229 -8.14619,-0.22683 -8.61603,3.86384 -0.71909,6.26077 0.52518,7.75061 6.08871,7.29042 4.73172,-0.39137 5.03361,-0.69036 5.42187,-5.36952 z m 18.25552,-0.37826 v -5.33334 h -5.33334 c -4.86604,0 -5.37125,0.33114 -5.76609,3.7793 -0.71836,6.27338 0.52308,7.76218 6.08871,7.30182 4.88788,-0.40429 5.01072,-0.54521 5.01072,-5.74778 z m 18.66665,0.0183 c 0,-5.76449 -1.8578,-7.01233 -8.10544,-5.44427 -2.60271,0.65324 -3.22788,1.66603 -3.22788,5.22919 0,5.64431 0.85721,6.4119 6.619,5.92694 4.5421,-0.3823 4.71432,-0.59096 4.71432,-5.71186 z m -27.99999,47.31507 v -19.33337 h -5.33333 -5.33333 l -0.37388,17.93273 c -0.20564,9.863 -0.0604,18.74951 0.32261,19.74779 0.45969,1.19796 2.40009,1.67416 5.70721,1.4006 l 5.01072,-0.41446 z m 18.66667,0 v -19.33337 h -5.33333 -5.33334 l -0.37388,17.93273 c -0.20564,9.863 -0.0604,18.74951 0.32262,19.74779 0.45969,1.19796 2.40009,1.67416 5.70721,1.4006 l 5.01072,-0.41446 z m 37.6851,-24.52569 c 0.35584,-44.32939 -0.0219,-48.28466 -4.44926,-46.58572 -1.59498,0.61205 -1.90252,7.89136 -1.90252,45.03184 0,24.36598 0.42075,44.72253 0.93499,45.23677 0.51424,0.51424 1.86424,0.7562 3,0.53769 1.80592,-0.34745 2.10915,-5.89568 2.41679,-44.22058 z m 14.66609,0.47162 c 0.28795,-35.57409 0.0137,-43.8488 -1.52239,-45.94966 -1.59253,-2.17791 -2.19524,-2.29532 -4.01786,-0.78267 -1.89019,1.56871 -2.14428,6.94794 -2.14428,45.39411 0,23.98798 0.4253,44.03982 0.94513,44.55965 0.51983,0.51981 2.16983,0.76981 3.66667,0.55555 2.66777,-0.38188 2.72846,-1.24659 3.07273,-43.77698 z m 7.83444,-56.61557 c 0.42275,-1.10164 0.39248,-3.50164 -0.0672,-5.33333 l -0.83591,-3.33035 H 150.76076 76.811561 l -0.835866,3.33035 c -1.938505,7.72362 -5.886624,7.33632 74.785065,7.33632 64.67118,0 74.18134,-0.25449 74.8523,-2.00299 z M 59.892198,96.41271 c 0.342185,-0.55367 -0.4802,-2.36802 -1.827522,-4.03189 -2.398314,-2.96179 -2.933878,-3.01756 -25.543466,-2.66 L 9.4274222,90.08604 9.0055262,93.75271 8.5836291,97.41938 H 33.926837 c 13.938764,0 25.623177,-0.453 25.965361,-1.00667 z m 232.623782,-2.66 -0.42189,-3.66667 -23.09379,-0.36522 c -22.60959,-0.35756 -23.14515,-0.30179 -25.54347,2.66 -1.34732,1.66387 -2.1697,3.47822 -1.82752,4.03189 0.34219,0.55367 12.0266,1.00667 25.96536,1.00667 h 25.3432 z m -57.35523,-9.93333 c 2.17062,-2.17062 2.17062,-25.29605 0,-27.46667 -2.31185,-2.31185 -166.48814,-2.31185 -168.799994,0 -2.170618,2.17062 -2.170618,25.29605 0,27.46667 2.311854,2.31185 166.488144,2.31185 168.799994,0 z m -38.4,-41.047751 c 0,-1.65854 -5.67224,-5.27645 -26.9549,-17.19257 -9.32519,-5.22116 -17.89549,-9.49302 -19.04509,-9.49302 -1.1496,0 -9.71989,4.27186 -19.04509,9.49302 -21.28266,11.91612 -26.95491,15.53403 -26.95491,17.19257 0,0.83826 16.6636,1.31441 46,1.31441 29.33639,0 45.99999,-0.47615 45.99999,-1.31441 z"
       id="path280"
       sodipodi:insensitive="true" />
  </g>
</svg>
