<?xml version="1.0" encoding="UTF-8" standalone="no"?>
<!-- Created with Inkscape (http://www.inkscape.org/) -->

<svg
   version="1.1"
   id="svg5079"
   width="1280"
   height="1280"
   viewBox="0 0 1280 1280"
   sodipodi:docname="dinero.svg"
   inkscape:version="1.2 (dc2aedaf03, 2022-05-15)"
   xmlns:inkscape="http://www.inkscape.org/namespaces/inkscape"
   xmlns:sodipodi="http://sodipodi.sourceforge.net/DTD/sodipodi-0.dtd"
   xmlns="http://www.w3.org/2000/svg"
   xmlns:svg="http://www.w3.org/2000/svg">
  <defs
     id="defs5083" />
  <sodipodi:namedview
     id="namedview5081"
     pagecolor="#ffffff"
     bordercolor="#000000"
     borderopacity="0.25"
     inkscape:showpageshadow="2"
     inkscape:pageopacity="0.0"
     inkscape:pagecheckerboard="0"
     inkscape:deskcolor="#d1d1d1"
     showgrid="false"
     inkscape:zoom="0.6296875"
     inkscape:cx="640"
     inkscape:cy="385.90571"
     inkscape:window-width="1920"
     inkscape:window-height="1009"
     inkscape:window-x="1672"
     inkscape:window-y="-8"
     inkscape:window-maximized="1"
     inkscape:current-layer="g5085" />
  <g
     inkscape:groupmode="layer"
     inkscape:label="Image"
     id="g5085">
    <g
       id="g5107"
       transform="translate(2.7642676,3.4590571e-5)">
      <path
         style="display:inline;fill:#1a96d0;fill-opacity:1"
         d="M 598.5,1278.4475 C 496.43591,1271.9034 397.55428,1241.3141 312.37828,1189.9351 260.16237,1158.4379 207.40984,1115.6929 170.10557,1074.6524 66.92597,961.13889 11.027237,829.41241 1.5126661,677.35988 -0.36065224,647.42235 -0.36768165,629.87476 1.4814761,599.5 8.3488396,486.69486 43.577383,381.20502 105.34055,288.5 145.83462,227.71937 192.81816,176.85748 247.92004,134.15099 351.55163,53.831744 470.40308,9.4272435 603,1.4883479 c 30.52907,-1.82784864 47.34128,-1.83372478 76,-0.026563 152.90164,9.6416721 286.89119,67.6898691 401.0629,173.7521951 32.8683,30.53373 68.0679,72.65106 95.5145,114.28602 61.4454,93.20892 96.1725,198.63603 102.9359,312.5 1.8408,30.99062 1.8416,49.34281 0,79.5 -8.597,141.03895 -60.9421,268.09582 -156.1077,378.9196 -43.4773,50.6308 -95.9902,94.4833 -157.05632,131.1548 -19.02013,11.422 -57.9168,30.9055 -79.44892,39.7964 -88.87138,36.6959 -190.26865,53.3048 -287.40376,47.0767 z"
         id="path5125" />
      <path
         style="display:inline;fill:#1886ba;fill-opacity:1"
         d="m 628.5,1278.9229 c -1.65,-0.5683 -6.2625,-0.7893 -10.25,-0.4909 -4.47056,0.3345 -7.25,0.164 -7.25,-0.4448 0,-0.5429 -0.56474,-0.9872 -1.25497,-0.9872 -1.29167,0 -3.91001,-1.5936 -63.24503,-38.4934 -152.02494,-94.5426 -230.29928,-142.8931 -232,-143.3078 -3.92865,-0.9579 -4.35756,-2.0209 -3.83487,-9.5038 0.27642,-3.9572 0.0556,-16.195 -0.4907,-27.195 -0.54631,-11 -1.24865,-28.325 -1.56076,-38.5 -0.3121,-10.175 -1.02009,-29.975 -1.5733,-44 -0.55321,-14.025 -1.47547,-37.875 -2.04946,-53 -0.57399,-15.125 -1.46884,-38.525 -1.98854,-52 -0.51971,-13.475 -1.40692,-38 -1.97159,-54.5 -0.56467,-16.5 -1.27481,-32.475 -1.5781,-35.5 -0.30329,-3.025 -0.50796,-8.45151 -0.45482,-12.0589 0.0531,-3.6074 -0.36239,-17.1074 -0.92341,-30 C 297.51343,726.04849 296.56164,702 295.95937,685.5 c -0.60228,-16.5 -1.47317,-38.55 -1.93532,-49 -0.46215,-10.45 -1.07358,-27.68922 -1.35874,-38.30938 -0.51306,-19.10783 -0.49576,-19.31943 1.65811,-20.27138 1.99056,-0.87978 1.94414,-0.92978 -0.54316,-0.58508 -1.49585,0.20731 -2.46745,-0.0313 -2.15909,-0.53021 0.31147,-0.50397 3.52022,-0.61711 7.21973,-0.25457 6.06311,0.59416 51.85315,-0.68072 76.8603,-2.13993 l 10.20121,-0.59526 -2.1029,-5.65709 C 382.64292,565.04569 359.64731,507.375 332.69815,440 305.749,372.625 283.48843,316.24373 283.23022,314.70829 c -0.40227,-2.39214 -0.023,-2.96025 2.65016,-3.96924 1.76531,-0.66633 3.11962,-1.89744 3.11962,-2.83584 0,-0.91208 0.5625,-2.10344 1.25,-2.64747 C 292.09719,303.79401 546.59922,202 548.40659,202 c 1.98298,0 2.82339,1.70619 12.06785,24.5 7.12926,17.5784 9.52556,22.57224 9.52556,19.85108 0,-2.72181 8.05426,-56.62986 8.59057,-57.49762 0.33628,-0.54411 2.07737,-0.86299 3.8691,-0.70863 2.02837,0.17476 3.89166,-0.3533 4.9377,-1.39934 1.08084,-1.08084 2.64699,-1.5033 4.39132,-1.18453 1.49122,0.27251 62.56131,9.04134 135.71131,19.48628 73.15,10.44494 134.125,19.3627 135.5,19.81725 2.15802,0.71339 2.5,1.42284 2.5,5.18633 v 4.35988 l 14,5.2456 c 7.7,2.88508 63.725,23.53446 124.5,45.88752 60.775,22.35306 133,48.92723 160.5,59.05371 27.5,10.12649 50.5291,19.12506 51.1758,19.99683 3.2751,4.41483 17.251,37.60949 25.0116,59.40564 10.5438,29.61335 21.4464,70.45182 26.4298,99 5.455,31.24933 9.873,68.27986 9.8798,82.80902 0,3.46996 0.3864,6.07208 0.8549,5.78249 0.7702,-0.476 1.0142,5.49198 1.2229,29.90849 0.1376,16.10708 -0.491,31.3608 -1.2726,30.87776 -0.4412,-0.27269 -0.8038,2.11826 -0.8057,5.31322 0,7.21831 -2.554,34.28527 -4.5507,48.30902 -2.857,20.06527 -4.3333,28.39996 -9.4763,53.5 -5.4183,26.44368 -17.3987,65.50328 -29.292,95.5 -36.1485,91.17279 -98.7619,179.8798 -172.4196,244.2741 -87.4532,76.4549 -186.1587,124.8786 -299.2579,146.8121 -27.33963,5.302 -72.40731,10.9061 -87.75,10.9116 -3.4375,0 -6.25,0.427 -6.25,0.9462 0,0.5327 -4.02986,0.891 -9.25,0.8223 -5.0875,-0.067 -13.3,0.1735 -18.25,0.5342 -5.40935,0.3942 -10.19688,0.2436 -12,-0.3776 z M 362.77643,1091.2731 c -2.04796,-0.2149 -5.64796,-0.2178 -8,-0.01 -2.35204,0.2112 -0.67643,0.3871 3.72357,0.3907 4.4,0 6.32439,-0.1692 4.27643,-0.3841 z m 24,-1 c -2.04796,-0.2149 -5.64796,-0.2178 -8,-0.01 -2.35204,0.2112 -0.67643,0.3871 3.72357,0.3907 4.4,0 6.32439,-0.1692 4.27643,-0.3841 z m 27.50374,-1.0038 c -2.3209,-0.2098 -6.3709,-0.2122 -9,-0.01 -2.62909,0.2067 -0.73017,0.3783 4.21983,0.3813 4.95,0 7.10108,-0.166 4.78017,-0.3757 z m 25.96983,-1.0015 c -2.3375,-0.2105 -6.1625,-0.2105 -8.5,0 -2.3375,0.2105 -0.425,0.3828 4.25,0.3828 4.675,0 6.5875,-0.1723 4.25,-0.3828 z m 27.03017,-0.9985 c -2.3209,-0.2098 -6.3709,-0.2122 -9,-0.01 -2.62909,0.2067 -0.73017,0.3783 4.21983,0.3813 4.95,0 7.10108,-0.166 4.78017,-0.3757 z m 24.46983,-0.9978 c -2.0625,-0.2157 -5.4375,-0.2157 -7.5,0 -2.0625,0.2158 -0.375,0.3923 3.75,0.3923 4.125,0 5.8125,-0.1765 3.75,-0.3923 z m 28.53017,-1.0022 c -2.3209,-0.2098 -6.3709,-0.2122 -9,-0.01 -2.62909,0.2067 -0.73017,0.3783 4.21983,0.3813 4.95,0 7.10108,-0.166 4.78017,-0.3757 z m 24.49626,-0.9962 c -2.04796,-0.2149 -5.64796,-0.2178 -8,-0.01 -2.35204,0.2112 -0.67643,0.3871 3.72357,0.3907 4.4,0 6.32439,-0.1692 4.27643,-0.3841 z m 27.50374,-1.0038 c -2.3209,-0.2098 -6.3709,-0.2122 -9,-0.01 -2.62909,0.2067 -0.73017,0.3783 4.21983,0.3813 4.95,0 7.10108,-0.166 4.78017,-0.3757 z m 25.96983,-1.0015 c -2.3375,-0.2105 -6.1625,-0.2105 -8.5,0 -2.3375,0.2105 -0.425,0.3828 4.25,0.3828 4.675,0 6.5875,-0.1723 4.25,-0.3828 z m 27.03017,-0.9985 c -2.3209,-0.2098 -6.3709,-0.2122 -9,-0.01 -2.62909,0.2067 -0.73017,0.3783 4.21983,0.3813 4.95,0 7.10108,-0.166 4.78017,-0.3757 z m 24.46983,-0.9978 c -2.0625,-0.2157 -5.4375,-0.2157 -7.5,0 -2.0625,0.2158 -0.375,0.3923 3.75,0.3923 4.125,0 5.8125,-0.1765 3.75,-0.3923 z m 27.5,-1.0037 c -2.3375,-0.2105 -6.1625,-0.2105 -8.5,0 -2.3375,0.2105 -0.425,0.3828 4.25,0.3828 4.675,0 6.5875,-0.1723 4.25,-0.3828 z m 25.52643,-0.9947 c -2.04796,-0.2149 -5.64796,-0.2178 -8,-0.01 -2.35204,0.2112 -0.67643,0.3871 3.72357,0.3907 4.4,0 6.32439,-0.1692 4.27643,-0.3841 z m 27.50374,-1.0038 c -2.3209,-0.2098 -6.3709,-0.2122 -9,-0.01 -2.62909,0.2067 -0.73017,0.3783 4.21983,0.3813 4.95,0 7.10108,-0.166 4.78017,-0.3757 z m 25.96983,-1.0015 c -2.3375,-0.2105 -6.1625,-0.2105 -8.5,0 -2.3375,0.2105 -0.425,0.3828 4.25,0.3828 4.675,0 6.5875,-0.1723 4.25,-0.3828 z m 27.03017,-0.9985 c -2.3209,-0.2098 -6.3709,-0.2122 -9,-0.01 -2.62909,0.2067 -0.73017,0.3783 4.21983,0.3813 4.95,0 7.10108,-0.166 4.78017,-0.3757 z m 24.49626,-0.9962 c -2.04796,-0.2149 -5.64796,-0.2178 -8,-0.01 -2.35204,0.2112 -0.67643,0.3871 3.72357,0.3907 4.4,0 6.32439,-0.1692 4.27643,-0.3841 z m 27.50374,-1.0038 c -2.3209,-0.2098 -6.3709,-0.2122 -9,-0.01 -2.62909,0.2067 -0.73017,0.3783 4.21983,0.3813 4.95,0 7.10108,-0.166 4.78017,-0.3757 z m 25.49626,-0.9962 c -2.04796,-0.2149 -5.64796,-0.2178 -8,-0.01 -2.35204,0.2112 -0.67643,0.3871 3.72357,0.3907 4.4,0 6.32439,-0.1692 4.27643,-0.3841 z m 27.50374,-1.0038 c -2.3209,-0.2098 -6.3709,-0.2122 -9,-0.01 -2.62909,0.2067 -0.73017,0.3783 4.21983,0.3813 4.95,0 7.10108,-0.166 4.78017,-0.3757 z m 25.96983,-1.0015 c -2.3375,-0.2105 -6.1625,-0.2105 -8.5,0 -2.3375,0.2105 -0.425,0.3828 4.25,0.3828 4.675,0 6.5875,-0.1723 4.25,-0.3828 z m 26,-1 c -2.3375,-0.2105 -6.1625,-0.2105 -8.5,0 -2.3375,0.2105 -0.425,0.3828 4.25,0.3828 4.675,0 6.5875,-0.1723 4.25,-0.3828 z m 25.52643,-0.9947 c -2.04796,-0.2149 -5.64796,-0.2178 -8,-0.01 -2.35204,0.2112 -0.67643,0.3871 3.72357,0.3907 4.4,0 6.32439,-0.1692 4.27643,-0.3841 z m 24.97357,-1.0016 c -2.0625,-0.2157 -5.4375,-0.2157 -7.5,0 -2.0625,0.2158 -0.375,0.3923 3.75,0.3923 4.125,0 5.8125,-0.1765 3.75,-0.3923 z m 4.98724,-24.5215 c -0.202,-2.8875 -0.36728,-0.525 -0.36728,5.25 0,5.775 0.16528,8.1375 0.36728,5.25 0.202,-2.8875 0.202,-7.6125 0,-10.5 z m -1.01251,-23.9821 c -0.22256,-1.7973 -0.40925,-0.5679 -0.41486,2.7321 -0.006,3.3 0.17648,4.7706 0.40466,3.2679 0.22817,-1.5026 0.23276,-4.2026 0.0102,-6 z M 993.73504,989.25 c -0.206,-2.6125 -0.37454,-0.475 -0.37454,4.75 0,5.225 0.16854,7.3625 0.37454,4.75 0.206,-2.6125 0.206,-6.8875 0,-9.5 z m -1.01164,-23.5 c -0.22183,-1.7875 -0.40333,-0.325 -0.40333,3.25 0,3.575 0.1815,5.0375 0.40333,3.25 0.22182,-1.7875 0.22182,-4.7125 0,-6.5 z m -0.99267,-29.03017 c -0.20972,-2.32091 -0.37882,-0.16983 -0.37577,4.78017 0.003,4.95 0.17464,6.84892 0.38131,4.21983 0.20668,-2.6291 0.20418,-6.6791 -0.006,-9 z m -1.006,-22.95192 c -0.22256,-1.79735 -0.40925,-0.56791 -0.41486,2.73209 -0.006,3.3 0.17648,4.77056 0.40466,3.26791 0.22817,-1.50265 0.23276,-4.20265 0.0102,-6 z m -0.994,-30.04808 c -0.20972,-2.32091 -0.37882,-0.16983 -0.37577,4.78017 0.003,4.95 0.17464,6.84892 0.38131,4.21983 0.20668,-2.6291 0.20418,-6.6791 -0.006,-9 z M 988.66228,865.75 c -0.27741,-0.6875 -0.50439,-0.125 -0.50439,1.25 0,1.375 0.22698,1.9375 0.50439,1.25 0.27741,-0.6875 0.27741,-1.8125 0,-2.5 z m -4.93155,-140.03017 c -0.20972,-2.32091 -0.37882,-0.16983 -0.37577,4.78017 0.003,4.95 0.17464,6.84892 0.38131,4.21983 0.20668,-2.6291 0.20418,-6.6791 -0.006,-9 z M 982.7234,702.75 c -0.22183,-1.7875 -0.40333,-0.325 -0.40333,3.25 0,3.575 0.1815,5.0375 0.40333,3.25 0.22182,-1.7875 0.22182,-4.7125 0,-6.5 z m -0.99267,-29.03017 c -0.20972,-2.32091 -0.37882,-0.16983 -0.37577,4.78017 0.003,4.95 0.17464,6.84892 0.38131,4.21983 0.20668,-2.6291 0.20418,-6.6791 -0.006,-9 z m -1.006,-22.95192 c -0.22256,-1.79735 -0.40925,-0.56791 -0.41486,2.73209 -0.006,3.3 0.17648,4.77056 0.40466,3.26791 0.22817,-1.50265 0.23276,-4.20265 0.0102,-6 z m -0.994,-30.04808 c -0.20972,-2.32091 -0.37882,-0.16983 -0.37577,4.78017 0.003,4.95 0.17464,6.84892 0.38131,4.21983 0.20668,-2.6291 0.20418,-6.6791 -0.006,-9 z m -1.006,-22.95192 c -0.22256,-1.79735 -0.40925,-0.56791 -0.41486,2.73209 -0.006,3.3 0.17648,4.77056 0.40466,3.26791 0.22817,-1.50265 0.23276,-4.20265 0.0102,-6 z m -0.99123,-26.99148 c -0.21125,-2.35204 -0.38706,-0.67643 -0.39069,3.72357 -0.004,4.4 0.16921,6.32439 0.38408,4.27643 0.21488,-2.04796 0.21785,-5.64796 0.007,-8 z M 976.68933,553.25 c -0.25153,-0.9625 -0.45733,-0.175 -0.45733,1.75 0,1.925 0.2058,2.7125 0.45733,1.75 0.25152,-0.9625 0.25152,-2.5375 0,-3.5 z m -132.40916,3.01927 c -2.3209,-0.20972 -6.3709,-0.21222 -9,-0.006 -2.62909,0.20667 -0.73017,0.37827 4.21983,0.38131 4.95,0.003 7.10108,-0.16605 4.78017,-0.37577 z M 870.25,555.26779 c -2.3375,-0.21053 -6.1625,-0.21053 -8.5,0 -2.3375,0.21054 -0.425,0.3828 4.25,0.3828 4.675,0 6.5875,-0.17226 4.25,-0.3828 z m 27,-1 c -2.3375,-0.21053 -6.1625,-0.21053 -8.5,0 -2.3375,0.21054 -0.425,0.3828 4.25,0.3828 4.675,0 6.5875,-0.17226 4.25,-0.3828 z m 26.52643,-0.99468 c -2.04796,-0.21488 -5.64796,-0.21785 -8,-0.007 -2.35204,0.21125 -0.67643,0.38706 3.72357,0.39069 4.4,0.004 6.32439,-0.16921 4.27643,-0.38408 z m 25.50374,-1.00384 c -2.3209,-0.20972 -6.3709,-0.21222 -9,-0.006 -2.62909,0.20667 -0.73017,0.37827 4.21983,0.38131 4.95,0.003 7.10108,-0.16605 4.78017,-0.37577 z m 23.98358,-0.9732 c -1.22994,-0.23736 -3.47994,-0.24351 -5,-0.0136 -1.52006,0.22985 -0.51375,0.42406 2.23625,0.43157 2.75,0.008 3.99369,-0.18056 2.76375,-0.41792 z M 309.32814,1075.5 c 0.004,-3.85 0.18518,-5.3025 0.40166,-3.2277 0.21647,2.0748 0.21284,5.2248 -0.008,7 -0.22091,1.7752 -0.39803,0.078 -0.39359,-3.7723 z m -1.05578,-23.5 c 0,-2.475 0.19502,-3.4875 0.43337,-2.25 0.23836,1.2375 0.23836,3.2625 0,4.5 -0.23835,1.2375 -0.43337,0.225 -0.43337,-2.25 z m -0.92955,-27.5 c 0.004,-4.4 0.17944,-6.0756 0.39069,-3.7236 0.21124,2.3521 0.20827,5.9521 -0.007,8 -0.21487,2.048 -0.38771,0.1236 -0.38408,-4.2764 z M 306.27236,999 c 0,-2.475 0.19502,-3.4875 0.43337,-2.25 0.23836,1.2375 0.23836,3.2625 0,4.5 -0.23835,1.2375 -0.43337,0.225 -0.43337,-2.25 z m -0.92955,-27.5 c 0.004,-4.4 0.17944,-6.07561 0.39069,-3.72357 0.21124,2.35204 0.20827,5.95204 -0.007,8 -0.21487,2.04796 -0.38771,0.12357 -0.38408,-4.27643 z m -1.09063,-25 c 0.0111,-2.2 0.21589,-2.98225 0.45508,-1.73834 0.23919,1.24391 0.23011,3.04391 -0.0202,4 -0.25029,0.95609 -0.446,-0.0617 -0.4349,-2.26166 z m -0.90937,-27 c 0.004,-4.4 0.17944,-6.07561 0.39069,-3.72357 0.21124,2.35204 0.20827,5.95204 -0.007,8 -0.21487,2.04796 -0.38771,0.12357 -0.38408,-4.27643 z M 302.29966,893 c 0,-3.025 0.18747,-4.2625 0.41659,-2.75 0.22913,1.5125 0.22913,3.9875 0,5.5 -0.22912,1.5125 -0.41659,0.275 -0.41659,-2.75 z m -0.95685,-26.5 c 0.004,-4.4 0.17944,-6.07561 0.39069,-3.72357 0.21124,2.35204 0.20827,5.95204 -0.007,8 -0.21487,2.04796 -0.38771,0.12357 -0.38408,-4.27643 z m -1.09063,-25 c 0.0111,-2.2 0.21589,-2.98225 0.45508,-1.73834 0.23919,1.24391 0.23011,3.04391 -0.0202,4 -0.25029,0.95609 -0.446,-0.0617 -0.4349,-2.26166 z m -0.90937,-28 c 0.004,-4.4 0.17944,-6.07561 0.39069,-3.72357 0.21124,2.35204 0.20827,5.95204 -0.007,8 -0.21487,2.04796 -0.38771,0.12357 -0.38408,-4.27643 z M 298.27236,789 c 0,-2.475 0.19502,-3.4875 0.43337,-2.25 0.23836,1.2375 0.23836,3.2625 0,4.5 -0.23835,1.2375 -0.43337,0.225 -0.43337,-2.25 z m -0.19341,-6.58333 c 0.048,-1.16495 0.28494,-1.4019 0.60416,-0.60417 0.28887,0.72187 0.25335,1.58438 -0.0789,1.91667 -0.33229,0.33229 -0.56864,-0.25834 -0.52522,-1.3125 z M 297.34281,761.5 c 0.004,-4.4 0.17944,-6.07561 0.39069,-3.72357 0.21124,2.35204 0.20827,5.95204 -0.007,8 -0.21487,2.04796 -0.38771,0.12357 -0.38408,-4.27643 z m -1.0568,-26 c 0.008,-2.75 0.20172,-3.75631 0.43157,-2.23625 0.22986,1.52006 0.22371,3.77006 -0.0136,5 -0.23736,1.22994 -0.42542,-0.0137 -0.41792,-2.76375 z m -0.9498,-26.5 c 0,-4.125 0.17651,-5.8125 0.39226,-3.75 0.21574,2.0625 0.21574,5.4375 0,7.5 -0.21575,2.0625 -0.39226,0.375 -0.39226,-3.75 z m -1.08403,-25.5 c 0.0111,-2.2 0.21589,-2.98225 0.45508,-1.73834 0.23919,1.24391 0.23011,3.04391 -0.0202,4 -0.25029,0.95609 -0.446,-0.0617 -0.4349,-2.26166 z M 293.34941,656 c 0,-4.675 0.17226,-6.5875 0.3828,-4.25 0.21053,2.3375 0.21053,6.1625 0,8.5 -0.21054,2.3375 -0.3828,0.425 -0.3828,-4.25 z m -1.02934,-27 c 0,-3.575 0.1815,-5.0375 0.40333,-3.25 0.22182,1.7875 0.22182,4.7125 0,6.5 -0.22183,1.7875 -0.40333,0.325 -0.40333,-3.25 z m -0.95484,-27.5 c 0.003,-5.5 0.17053,-7.62242 0.37317,-4.71648 0.20265,2.90594 0.20052,7.40594 -0.005,10 -0.20525,2.59406 -0.37104,0.21648 -0.36844,-5.28352 z m -1.28628,-21.08333 c 0.048,-1.16495 0.28494,-1.4019 0.60416,-0.60417 0.28887,0.72187 0.25335,1.58438 -0.0789,1.91667 -0.33229,0.33229 -0.56864,-0.25834 -0.52522,-1.3125 z M 307.25,575.27153 c 2.0625,-0.21574 5.4375,-0.21574 7.5,0 2.0625,0.21575 0.375,0.39226 -3.75,0.39226 -4.125,0 -5.8125,-0.17651 -3.75,-0.39226 z"
         id="path5121" />
      <path
         style="display:inline;fill:#fdab51"
         d="m 311.58629,1090.75 c -0.24849,-1.2375 -0.94477,-16.2 -1.54728,-33.25 -0.60251,-17.05 -1.52207,-42.025 -2.04348,-55.5 -0.52141,-13.475 -1.41139,-36.875 -1.97773,-52 -0.56634,-15.125 -1.47357,-38.975 -2.01607,-53 -0.5425,-14.025 -1.43492,-37.425 -1.98315,-52 -2.17643,-57.86107 -3.07529,-81.57086 -4.01858,-106 -1.1483,-29.73847 -2.61625,-68.63163 -4.00078,-106 -0.54002,-14.575 -1.24235,-32.68663 -1.56074,-40.24806 -0.57718,-13.70743 -0.57203,-13.75057 1.74132,-14.59721 1.27611,-0.46704 18.5202,-1.38051 38.3202,-2.02993 19.8,-0.64943 40.19521,-1.45724 45.32268,-1.79513 9.25899,-0.61016 9.31851,-0.63097 8.71238,-3.04601 -0.33567,-1.33741 -23.1231,-58.74073 -50.63874,-127.56293 -27.51564,-68.82221 -50.27703,-126.37426 -50.58087,-127.89346 -0.45651,-2.28259 -0.0936,-2.97122 2.09004,-3.96616 1.45335,-0.66219 2.89728,-2.21928 3.20873,-3.46019 0.31145,-1.24091 1.08816,-2.46418 1.72603,-2.71837 0.63786,-0.25419 57.93613,-23.23676 127.32948,-51.07236 C 489.06308,226.77459 546.69781,204 547.74691,204 c 1.54775,0 3.57098,4.10159 10.72889,21.75 10.50954,25.91216 11.16217,27.29167 11.94545,25.25 0.31651,-0.825 2.48871,-14.775 4.82711,-31 L 579.5,190.5 583,190.17182 c 1.925,-0.1805 4.24141,-0.99603 5.14757,-1.81229 1.46597,-1.32053 16.34656,0.62244 135,17.62702 73.34384,10.51113 134.92743,19.44255 136.85243,19.8476 2.94639,0.61998 3.54603,1.2054 3.79098,3.70116 0.34151,3.47956 -6.66666,54.32387 -29.21633,211.96469 -9.04758,63.25 -16.14065,115.25964 -15.76239,115.57698 0.37825,0.31734 35.68391,-0.76148 78.45701,-2.39739 42.77311,-1.63591 78.0407,-2.70296 78.37243,-2.37123 0.58284,0.58285 2.00585,31.19198 4.30922,92.69164 0.60768,16.225 1.76375,46.375 2.56904,67 0.8053,20.625 1.90929,49.2 2.45333,63.5 0.54403,14.3 1.2362,31.625 1.53816,38.5 0.30196,6.875 1.21458,31.4 2.02806,54.5 1.40183,39.80707 2.02559,56.58097 4.46235,120 2.43251,63.3083 2.81344,77.0391 2.15611,77.7186 -0.69549,0.7189 -28.56014,1.8253 -422.65797,16.7812 -116.05,4.4041 -221.575,8.4532 -234.5,8.9979 -12.925,0.5448 -24.05393,0.9931 -24.73095,0.9964 -0.67702,0 -1.43426,-1.0066 -1.68276,-2.2441 z"
         id="path5119" />
      <path
         style="fill:#f5a34a"
         d="M 312.46009,1091.6674 C 312.23253,1091.0253 310.91479,1060.8 309.53176,1024.5 306.80154,952.8403 305.52282,919.43771 304,880 c -0.54155,-14.025 -1.43397,-37.425 -1.98315,-52 -0.54918,-14.575 -1.46246,-38.65 -2.0295,-53.5 -7.07836,-185.37223 -7.43028,-195.39041 -6.8829,-195.93778 0.26621,-0.26621 9.46412,-0.61412 20.43979,-0.77312 L 333.5,577.5 334.2213,595 c 0.65303,15.84377 6.95526,181.79137 14.79213,389.5 1.63937,43.45 3.0945,85.056 3.23362,92.4577 l 0.25295,13.4576 -4,0.6646 c -8.22698,1.3669 -35.60551,1.8132 -36.03991,0.5875 z m 68.18319,-59.4356 c -0.48705,-0.788 -2.17121,-34.43165 -3.11527,-62.2318 -0.28949,-8.525 -0.75198,-20.45 -1.02773,-26.5 -0.27576,-6.05 -0.73636,-17.525 -1.02355,-25.5 -0.79579,-22.09844 -2.40412,-65.58214 -3.47678,-94 -0.52938,-14.025 -1.42446,-37.875 -1.98905,-53 -0.5646,-15.125 -1.47437,-38.75 -2.02172,-52.5 -2.25839,-56.7334 -2.39906,-67.4115 -0.89448,-67.89766 0.77292,-0.24975 9.0553,-0.727 18.4053,-1.06056 9.35,-0.33356 28.475,-1.03628 42.5,-1.5616 14.025,-0.52532 37.425,-1.39677 52,-1.93657 14.575,-0.53979 31.9,-1.21929 38.5,-1.51 6.6,-0.2907 18.525,-0.75564 26.5,-1.03318 7.975,-0.27755 19.9,-0.7266 26.5,-0.99788 6.6,-0.27129 18.3,-0.71875 26,-0.99436 24.93731,-0.89259 40.52098,-1.48188 66,-2.49578 13.75,-0.54716 37.375,-1.45131 52.5,-2.00923 15.125,-0.55792 33.125,-1.24648 40,-1.53013 6.875,-0.28366 24.2,-0.93799 38.5,-1.45407 14.3,-0.51608 39.275,-1.46735 55.5,-2.11393 16.225,-0.64658 36.025,-1.22723 44,-1.29033 L 908.5,630.5 909.14159,644 c 0.35288,7.425 0.91751,21.6 1.25474,31.5 1.515,44.4754 2.66612,71.89578 3.03366,72.26332 0.21936,0.21936 11.70123,-0.0877 25.51528,-0.68224 33.68982,-1.4501 44.00686,-1.41097 44.53672,0.16892 0.45372,1.35286 1.83535,33.31554 3.65512,84.55777 0.67211,18.92568 0.77778,32.65488 0.25512,33.14578 -0.49073,0.4609 -15.51723,1.35897 -33.39223,1.99571 -17.875,0.63673 -33.4,1.33872 -34.5,1.55997 -1.93478,0.38914 -1.9771,0.91728 -1.29783,16.19652 0.38619,8.68684 1.17211,28.39425 1.74648,43.79425 0.57437,15.4 1.50294,40.12045 2.06349,54.93434 0.56055,14.81389 0.64044,27.31306 0.17754,27.77596 -0.99019,0.9902 -6.99974,1.4023 -32.68968,2.2418 -10.45,0.3415 -23.275,0.8141 -28.5,1.0503 -5.225,0.2362 -16.7,0.6813 -25.5,0.9892 -8.8,0.3078 -26.8,0.9936 -40,1.5241 -25.56675,1.0274 -68.9407,2.6756 -92,3.496 -7.7,0.274 -18.95,0.7182 -25,0.9871 -6.05,0.2689 -17.525,0.7228 -25.5,1.0086 -7.975,0.2858 -26.425,0.9694 -41,1.519 -14.575,0.5496 -38.65,1.4324 -53.5,1.9617 -14.85,0.5293 -31.725,1.1935 -37.5,1.4761 -5.775,0.2825 -17.475,0.7576 -26,1.0556 -8.525,0.298 -26.75,0.9596 -40.5,1.4701 -13.75,0.5105 -32.2,1.1803 -41,1.4883 -8.8,0.3081 -19.6856,0.7771 -24.19022,1.0422 -4.50462,0.2651 -8.40454,0.1353 -8.6665,-0.2886 z M 394.852,592.93705 c -1.84224,-1.03097 -7.43694,-14.68628 -8.16839,-19.93705 -0.26815,-1.925 -23.06139,-59.95487 -50.65164,-128.95528 -27.59024,-69.0004 -50.41268,-126.69825 -50.71652,-128.21745 -0.45651,-2.28259 -0.0936,-2.97122 2.09004,-3.96616 1.45335,-0.66219 2.89728,-2.21928 3.20873,-3.46019 0.31145,-1.24091 1.08816,-2.46418 1.72603,-2.71837 0.63786,-0.25419 57.93613,-23.23676 127.32948,-51.07236 C 489.06308,226.77459 546.69781,204 547.74691,204 c 1.54775,0 3.57098,4.10159 10.72889,21.75 10.50954,25.91216 11.16217,27.29167 11.94545,25.25 0.31651,-0.825 2.48871,-14.775 4.82711,-31 L 579.5,190.5 583,190.17182 c 1.925,-0.1805 4.24141,-0.99603 5.14757,-1.81229 1.46597,-1.32053 16.34656,0.62244 135,17.62702 73.34384,10.51113 134.92743,19.44266 136.85243,19.84786 2.80994,0.59147 3.56114,1.25899 3.8101,3.38569 0.40804,3.48553 -2.25648,22.85816 -25.48352,185.2799 -10.77539,75.35 -19.55275,139.475 -19.50525,142.5 0.11423,7.27498 -1.62021,18.20289 -3.12252,19.67355 -0.83553,0.81792 -18.47195,1.80667 -58.19881,3.26281 -68.39723,2.50701 -152.1111,5.62709 -188.5,7.02553 -14.575,0.56012 -38.425,1.47082 -53,2.02379 -58.99523,2.23822 -102.96238,3.98346 -111.01728,4.40673 -4.68451,0.24616 -9.24333,0.0412 -10.13072,-0.45536 z"
         id="path5117" />
      <path
         style="fill:#29ad84"
         d="m 855.6198,868.19384 c -1.35526,-2.19286 -5.26805,-113.94853 -4.03244,-115.17289 0.50195,-0.49738 15.08764,-1.41677 32.41264,-2.0431 92.40014,-3.34041 97.20148,-3.46215 97.84364,-2.48085 0.361,0.55165 1.16123,13.378 1.7783,28.503 0.61707,15.125 1.69006,40.46701 2.38442,56.31559 0.74844,17.08306 0.8959,29.18215 0.36216,29.71589 -0.49516,0.49516 -13.26815,1.36575 -28.38441,1.93465 -15.11626,0.56889 -36.25911,1.4681 -46.98411,1.99824 -39.73486,1.96413 -54.72054,2.29682 -55.3802,1.22947 z m 56.67062,-31.63802 c 10.56165,-4.99646 17.3218,-14.01343 19.7467,-26.33898 0.67266,-3.41907 1.00205,-8.17699 0.73197,-10.57315 -1.22229,-10.84408 -9.94403,-22.49146 -20.57259,-27.47351 -4.854,-2.27526 -7.03069,-2.67018 -14.71753,-2.67018 -8.1774,0 -9.64538,0.30737 -15.69736,3.28675 -15.57333,7.66673 -22.87925,23.33683 -18.51562,39.71325 2.99431,11.23744 9.03789,19.05639 18.45151,23.87186 8.58056,4.38932 21.51895,4.46718 30.57292,0.18396 z M 392.53505,586.67516 c -1.2952,-2.92866 -3.69852,-9.11616 -5.34073,-13.75 -1.6422,-4.63384 -25.1126,-63.75574 -52.15644,-131.38201 -27.04384,-67.62627 -49.41907,-124.19912 -49.72274,-125.71745 -0.45616,-2.28078 -0.0928,-2.96987 2.09035,-3.96459 1.45335,-0.66219 2.89728,-2.21928 3.20873,-3.46019 0.31145,-1.24091 1.08816,-2.46418 1.72603,-2.71837 0.63786,-0.25419 57.93613,-23.23676 127.32948,-51.07236 C 489.06308,226.77459 546.69781,204 547.74691,204 c 1.54775,0 3.57098,4.10159 10.72889,21.75 10.50954,25.91216 11.16217,27.29167 11.94545,25.25 0.31651,-0.825 2.48871,-14.775 4.82711,-31 L 579.5,190.5 583,190.17182 c 1.925,-0.1805 4.24141,-0.99603 5.14757,-1.81229 1.46597,-1.32053 16.34656,0.62244 135,17.62702 73.34384,10.51113 134.92743,19.44266 136.85243,19.84786 2.80994,0.59147 3.56114,1.25899 3.8101,3.38569 0.40263,3.43924 -2.05163,21.33141 -25.40774,185.2291 -10.73371,75.32205 -19.7443,138.99705 -20.02353,141.5 -0.27922,2.50294 -1.04119,7.90641 -1.69326,12.00772 -1.179,7.41559 -1.20496,7.4608 -4.68557,8.15829 -1.925,0.38575 -22.625,1.20274 -46,1.81552 -23.375,0.61278 -49.475,1.54135 -58,2.0635 -16.81963,1.03017 -62.61119,2.82804 -75.5,2.96428 -12.43284,0.13143 -137.61615,4.86155 -160,6.0457 -25.45962,1.34686 -64.26338,2.95659 -71.80503,2.97874 l -5.80503,0.0171 -2.35489,-5.32484 z"
         id="path5115" />
      <path
         style="fill:#c37521"
         d="m 855.6198,868.19384 c -1.35526,-2.19286 -5.26805,-113.94853 -4.03244,-115.17289 0.50195,-0.49738 15.08764,-1.41677 32.41264,-2.0431 92.40014,-3.34041 97.20148,-3.46215 97.84364,-2.48085 0.361,0.55165 1.16123,13.378 1.7783,28.503 0.61707,15.125 1.69006,40.46701 2.38442,56.31559 0.74844,17.08306 0.8959,29.18215 0.36216,29.71589 -0.49516,0.49516 -13.26815,1.36575 -28.38441,1.93465 -15.11626,0.56889 -36.25911,1.4681 -46.98411,1.99824 -39.73486,1.96413 -54.72054,2.29682 -55.3802,1.22947 z m 56.67062,-31.63802 c 10.56165,-4.99646 17.3218,-14.01343 19.7467,-26.33898 0.67266,-3.41907 1.00205,-8.17699 0.73197,-10.57315 -1.22229,-10.84408 -9.94403,-22.49146 -20.57259,-27.47351 -4.854,-2.27526 -7.03069,-2.67018 -14.71753,-2.67018 -8.1774,0 -9.64538,0.30737 -15.69736,3.28675 -15.57333,7.66673 -22.87925,23.33683 -18.51562,39.71325 2.99431,11.23744 9.03789,19.05639 18.45151,23.87186 8.58056,4.38932 21.51895,4.46718 30.57292,0.18396 z M 394.13959,590.25 C 391.95622,586.14492 388,575.50196 388,573.73335 c 0,-1.05701 -22.31692,-57.79193 -49.59316,-126.07759 -27.27624,-68.28567 -50.442,-126.28648 -51.47947,-128.8907 l -1.88631,-4.73493 3.02243,-1.56296 c 1.66234,-0.85963 3.40535,-2.57012 3.87337,-3.8011 0.70841,-1.86326 22.06923,-10.74203 127.5344,-53.01053 69.6759,-27.92481 127.38317,-50.6336 128.23837,-50.46397 0.99521,0.19741 5.07844,8.93788 11.3437,24.28212 5.38384,13.18553 10.23613,24.1228 10.78288,24.30505 1.42148,0.47382 1.54583,-0.18185 6.26393,-33.02874 L 580.3734,191 h 3.45306 c 2.00058,0 3.94158,-0.6681 4.61447,-1.58833 1.04695,-1.43178 7.75955,-0.64641 68.11024,7.96886 114.80923,16.38943 199.81389,28.62366 203.19883,29.24525 2.78771,0.51191 3.25,1.01183 3.25,3.51449 0,3.89692 -5.58605,44.0662 -27.09773,194.85973 -9.92533,69.575 -18.25621,130.1 -18.51306,134.5 -0.81289,13.92517 -1.40903,15.8198 -5.22309,16.59986 -1.82191,0.37262 -15.26636,1.00952 -29.87655,1.41533 -22.44132,0.62332 -26.42629,0.5242 -25.67678,-0.63868 1.6056,-2.49111 38.1969,-260.02326 36.99215,-260.35335 -14.68048,-4.02223 -27.74533,-15.71396 -32.16312,-28.78278 -0.88492,-2.61779 -1.90884,-7.79151 -2.27538,-11.49716 -0.66152,-6.68783 -0.69369,-6.74647 -4.35974,-7.94599 -4.72084,-1.54466 -74.50906,-11.62542 -76.14247,-10.99862 -0.67442,0.25879 -1.99724,2.91652 -2.93961,5.90604 -5.44349,17.26875 -22.68737,29.68052 -41.36621,29.77451 -3.46597,0.0174 -4.22626,0.38788 -4.66062,2.27084 -0.28547,1.2375 -2.90806,19.2029 -5.82799,39.9231 l -5.30896,37.6731 10.86241,27.3269 c 5.97433,15.0298 11.18751,27.69377 11.58486,28.14217 0.39734,0.4484 3.47184,-0.96175 6.83222,-3.13367 7.86593,-5.084 16.85197,-8.65312 26.92476,-10.69413 7.39249,-1.49791 8.95098,-1.49986 19.61934,-0.0245 15.49187,2.14237 20.33029,3.8584 31.00501,10.99643 45.58624,30.48286 40.95509,97.19112 -8.47554,122.08399 C 710.11728,550.96608 700.13246,554 695.66467,554 c -1.40065,0 -2.80808,0.42302 -3.12762,0.94004 -0.31953,0.51703 1.50073,6.14203 4.04503,12.5 L 701.20809,579 h 8.06262 c 15.04134,0 7.32341,0.75576 -19.27071,1.88704 -14.575,0.62 -31.98851,1.4018 -38.69668,1.73732 -11.48727,0.57457 -12.18942,0.50145 -12.0719,-1.25716 0.10764,-1.61069 -104.42275,-263.89186 -105.66901,-265.13812 -0.25317,-0.25318 -1.90044,0.0417 -3.66059,0.6553 -5.13035,1.78845 -16.94433,1.35128 -24.04648,-0.88983 -7.90519,-2.49451 -16.36022,-8.29084 -20.54106,-14.08189 -6.60186,-9.14449 -6.45539,-9.05925 -12.49484,-7.2714 -2.92569,0.86609 -19.71944,7.33534 -37.31944,14.37611 -36.38399,14.55518 -32.42283,11.34091 -30.95276,25.11654 1.65277,15.48763 -6.0857,31.22784 -19.62379,39.91521 -2.7079,1.73765 -4.92345,3.81185 -4.92345,4.60933 0,2.36499 82.97021,208.7051 84.23567,209.4872 2.08117,1.28623 -3.15044,1.7427 -32.23567,2.81259 -37.52914,1.3805 -36.74163,1.39523 -37.86041,-0.70824 z M 469.25,588.27153 c 2.0625,-0.21574 5.4375,-0.21574 7.5,0 2.0625,0.21575 0.375,0.39226 -3.75,0.39226 -4.125,0 -5.8125,-0.17651 -3.75,-0.39226 z m 27.52643,-1.00503 c 2.35204,-0.21124 5.95204,-0.20827 8,0.007 2.04796,0.21487 0.12357,0.38771 -4.27643,0.38408 -4.4,-0.004 -6.07561,-0.17944 -3.72357,-0.39069 z m 19.65434,-1.15449 c 0.30185,-0.48839 -1.4894,-1.19363 -3.98054,-1.5672 -14.13607,-2.11984 -26.99648,-8.88274 -37.95023,-19.95688 -8.89921,-8.99702 -13.47088,-16.05239 -17.02657,-26.27677 -9.16029,-26.34043 -3.34827,-52.00008 16.44465,-72.60189 8.9635,-9.32982 13.71512,-12.20809 30.08192,-18.22198 6.46922,-2.37708 9.01181,-2.75912 18.5,-2.77977 12.69561,-0.0276 20.39061,1.64139 31.28108,6.78472 24.14619,11.40373 38.6897,33.08932 39.97428,59.60498 0.65751,13.57226 -1.32096,23.09696 -7.44373,35.83529 -7.79055,16.20814 -23.69816,29.92667 -40.59508,35.0087 -3.9691,1.19377 -8.49052,2.82036 -10.04759,3.61464 -3.12025,1.59168 -20.18303,2.08495 -19.23819,0.55616 z M 548.25,585.27153 c 2.0625,-0.21574 5.4375,-0.21574 7.5,0 2.0625,0.21575 0.375,0.39226 -3.75,0.39226 -4.125,0 -5.8125,-0.17651 -3.75,-0.39226 z m 26.52643,-1.00503 c 2.35204,-0.21124 5.95204,-0.20827 8,0.007 2.04796,0.21487 0.12357,0.38771 -4.27643,0.38408 -4.4,-0.004 -6.07561,-0.17944 -3.72357,-0.39069 z M 601.25,583.27153 c 2.0625,-0.21574 5.4375,-0.21574 7.5,0 2.0625,0.21575 0.375,0.39226 -3.75,0.39226 -4.125,0 -5.8125,-0.17651 -3.75,-0.39226 z m 26,-1 c 2.0625,-0.21574 5.4375,-0.21574 7.5,0 2.0625,0.21575 0.375,0.39226 -3.75,0.39226 -4.125,0 -5.8125,-0.17651 -3.75,-0.39226 z m 105,-4 c 2.0625,-0.21574 5.4375,-0.21574 7.5,0 2.0625,0.21575 0.375,0.39226 -3.75,0.39226 -4.125,0 -5.8125,-0.17651 -3.75,-0.39226 z"
         id="path5113" />
      <path
         style="fill:#2c9271"
         d="M 391.85669,582.40118 C 389.90227,577.50553 384.34321,563.375 379.50322,551 374.66323,538.625 352.27224,482.375 329.74547,426 307.2187,369.625 287.94471,321.36928 286.91438,318.76506 l -1.87332,-4.73493 3.02243,-1.56296 c 1.66234,-0.85963 3.40535,-2.57012 3.87337,-3.8011 0.70841,-1.86326 22.06923,-10.74203 127.5344,-53.01053 69.6759,-27.92481 127.38317,-50.6336 128.23837,-50.46397 0.99521,0.19741 5.07844,8.93788 11.3437,24.28212 5.38384,13.18553 10.23613,24.1228 10.78288,24.30505 1.42148,0.47382 1.54583,-0.18185 6.26393,-33.02874 L 580.3734,191 h 3.45306 c 2.00058,0 3.94158,-0.6681 4.61447,-1.58833 1.04695,-1.43178 7.75955,-0.64641 68.11024,7.96886 114.80923,16.38943 199.81389,28.62366 203.19883,29.24525 2.78771,0.51191 3.25,1.01183 3.25,3.51449 0,3.89979 -5.59726,44.14713 -27.09947,194.85973 -9.92628,69.575 -18.20653,128.525 -18.40055,131 -0.65084,8.30236 -2.60039,18.44402 -3.67294,19.1069 -0.58447,0.36122 -10.79716,0.94477 -22.69486,1.29678 -11.8977,0.35201 -24.72809,0.90672 -28.51198,1.2327 -5.66996,0.48845 -6.72508,0.35272 -6,-0.77185 1.60061,-2.48248 38.18593,-260.01226 36.98474,-260.34137 -14.68048,-4.02223 -27.74533,-15.71396 -32.16312,-28.78278 -0.88492,-2.61779 -1.90884,-7.79151 -2.27538,-11.49716 -0.66152,-6.68783 -0.69369,-6.74647 -4.35974,-7.94599 -4.72084,-1.54466 -74.50906,-11.62542 -76.14247,-10.99862 -0.67442,0.25879 -1.99724,2.91652 -2.93961,5.90604 -5.44349,17.26875 -22.68737,29.68052 -41.36621,29.77451 -3.46597,0.0174 -4.22626,0.38788 -4.66062,2.27084 -0.28547,1.2375 -2.90806,19.2029 -5.82799,39.9231 l -5.30896,37.6731 10.86241,27.3269 c 5.97433,15.0298 11.18751,27.69377 11.58486,28.14217 0.39734,0.4484 3.47184,-0.96175 6.83222,-3.13367 7.86593,-5.084 16.85197,-8.65312 26.92476,-10.69413 7.39249,-1.49791 8.95098,-1.49986 19.61934,-0.0245 15.49187,2.14237 20.33029,3.8584 31.00501,10.99643 45.58624,30.48286 40.95509,97.19112 -8.47554,122.08399 C 710.11728,550.96608 700.13246,554 695.66467,554 c -1.40065,0 -2.80808,0.42302 -3.12762,0.94004 -0.31953,0.51703 1.50073,6.14203 4.04503,12.5 L 701.20809,579 l 7.64595,0.16319 c 4.20528,0.0897 -0.67904,0.47546 -10.85404,0.85714 -10.175,0.38168 -27.5375,1.03272 -38.58333,1.44675 -16.63421,0.6235 -20.08388,0.51923 -20.08652,-0.60715 -0.003,-1.34395 -104.8782,-263.74131 -105.76774,-264.63085 -0.25317,-0.25318 -1.90044,0.0417 -3.66059,0.6553 -5.13035,1.78845 -16.94433,1.35128 -24.04648,-0.88983 -7.90519,-2.49451 -16.36022,-8.29084 -20.54106,-14.08189 -6.60186,-9.14449 -6.45539,-9.05925 -12.49484,-7.2714 -2.92569,0.86609 -19.71944,7.33534 -37.31944,14.37611 -36.38399,14.55518 -32.42283,11.34091 -30.95276,25.11654 1.65277,15.48763 -6.0857,31.22784 -19.62379,39.91521 -2.7079,1.73765 -4.92345,3.81185 -4.92345,4.60933 0,2.1928 82.92177,208.67517 84.0931,209.39909 1.16663,0.72101 -14.90879,1.60819 -46.63801,2.57388 l -22.04492,0.67094 z m 77.39331,5.87035 c 2.0625,-0.21574 5.4375,-0.21574 7.5,0 2.0625,0.21575 0.375,0.39226 -3.75,0.39226 -4.125,0 -5.8125,-0.17651 -3.75,-0.39226 z m 26.4777,-0.99326 c 1.77523,-0.22091 4.92523,-0.22454 7,-0.008 2.07476,0.21648 0.6223,0.39722 -3.2277,0.40166 -3.85,0.004 -5.54754,-0.17268 -3.7723,-0.39359 z m 20.70307,-1.16626 c 0.30185,-0.48839 -1.4894,-1.19363 -3.98054,-1.5672 -14.13607,-2.11984 -26.99648,-8.88274 -37.95023,-19.95688 -8.89921,-8.99702 -13.47088,-16.05239 -17.02657,-26.27677 -9.16029,-26.34043 -3.34827,-52.00008 16.44465,-72.60189 8.9635,-9.32982 13.71512,-12.20809 30.08192,-18.22198 6.46922,-2.37708 9.01181,-2.75912 18.5,-2.77977 12.69561,-0.0276 20.39061,1.64139 31.28108,6.78472 24.14619,11.40373 38.6897,33.08932 39.97428,59.60498 0.65751,13.57226 -1.32096,23.09696 -7.44373,35.83529 -7.78337,16.1932 -23.64786,29.88286 -40.59508,35.02997 -3.9691,1.20547 -8.69432,2.83206 -10.50048,3.61465 -3.59475,1.55754 -19.70077,2.01614 -18.7853,0.53488 z m 31.29693,-0.83374 c 1.77523,-0.22091 4.92523,-0.22454 7,-0.008 2.07476,0.21648 0.6223,0.39722 -3.2277,0.40166 -3.85,0.004 -5.54754,-0.17268 -3.7723,-0.39359 z m 26.5223,-1.00674 c 2.0625,-0.21574 5.4375,-0.21574 7.5,0 2.0625,0.21575 0.375,0.39226 -3.75,0.39226 -4.125,0 -5.8125,-0.17651 -3.75,-0.39226 z m 26.4777,-0.99326 c 1.77523,-0.22091 4.92523,-0.22454 7,-0.008 2.07476,0.21648 0.6223,0.39722 -3.2277,0.40166 -3.85,0.004 -5.54754,-0.17268 -3.7723,-0.39359 z m 26.5223,-1.00674 c 2.0625,-0.21574 5.4375,-0.21574 7.5,0 2.0625,0.21575 0.375,0.39226 -3.75,0.39226 -4.125,0 -5.8125,-0.17651 -3.75,-0.39226 z m 105,-4 c 2.0625,-0.21574 5.4375,-0.21574 7.5,0 2.0625,0.21575 0.375,0.39226 -3.75,0.39226 -4.125,0 -5.8125,-0.17651 -3.75,-0.39226 z"
         id="path5111" />
      <path
         style="fill:#25775e"
         d="M 393.86589,586.21134 C 392.74945,583.6201 390.79077,578.35 389.51325,574.5 388.23574,570.65 364.82359,511.475 337.48626,443 310.14892,374.525 287.38304,317.4634 286.8954,316.19645 c -0.77004,-2.00066 -0.49273,-2.44086 2.10899,-3.34783 1.86626,-0.65058 2.99561,-1.73914 2.99561,-2.88743 0,-1.01373 0.50527,-2.15543 1.12283,-2.5371 2.49177,-1.54 254.4039,-102.21659 254.93861,-101.88612 0.31716,0.19602 5.02781,11.40516 10.46811,24.90921 C 566.28002,249.68557 568.80834,255 570.21051,255 571.19473,255 572,254.79901 572,254.55336 c 0,-1.8582 9.10054,-61.90703 9.47365,-62.51073 0.26324,-0.42592 1.6847,-0.54385 3.1588,-0.26206 1.8559,0.35478 3.08461,-0.0407 3.99516,-1.28598 1.25134,-1.71131 5.46575,-1.2048 87.09368,10.46725 154.62569,22.11006 181.75027,26.02385 184.02871,26.55336 1.6963,0.39422 2.25,1.23703 2.25,3.42478 0,3.28163 -7.02024,53.83482 -29.93449,215.56002 -8.72788,61.6 -16.32276,115.52214 -16.8775,119.82698 -0.55475,4.30484 -1.16149,7.96673 -1.34832,8.13754 -0.7768,0.71019 -53.34899,2.424 -53.98913,1.76 -0.38417,-0.39848 7.58973,-58.32452 17.71977,-128.72452 10.13004,-70.4 18.30833,-128.88473 18.17396,-129.96606 -0.17416,-1.40167 -1.82316,-2.51631 -5.74429,-3.88285 -16.45716,-5.73542 -27.59282,-19.68186 -28.94843,-36.25537 -0.32058,-3.91932 -1.16771,-7.83073 -1.88251,-8.69202 -1.77641,-2.14044 -6.23144,-2.9869 -45.93864,-8.72837 -25.18592,-3.64177 -34.86064,-4.69719 -35.81294,-3.90684 -0.71764,0.59558 -2.23,3.86132 -3.36082,7.25719 C 668.78964,279.1427 652.68668,291 636.4732,291 c -2.80002,0 -5.80491,0.5625 -6.67753,1.25 -1.20089,0.94612 -2.97566,10.87751 -7.30056,40.85306 l -5.71396,39.60305 11.23059,27.89695 c 6.17682,15.34332 11.44921,28.45944 11.71641,29.14694 0.71939,1.85095 2.20703,1.53682 5.8382,-1.23281 5.47047,-4.17253 17.02527,-9.49457 25.09463,-11.55836 9.43412,-2.41284 15.78315,-2.42547 29.44321,-0.0585 21.60515,3.74359 38.71982,17.0082 48.51309,37.59972 4.76906,10.02752 6.69262,18.46558 6.72489,29.5 0.0336,11.47718 -1.90177,19.56142 -7.30155,30.5 -9.5998,19.44675 -27.53805,33.28119 -48.27669,37.23224 -4.54516,0.86593 -8.67104,1.93503 -9.16862,2.37578 -0.52107,0.46156 1.11129,5.72548 3.84955,12.41378 2.61484,6.38683 4.51129,11.85539 4.21432,12.15235 -1.03056,1.03056 -55.70624,2.67879 -56.67648,1.70855 -0.51626,-0.51626 -24.38834,-59.42607 -53.04907,-130.91068 C 560.27291,377.98741 536.28136,318.375 535.61908,317 c -0.66227,-1.375 -1.86,-2.39746 -2.66161,-2.27214 -0.80161,0.12532 -4.01591,0.72754 -7.14288,1.33826 -7.47875,1.46066 -17.02022,-0.0194 -25.15427,-3.90199 C 493.04881,308.531 489.03719,305.09469 484.12481,298 c -3.54468,-5.11939 -4.07867,-5.49502 -7.71651,-5.42804 -4.02401,0.0741 -71.65073,26.33663 -74.18745,28.81037 -1.01217,0.98704 -1.03955,2.36458 -0.13121,6.60004 1.9163,8.9354 0.76983,19.58146 -2.97161,27.5942 -3.71512,7.95638 -7.26675,12.01489 -15.36803,17.5613 -3.1625,2.16516 -5.75,4.36969 -5.75,4.89896 0,0.52927 18.72874,47.78376 41.61941,105.00999 22.89068,57.22623 41.35896,104.30814 41.04063,104.62648 -0.31834,0.31833 -10.60958,0.94999 -22.86942,1.40369 -12.25984,0.45369 -26.70157,1.05458 -32.09273,1.3353 l -9.80211,0.51039 z M 509.5,582.36418 c -3.85,-0.81002 -11.275,-3.52975 -16.5,-6.04383 -7.94698,-3.82381 -10.82735,-5.91149 -17.61954,-12.77057 -6.53793,-6.60233 -9.02598,-10.03543 -12.77297,-17.62464 -6.10253,-12.36016 -7.95953,-21.25876 -7.28833,-34.92514 0.8691,-17.69594 6.56678,-30.66909 19.34245,-44.04124 8.37088,-8.7617 15.6103,-13.0778 30.04968,-17.91543 10.65046,-3.56824 20.60244,-4.01264 33.08087,-1.47722 23.76125,4.82791 44.84597,23.78828 51.63644,46.43389 5.62562,18.76095 3.12208,40.28447 -6.60781,56.80898 -1.82644,3.10187 -6.71524,9.07302 -10.86401,13.26922 -15.94702,16.12932 -39.68059,23.07799 -62.45678,18.28598 z"
         id="path5109" />
    </g>
  </g>
</svg>
