<?xml version="1.0" encoding="UTF-8" standalone="no"?>
<!-- Created with Inkscape (http://www.inkscape.org/) -->

<svg
   version="1.1"
   id="svg3807"
   width="1280"
   height="1280"
   viewBox="0 0 1280 1280"
   sodipodi:docname="globos.svg"
   inkscape:version="1.2 (dc2aedaf03, 2022-05-15)"
   xmlns:inkscape="http://www.inkscape.org/namespaces/inkscape"
   xmlns:sodipodi="http://sodipodi.sourceforge.net/DTD/sodipodi-0.dtd"
   xmlns="http://www.w3.org/2000/svg"
   xmlns:svg="http://www.w3.org/2000/svg">
  <defs
     id="defs3811" />
  <sodipodi:namedview
     id="namedview3809"
     pagecolor="#ffffff"
     bordercolor="#000000"
     borderopacity="0.25"
     inkscape:showpageshadow="2"
     inkscape:pageopacity="0.0"
     inkscape:pagecheckerboard="0"
     inkscape:deskcolor="#d1d1d1"
     showgrid="false"
     inkscape:zoom="0.6296875"
     inkscape:cx="640"
     inkscape:cy="897.27047"
     inkscape:window-width="1680"
     inkscape:window-height="979"
     inkscape:window-x="-8"
     inkscape:window-y="-8"
     inkscape:window-maximized="1"
     inkscape:current-layer="g3813" />
  <g
     inkscape:groupmode="layer"
     inkscape:label="Image"
     id="g3813">
    <g
       id="g3841"
       transform="translate(2.704714,2.883409)">
      <path
         style="fill:#1a96d0;fill-opacity:1"
         d="M 0,640 V 0 h 640 640 v 640 640 H 640 0 Z m 679.94735,446.9269 c 87.53562,-8.17 170.51628,-41.2139 237.98706,-94.76928 78.65571,-62.43343 133.82169,-147.99388 157.46599,-244.22409 15.1298,-61.57704 17.3096,-123.20956 6.5603,-185.49073 C 1060.955,440.73596 988.97339,331.9301 884.28256,263.63678 780.71891,196.07876 652.26138,174.58171 531.5,204.59949 388.07299,240.25129 270.52694,345.41974 219.21598,484 c -39.67753,107.16078 -36.88527,226.14467 7.78026,331.53342 60.80933,143.4802 194.31,246.30138 348.50376,268.41488 13.83402,1.984 31.39899,3.7154 45,4.4357 10.59769,0.5613 47.51842,-0.3437 59.44735,-1.4571 z m 41.75389,-58.559 C 721.31556,1027.9822 721,1025.1362 721,1022.0434 c 0,-12.753 -4.99033,-23.99869 -14.66608,-33.04988 C 695.13629,978.51869 683.62553,972.85856 645.5,959.07997 598.72699,942.17618 582.5984,930.72741 571.39356,906.476 c -5.73696,-12.4169 -7.74487,-22.71957 -7.791,-39.976 -0.0221,-8.25832 0.55323,-18.28783 1.28004,-22.3153 0.72607,-4.02342 1.08856,-7.54687 0.80553,-7.8299 -0.28303,-0.28303 -1.60207,0.19793 -2.93119,1.0688 -2.90021,1.90029 -3.75189,1.25902 -3.77225,-2.84027 -0.026,-5.22872 -0.5962,-5.42719 -10.69741,-3.72329 -11.77313,1.98593 -24.14073,0.61004 -38.89513,-4.3271 -41.12825,-13.76237 -76.84744,-48.454 -86.52198,-84.03294 -3.16124,-11.6257 -3.17095,-31.67715 -0.021,-43.43317 7.13137,-26.61564 24.09179,-47.26853 48.46692,-59.01874 14.1867,-6.8388 21.9759,-8.53585 38.68396,-8.42816 12.70679,0.0819 15.61302,0.42782 23.5,2.79711 38.1255,11.45309 61.37164,41.15004 68.10987,87.01037 2.20848,15.03093 1.5091,40.45656 -1.4496,52.69955 -4.30271,17.80447 -9.81482,29.14555 -18.97379,39.03834 l -5.60003,6.0487 3.45677,2.84174 c 4.06487,3.34164 3.6742,4.66863 -2.78034,9.44426 -4.70702,3.48265 -5.64969,6.19066 -7.3506,21.11605 -3.60592,31.64163 6.04451,60.7394 25.31621,76.33285 10.88914,8.81082 22.88247,14.50612 55.27151,26.24693 45.37505,16.44815 63.01123,27.62893 71.46123,45.30417 4.97478,10.406 6.78827,27.5556 2.99001,28.2756 -0.85182,0.1614 -1.86432,-0.022 -2.25,-0.4077 z M 817.74649,906.75 c -0.2311,-0.6875 1.05218,-4.12766 2.85172,-7.64479 7.16169,-13.9972 6.81498,-27.40826 -1.1324,-43.80174 -5.43135,-11.20352 -13.20149,-21.64136 -33.43581,-44.91522 -26.81397,-30.84186 -34.78745,-43.13937 -39.14592,-60.37481 -2.78961,-11.03139 -2.29004,-28.73847 1.11479,-39.51344 4.8135,-15.23288 12.42276,-29.55298 21.91896,-41.25 l 5.07405,-6.25 h -3.43692 c -4.36703,0 -4.8982,-0.93427 -3.04832,-5.36165 0.82135,-1.96576 1.49336,-3.7774 1.49336,-4.02586 0,-0.24847 -2.3625,-1.22555 -5.25,-2.1713 -23.16109,-7.58602 -44.98111,-29.52737 -59.15549,-59.48441 -22.14623,-46.8053 -18.58139,-88.71902 10.11962,-118.98151 12.8748,-13.57526 25.6777,-21.17905 44.05254,-26.16333 11.02799,-2.9914 32.37652,-2.95098 43.73333,0.0828 18.98108,5.07047 36.41935,16.47993 48.20006,31.53618 6.3347,8.09602 14.38354,24.18402 16.79464,33.56908 2.55662,9.95149 3.05826,28.59675 1.07619,40 -2.95899,17.02363 -12.29831,41.23848 -21.3677,55.40184 -8.69326,13.57597 -21.60318,27.64917 -31.79843,34.66369 -4.92625,3.38935 -18.45033,9.92489 -20.58922,9.94978 -0.72355,0.008 -1.93387,0.40699 -2.6896,0.88569 -1.14174,0.72322 -1.07415,1.37809 0.39976,3.87322 0.9756,1.65157 1.51241,3.68407 1.19291,4.51668 -0.56981,1.4849 -8.4813,3.7091 -13.19327,3.7091 -1.8016,0 -3.83643,1.93783 -8.41448,8.01337 -16.94601,22.48905 -23.83674,41.59015 -22.84788,63.33425 1.02,22.42864 7.78259,34.57183 39.50779,70.94191 19.15069,21.95455 28.23141,34.12203 33.75527,45.22952 7.8045,15.69347 9.16999,29.16874 4.28455,42.2818 -3.8257,10.26858 -8.68832,16.04199 -10.0641,11.94915 z M 674.60551,698.17071 c -0.28189,-0.4561 0.19279,-3.0436 1.05485,-5.75 2.14395,-6.73078 2.1611,-19.53617 0.0356,-26.5964 -4.00147,-13.29178 -16.43334,-27.0858 -40.69165,-45.15018 -7.42739,-5.53093 -18.55587,-13.81319 -24.72997,-18.40502 C 576.0658,576.82736 563.94452,557.26987 563.93421,527.5 c -0.006,-16.80309 3.53122,-31.8166 11.6204,-49.32457 1.89497,-4.1014 3.44539,-7.62043 3.44539,-7.82007 0,-0.19963 -1.4625,-0.24876 -3.25,-0.10917 -3.44338,0.26891 -3.63602,-0.18179 -2.65172,-6.20409 0.36302,-2.22113 -0.0318,-2.53229 -4.09828,-3.23015 -13.40793,-2.30092 -17.15503,-3.25081 -23.9459,-6.07027 -11.55181,-4.79613 -24.33895,-13.92637 -36.0541,-25.74324 -27.58341,-27.82292 -42.66347,-61.71975 -40.66983,-91.4173 2.60012,-38.73189 28.96025,-70.42847 67.16983,-80.76799 9.18227,-2.48472 28.34501,-3.48262 36.65867,-1.909 19.50494,3.69193 37.07643,13.10928 49.76104,26.66918 7.59824,8.12254 11.23351,13.46256 16.1117,23.66726 5.63929,11.79684 7.98246,21.89005 8.67153,37.35264 1.98914,44.63629 -17.36291,91.01133 -45.5923,109.25687 -3.42015,2.21054 -6.75669,4.21436 -7.41454,4.45293 -0.76028,0.27572 -0.19409,1.50366 1.5539,3.37009 1.5125,1.61497 2.75,3.4949 2.75,4.1776 0,1.2288 -9.35223,6.12068 -11.73743,6.13951 -2.8909,0.0228 -12.76686,24.16032 -15.7047,38.38335 -1.99724,9.66923 -2.00192,28.09974 -0.009,36.62642 2.68225,11.47774 8.77981,22.19128 18.3593,32.25769 9.19942,9.66701 15.49992,14.82766 40.74635,33.37475 28.85963,21.2015 39.52294,31.56411 46.8729,45.55111 6.4987,12.36705 7.61354,23.24898 3.79739,37.06645 -1.18649,4.29603 -2.04553,5.75 -3.39726,5.75 -0.99506,0 -2.03984,-0.37318 -2.32173,-0.82929 z"
         id="path3853" />
      <path
         style="fill:#afcbcc"
         d="m 722.63948,1027.3061 c -0.35171,-0.3517 -0.64482,-3.1519 -0.65135,-6.2228 -0.0213,-10.0017 -3.87249,-20.4428 -10.60218,-28.74363 C 703.57158,982.70096 685.80418,972.60416 660.5,963.4224 620.49057,948.90475 609.65938,944.22947 598.5116,936.66512 581.38403,925.04319 571.26113,909.6479 566.34342,887.74252 564.20798,878.23048 564.17621,853.4374 566.28608,843 c 0.83385,-4.125 1.3375,-7.6856 1.11923,-7.91244 -0.21827,-0.22684 -1.63626,0.20872 -3.15108,0.96791 -1.51483,0.7592 -3.06011,1.53426 -3.43397,1.72236 -0.37386,0.1881 -0.98829,-1.7155 -1.36539,-4.23021 -0.37711,-2.51472 -0.98149,-4.75506 -1.34308,-4.97853 -0.36159,-0.22347 -3.57216,0.27929 -7.13461,1.11726 -21.76251,5.11902 -54.70918,-5.08015 -81.47718,-25.22258 -23.25785,-17.50111 -38.24327,-37.468 -45.16735,-60.18193 -2.39343,-7.8515 -2.67704,-10.37093 -2.67704,-23.78184 0,-13.41669 0.28303,-15.92852 2.68132,-23.79659 6.0755,-19.93189 16.86887,-35.4904 32.72814,-47.17722 8.20832,-6.04877 15.64125,-9.78983 27.21242,-13.69624 17.40205,-5.87491 38.92605,-5.01839 57.91536,2.30466 15.32793,5.91108 31.2956,18.73875 40.73951,32.72819 20.77817,30.77909 25.7393,85.23965 10.99201,120.66424 -3.79923,9.12614 -9.45172,18.00031 -14.99868,23.54727 l -4.19763,4.19763 3.74789,3.14655 3.7479,3.14655 -3.94113,3.46748 c -2.16762,1.90711 -4.74434,3.92795 -5.72604,4.49076 -4.34239,2.48944 -6.93609,33.44422 -4.1412,49.4236 3.15194,18.02076 8.43418,29.37303 18.94776,40.72134 11.33542,12.2354 24.13568,18.99767 62.13676,32.82634 37.52021,13.65368 50.3522,20.37929 61.81911,32.40115 C 720.00175,997.99855 725,1010.304 725,1022.5775 c 0,4.1139 -0.9907,6.0985 -2.36052,4.7286 z M 819,906.12174 c 0,-0.65352 1.12875,-3.41571 2.50833,-6.13818 7.64335,-15.08343 7.17963,-28.90683 -1.55936,-46.48356 -5.06654,-10.19031 -12.90818,-20.60904 -31.98758,-42.5 -27.30455,-31.32817 -36.78431,-46.16197 -40.51848,-63.40278 -2.16537,-9.99762 -1.51074,-25.7941 1.51664,-36.59722 3.07257,-10.96433 11.95055,-28.1648 20.00314,-38.75469 C 772.83321,667.15523 776,662.76773 776,662.49531 776,662.22289 774.5,662 772.66667,662 c -4.3648,0 -4.88463,-0.67783 -3.12679,-4.07712 2.45514,-4.74771 1.91322,-5.52639 -5.50643,-7.91212 C 732.95701,640.01834 703.89299,600.76729 694.42182,556 c -2.408,-11.38186 -2.46261,-31.91011 -0.11001,-41.35343 6.76132,-27.13991 23.09444,-47.81336 47.18819,-59.72789 14.3229,-7.08278 23.03144,-9.13355 39,-9.1841 14.83532,-0.047 23.36873,1.48769 34.85043,6.26753 23.37214,9.72985 41.88438,29.70415 50.20916,54.17458 10.27694,30.20874 2.12586,70.25222 -21.48571,105.55189 -13.15026,19.65985 -34.06789,36.34014 -49.82388,39.73091 -3.7246,0.80156 -3.92838,1.57731 -1.5,5.71047 1.68144,2.86184 1.67573,3.0331 -0.14578,4.37112 -1.04267,0.76593 -4.54662,1.6925 -7.78656,2.05906 -5.54557,0.62741 -6.14536,0.96632 -10.23495,5.78316 -9.36492,11.03032 -17.65267,25.88566 -22.10203,39.6167 -2.13855,6.59972 -2.86236,11.10704 -3.23759,20.16139 -0.60729,14.65367 1.22415,23.59707 7.30062,35.6509 5.44075,10.79276 12.54216,20.20144 34.48385,45.68771 9.47014,11 19.13997,22.7 21.48853,26 17.07198,23.98821 21.07684,43.27188 12.81333,61.69713 C 822.83336,903.76263 819,908.56211 819,906.12174 Z M 676.27482,695.25 c 0.276,-1.5125 1.0501,-5.45 1.72022,-8.75 3.11172,-15.3236 -3.15046,-31.43936 -17.99334,-46.30597 -8.10773,-8.12068 -16.44193,-14.84383 -37.92861,-30.59677 -31.7983,-23.3129 -41.73728,-33.14071 -49.65263,-49.09726 -5.41107,-10.90818 -7.38012,-19.7225 -7.4031,-33.13953 -0.0283,-16.55201 4.31094,-34.16546 12.33917,-50.08551 2.00391,-3.97377 3.64347,-7.50082 3.64347,-7.83789 0,-0.33708 -1.82122,-0.30517 -4.04716,0.0709 l -4.04716,0.68376 0.6556,-4.94219 0.65561,-4.94218 -6.99011,-0.64967 c -40.94902,-3.80581 -87.57897,-52.2049 -96.82223,-100.49566 -5.45614,-28.5052 3.54389,-57.09339 24.60399,-78.15349 13.65884,-13.65884 26.82676,-20.68541 46.07321,-24.58524 11.47726,-2.32559 31.57972,-1.56028 41.41825,1.57682 32.59937,10.39457 55.81,36.40567 62.03919,69.5245 2.28991,12.17476 1.5555,38.81581 -1.44241,52.32471 -7.60157,34.25343 -23.80126,60.45369 -45.39142,73.41294 l -5.79465,3.47817 2.64597,3.14455 c 1.45528,1.7295 2.40865,3.76297 2.1186,4.51883 -0.43568,1.13537 -5.8448,3.58649 -11.3919,5.1622 -1.67068,0.47457 -8.74017,14.77369 -11.77754,23.82186 -6.35088,18.91892 -7.68755,38.50721 -3.62121,53.06705 6.11592,21.89851 16.75075,33.9458 54.11537,61.30267 37.22317,27.25331 49.21744,39.58533 54.91739,56.46379 2.55525,7.56652 2.81009,20.96593 0.54387,28.59711 -1.60647,5.40957 -4.07338,7.29201 -3.18644,2.4315 z"
         id="path3851" />
      <path
         style="fill:#f397a2"
         d="m 559.45487,833.54762 c -0.37711,-2.51472 -0.98149,-4.75506 -1.34308,-4.97853 -0.36159,-0.22347 -3.57216,0.27929 -7.13461,1.11726 -21.76251,5.11902 -54.70918,-5.08015 -81.47718,-25.22258 -23.25785,-17.50111 -38.24327,-37.468 -45.16735,-60.18193 -2.39343,-7.8515 -2.67704,-10.37093 -2.67704,-23.78184 0,-13.41669 0.28303,-15.92852 2.68132,-23.79659 6.0755,-19.93189 16.86887,-35.4904 32.72814,-47.17722 8.20832,-6.04877 15.64125,-9.78983 27.21242,-13.69624 17.40205,-5.87491 38.92605,-5.01839 57.91536,2.30466 15.32793,5.91108 31.2956,18.73875 40.73951,32.72819 20.77817,30.77909 25.7393,85.23965 10.99201,120.66424 -3.79923,9.12614 -9.45172,18.00031 -14.99868,23.54727 l -4.19763,4.19763 3.74789,3.14655 3.7479,3.14655 -4.08671,3.6921 c -2.2477,2.03066 -5.33556,3.95601 -6.86193,4.27857 -2.29653,0.48531 -5.36503,1.73212 -10.45495,4.24812 -0.37386,0.1848 -0.98829,-1.7215 -1.36539,-4.23621 z M 779,662.04351 c -0.825,-0.55708 -3.1875,-1.01978 -5.25,-1.0282 -4.17343,-0.017 -4.469,-0.72423 -2.1649,-5.17987 1.89131,-3.6574 1.5253,-4.07366 -5.5851,-6.3517 -22.64935,-7.25644 -42.77562,-26.92853 -57.27628,-55.98374 -17.235,-34.53405 -19.82954,-68.92273 -7.25363,-96.14163 4.67993,-10.1291 10.75549,-18.41858 19.78769,-26.99829 18.7854,-17.8443 42.97666,-25.93706 69.47551,-23.24182 35.78775,3.64002 65.2832,28.733 75.29369,64.05537 9.93378,35.05175 -6.75726,86.97754 -37.89436,117.88926 -10.79086,10.71275 -19.87406,16.63953 -30.86057,20.13648 -4.04135,1.28635 -7.23768,2.87361 -7.25,3.60029 -0.0121,0.71481 0.65559,2.61007 1.48381,4.21168 1.37705,2.66292 1.35567,2.99239 -0.25,3.85164 -2.85982,1.5304 -10.62943,2.2788 -12.25586,1.18053 z m -205.41601,-196.9651 0.6329,-4.77105 -6.99011,-0.64967 c -40.94902,-3.80581 -87.57897,-52.2049 -96.82223,-100.49566 -5.45614,-28.5052 3.54389,-57.09339 24.60399,-78.15349 13.65884,-13.65884 26.82676,-20.68541 46.07321,-24.58524 11.47726,-2.32559 31.57972,-1.56028 41.41825,1.57682 32.59937,10.39457 55.81,36.40567 62.03919,69.5245 2.28991,12.17476 1.5555,38.81581 -1.44241,52.32471 -7.60157,34.25343 -23.80126,60.45369 -45.39142,73.41294 l -5.79465,3.47817 2.54465,3.02414 c 1.39955,1.66327 2.54464,3.54698 2.54464,4.18601 0,2.06804 -8.30018,4.79985 -16.27446,5.35634 l -7.77446,0.54254 z"
         id="path3849" />
      <path
         style="fill:#f7e942"
         d="m 560.61599,832 c -0.35179,-2.2 -1.05638,-4 -1.56575,-4 -0.50938,0 -3.99156,0.72269 -7.73819,1.60597 -17.81728,4.20051 -42.42894,-1.31401 -65.89674,-14.7649 -30.85193,-17.6832 -52.63428,-42.84494 -61.08266,-70.55923 -2.39343,-7.8515 -2.67704,-10.37093 -2.67704,-23.78184 0,-13.41669 0.28303,-15.92852 2.68132,-23.79659 9.90866,-32.50735 34.85947,-55.83266 66.58966,-62.25147 10.11888,-2.04698 30.11926,-1.56138 39.57341,0.96083 25.89481,6.90829 45.29997,22.59365 57.01686,46.08723 9.43178,18.91169 13.54564,37.77642 13.54564,62.11563 0,30.51988 -7.28209,53.78648 -21.7128,69.37337 -5.92296,6.3975 -6.25298,8.18669 -1.87776,10.18017 1.39043,0.63352 2.52806,1.7157 2.52806,2.40483 0,1.95981 -8.1013,7.426 -11.00587,7.426 -1.43653,0 -3.48538,0.66069 -4.553,1.4682 -2.82412,2.13605 -3.11935,1.94555 -3.82514,-2.4682 z M 779,662.04351 c -0.825,-0.55708 -3.1875,-1.01978 -5.25,-1.0282 -4.17343,-0.017 -4.469,-0.72423 -2.1649,-5.17987 1.89131,-3.6574 1.5253,-4.07366 -5.5851,-6.3517 -22.64935,-7.25644 -42.77562,-26.92853 -57.27628,-55.98374 -17.235,-34.53405 -19.82954,-68.92273 -7.25363,-96.14163 4.67993,-10.1291 10.75549,-18.41858 19.78769,-26.99829 18.7854,-17.8443 42.97666,-25.93706 69.47551,-23.24182 35.78775,3.64002 65.2832,28.733 75.29369,64.05537 9.93378,35.05175 -6.75726,86.97754 -37.89436,117.88926 -10.79086,10.71275 -19.87406,16.63953 -30.86057,20.13648 -4.04135,1.28635 -7.23768,2.87361 -7.25,3.60029 -0.0121,0.71481 0.65559,2.61007 1.48381,4.21168 1.37705,2.66292 1.35567,2.99239 -0.25,3.85164 -2.85982,1.5304 -10.62943,2.2788 -12.25586,1.18053 z M 575.40661,464.71695 c 0.32636,-1.63182 0.59339,-3.5508 0.59339,-4.2644 0,-0.71359 1.6875,-1.83696 3.75,-2.49637 13.09026,-4.18511 28.12039,-16.22079 36.78481,-29.45618 16.29555,-24.89236 24.74373,-59.0784 22.309,-90.27464 -1.01655,-13.02503 -3.70217,-23.2315 -8.87412,-33.72536 -8.49385,-17.23394 -21.98668,-30.80528 -39.31022,-39.53891 -10.66963,-5.37908 -11.16766,-6.06036 -2.16636,-2.96346 25.45076,8.75634 46.72161,33.13971 53.65164,61.50237 2.83838,11.61667 3.10817,36.19454 0.54886,50 -6.74365,36.37658 -23.4702,65.30031 -45.03895,77.8818 -7.09627,4.13941 -8.06318,6.03353 -4.65466,9.1182 1.1,0.99549 2,2.17867 2,2.62931 0,1.95802 -6.85549,4.20616 -13.34339,4.37573 l -6.84339,0.17886 z"
         id="path3847" />
      <path
         style="fill:#f17883"
         d="m 779,662.04351 c -0.825,-0.55708 -3.1875,-1.01978 -5.25,-1.0282 -4.17343,-0.017 -4.469,-0.72423 -2.1649,-5.17987 1.89131,-3.6574 1.5253,-4.07366 -5.5851,-6.3517 -22.64935,-7.25644 -42.77562,-26.92853 -57.27628,-55.98374 -17.235,-34.53405 -19.82954,-68.92273 -7.25363,-96.14163 4.67993,-10.1291 10.75549,-18.41858 19.78769,-26.99829 18.7854,-17.8443 42.97666,-25.93706 69.47551,-23.24182 35.78775,3.64002 65.2832,28.733 75.29369,64.05537 9.93378,35.05175 -6.75726,86.97754 -37.89436,117.88926 -10.79086,10.71275 -19.87406,16.63953 -30.86057,20.13648 -4.04135,1.28635 -7.23768,2.87361 -7.25,3.60029 -0.0121,0.71481 0.65559,2.61007 1.48381,4.21168 1.37705,2.66292 1.35567,2.99239 -0.25,3.85164 -2.85982,1.5304 -10.62943,2.2788 -12.25586,1.18053 z M 575.40661,464.71695 c 0.32636,-1.63182 0.59339,-3.5508 0.59339,-4.2644 0,-0.71359 1.6875,-1.83696 3.75,-2.49637 13.09026,-4.18511 28.12039,-16.22079 36.78481,-29.45618 16.29555,-24.89236 24.74373,-59.0784 22.309,-90.27464 -1.01655,-13.02503 -3.70217,-23.2315 -8.87412,-33.72536 -8.49385,-17.23394 -21.98668,-30.80528 -39.31022,-39.53891 -10.66963,-5.37908 -11.16766,-6.06036 -2.16636,-2.96346 25.45076,8.75634 46.72161,33.13971 53.65164,61.50237 2.83838,11.61667 3.10817,36.19454 0.54886,50 -6.74365,36.37658 -23.4702,65.30031 -45.03895,77.8818 -7.09627,4.13941 -8.06318,6.03353 -4.65466,9.1182 1.1,0.99549 2,2.17867 2,2.62931 0,1.95802 -6.85549,4.20616 -13.34339,4.37573 l -6.84339,0.17886 z"
         id="path3845" />
      <path
         style="fill:#54babb"
         d="m 779,662.04351 c -0.825,-0.55708 -3.1875,-1.01978 -5.25,-1.0282 -4.17343,-0.017 -4.469,-0.72423 -2.1649,-5.17987 1.89131,-3.6574 1.5253,-4.07366 -5.5851,-6.3517 -22.64935,-7.25644 -42.77562,-26.92853 -57.27628,-55.98374 -17.235,-34.53405 -19.82954,-68.92273 -7.25363,-96.14163 4.67993,-10.1291 10.75549,-18.41858 19.78769,-26.99829 18.7854,-17.8443 42.97666,-25.93706 69.47551,-23.24182 35.78775,3.64002 65.2832,28.733 75.29369,64.05537 9.93378,35.05175 -6.75726,86.97754 -37.89436,117.88926 -10.79086,10.71275 -19.87406,16.63953 -30.86057,20.13648 -4.04135,1.28635 -7.23768,2.87361 -7.25,3.60029 -0.0121,0.71481 0.65559,2.61007 1.48381,4.21168 1.37705,2.66292 1.35567,2.99239 -0.25,3.85164 -2.85982,1.5304 -10.62943,2.2788 -12.25586,1.18053 z"
         id="path3843" />
    </g>
  </g>
</svg>
